<svg xmlns="http://www.w3.org/2000/svg" viewBox="0 0 307 307"><defs><style>.cls-1{fill:#fff;stroke:#000;stroke-miterlimit:10;}</style></defs><title>pindescriptionAsset 2</title><g id="Layer_2" data-name="Layer 2"><g id="Layer_1-2" data-name="Layer 1"><rect class="cls-1" x="0.5" y="0.5" width="306" height="306"/><rect class="cls-1" x="0.5" y="0.5" width="306" height="18"/><rect class="cls-1" x="0.5" y="18.5" width="306" height="18"/><rect class="cls-1" x="0.5" y="36.5" width="306" height="18"/><rect class="cls-1" x="0.5" y="54.5" width="306" height="18"/><rect class="cls-1" x="0.5" y="72.5" width="306" height="18"/><rect class="cls-1" x="0.5" y="90.5" width="306" height="18"/><rect class="cls-1" x="0.5" y="108.5" width="306" height="18"/><rect class="cls-1" x="0.5" y="126.5" width="306" height="18"/><rect class="cls-1" x="0.5" y="144.5" width="306" height="18"/><rect class="cls-1" x="0.5" y="162.5" width="306" height="18"/><rect class="cls-1" x="0.5" y="180.5" width="306" height="18"/><rect class="cls-1" x="0.5" y="198.5" width="306" height="18"/><rect class="cls-1" x="0.5" y="216.5" width="306" height="18"/><rect class="cls-1" x="0.5" y="234.5" width="306" height="18"/><rect class="cls-1" x="0.5" y="252.5" width="306" height="18"/><rect class="cls-1" x="0.5" y="270.5" width="306" height="18"/><rect class="cls-1" x="0.5" y="288.5" width="306" height="18"/><line class="cls-1" x1="54.5" y1="0.5" x2="54.5" y2="306.5"/><line class="cls-1" x1="117.5" y1="0.5" x2="117.5" y2="306.5"/></g><g id="Layer_2-2" data-name="Layer 2"><path d="M6.4,11.2v3.2H4.3V5.2H7.8a3.5,3.5,0,0,1,2.6.8,2.7,2.7,0,0,1,1,2.2,2.7,2.7,0,0,1-1,2.2,3.5,3.5,0,0,1-2.6.8Zm0-1.6H7.8a1.4,1.4,0,0,0,1.1-.4,1.8,1.8,0,0,0,.4-1,1.8,1.8,0,0,0-.4-1,1.2,1.2,0,0,0-1.1-.4H6.4Z"/><path d="M14.7,5.9H12.6V4.5h2.1Zm0,8.5H12.6V7.5h2.1Z"/><path d="M18,7.5v1a3,3,0,0,1,.8-.8A2,2,0,0,1,20,7.4a1.9,1.9,0,0,1,1.6.7,3.2,3.2,0,0,1,.6,2.2v4.1H20V10.3a2.2,2.2,0,0,0-.2-1c-.1-.2-.3-.2-.6-.2h-.6l-.5.3v4.9H16V7.5Z"/><path d="M34.4,14.4H32.3L28.9,8.6h-.1v5.8H26.7V5.2h2.1L32.2,11h.1V5.2h2.1Z"/><path d="M35.5,10.9a3.4,3.4,0,0,1,.8-2.5,3,3,0,0,1,2.5-1,3,3,0,0,1,2.4,1,3.5,3.5,0,0,1,.9,2.5h0a3.7,3.7,0,0,1-.9,2.6,3.2,3.2,0,0,1-2.4.9,3.3,3.3,0,0,1-2.5-.9,3.7,3.7,0,0,1-.8-2.6Zm2.1.1a2.6,2.6,0,0,0,.3,1.4,1.1,1.1,0,0,0,1.8,0A2.6,2.6,0,0,0,40,11h0a2.3,2.3,0,0,0-.3-1.3,1.1,1.1,0,0,0-1.8,0,2.5,2.5,0,0,0-.3,1.3Z"/><path d="M23.7,30.9h-1V24H21v-.9l2.7-.3Z"/><path d="M25.6,48.9H20.7v-.7l2.5-3,.9-1.2a4.4,4.4,0,0,0,.2-1,1.6,1.6,0,0,0-.3-.9,1.2,1.2,0,0,0-.9-.3,1.4,1.4,0,0,0-1.1.4,1.8,1.8,0,0,0-.3,1.1H20.6a2.1,2.1,0,0,1,.7-1.6,2.5,2.5,0,0,1,1.8-.7,2.1,2.1,0,0,1,1.6.6,2,2,0,0,1,.6,1.5,2.7,2.7,0,0,1-.3,1.2c-.2.4-.6.9-1,1.5L22,48h3.6Z"/><path d="M23,62.4a1.3,1.3,0,0,0,1-.3,1.8,1.8,0,0,0,0-2,1.3,1.3,0,0,0-1-.3,1.3,1.3,0,0,0-1,.4,1.3,1.3,0,0,0-.4.9h-1a1.8,1.8,0,0,1,.7-1.5,2.4,2.4,0,0,1,1.7-.7,2.2,2.2,0,0,1,1.7.6,1.9,1.9,0,0,1,.7,1.6,1.7,1.7,0,0,1-.3,1,2.7,2.7,0,0,1-.8.7,2.2,2.2,0,0,1,.9.7,2.4,2.4,0,0,1,.3,1.2,2.1,2.1,0,0,1-.7,1.7A2.4,2.4,0,0,1,23,67a2.7,2.7,0,0,1-1.7-.6,1.9,1.9,0,0,1-.8-1.6h1.1a1.3,1.3,0,0,0,.4,1,1.8,1.8,0,0,0,1,.4,1.8,1.8,0,0,0,1.1-.4,2,2,0,0,0,.3-1.1,1.8,1.8,0,0,0-.3-1.1,1.6,1.6,0,0,0-1.1-.3h-.9v-.9Z"/><path d="M24.7,82.2h1.1v.9H24.7v1.8H23.6V83.1H20.3v-.6l3.3-5.4h1.1Zm-3.3,0h2.2V78.6h0v.2Z"/><path d="M20.8,99.4l.5-4.3h3.9V96h-3l-.3,2.2.6-.3h.7a2.1,2.1,0,0,1,1.7.7,3.3,3.3,0,0,1,0,3.8,2.4,2.4,0,0,1-1.9.7,2.3,2.3,0,0,1-1.6-.6,1.6,1.6,0,0,1-.7-1.5h1a1.2,1.2,0,0,0,.4,1,1.3,1.3,0,0,0,.9.4,1.4,1.4,0,0,0,1.1-.5,2.5,2.5,0,0,0,.3-1.3,2.1,2.1,0,0,0-.3-1.2,1.4,1.4,0,0,0-1.1-.5l-.9.2a.9.9,0,0,0-.4.6Z"/><path d="M23.3,112.9h1l.7.3-.2.8-.7-.2h-.8a1.4,1.4,0,0,0-1.1.6,2.2,2.2,0,0,0-.5,1.6v.6l.8-.5.9-.2a1.9,1.9,0,0,1,1.6.7,2.4,2.4,0,0,1,.6,1.8,2.9,2.9,0,0,1-.6,1.9,2.4,2.4,0,0,1-1.8.7,2.5,2.5,0,0,1-1.8-.8,3.4,3.4,0,0,1-.8-2.3v-1.8a3.6,3.6,0,0,1,.8-2.3A2.5,2.5,0,0,1,23.3,112.9Zm-.2,3.8-.9.2a1,1,0,0,0-.5.6v.5a2.5,2.5,0,0,0,.4,1.6,1.4,1.4,0,0,0,1.1.6,1.2,1.2,0,0,0,1-.5,2.8,2.8,0,0,0,.4-1.3,2.2,2.2,0,0,0-.4-1.3A1.4,1.4,0,0,0,23.1,116.7Z"/><path d="M25.6,131.9a13.2,13.2,0,0,0-2,3.1,9.4,9.4,0,0,0-.5,3v.9H22V138a6.8,6.8,0,0,1,.7-3.2,11,11,0,0,1,1.9-2.9H20.4v-.8h5.2Z"/><path d="M25.3,151.1a1.7,1.7,0,0,1-.3,1,1.6,1.6,0,0,1-.9.7,2,2,0,0,1,1,.8,1.5,1.5,0,0,1,.4,1.1,1.9,1.9,0,0,1-.7,1.7,2.4,2.4,0,0,1-1.7.6,2.9,2.9,0,0,1-1.9-.6,1.9,1.9,0,0,1-.7-1.7,1.5,1.5,0,0,1,.4-1.1,1.9,1.9,0,0,1,1.1-.8,2.3,2.3,0,0,1-1-.7,1.7,1.7,0,0,1-.3-1,2.1,2.1,0,0,1,.6-1.6,2.5,2.5,0,0,1,1.7-.6,2.4,2.4,0,0,1,1.7.6A2.1,2.1,0,0,1,25.3,151.1Zm-.8,3.6a1.2,1.2,0,0,0-.4-1,1.4,1.4,0,0,0-1.1-.5,1.6,1.6,0,0,0-1.1.5,1.5,1.5,0,0,0-.4,1,2.1,2.1,0,0,0,.4,1.1,2.1,2.1,0,0,0,1.2.4,1.8,1.8,0,0,0,1-.4A1.5,1.5,0,0,0,24.5,154.7Zm-.2-3.6a1.3,1.3,0,0,0-.4-1,1.2,1.2,0,0,0-.9-.3,1.4,1.4,0,0,0-.9.3,1.8,1.8,0,0,0-.4,1,1.3,1.3,0,0,0,.4.9,1.3,1.3,0,0,0,1,.4.9.9,0,0,0,.8-.4A1,1,0,0,0,24.3,151.1Z"/><path d="M22.6,174.2a1.4,1.4,0,0,0,1.2-.6,2.1,2.1,0,0,0,.5-1.5v-.6l-.6.6-.9.2a2.9,2.9,0,0,1-1.8-.7,3.2,3.2,0,0,1-.6-2,2.5,2.5,0,0,1,.7-1.9,2.1,2.1,0,0,1,1.7-.8,2.6,2.6,0,0,1,1.9.8,3.3,3.3,0,0,1,.7,2.1v2.3a2.9,2.9,0,0,1-.8,2.1,2.8,2.8,0,0,1-2,.8h-.9l-.8-.2.2-.9c.2.2.5.2.7.3Zm.2-2.8.9-.2a1.3,1.3,0,0,0,.6-.7v-.9a1.7,1.7,0,0,0-.4-1.3,1.2,1.2,0,0,0-1.1-.5,1.1,1.1,0,0,0-1,.5,2.5,2.5,0,0,0-.3,1.3,2.3,2.3,0,0,0,.3,1.3A1.1,1.1,0,0,0,22.8,171.4Z"/><path d="M20.6,192.9h-1V186H17.9v-.9l2.7-.3Z"/><path d="M28.6,190.1a2.8,2.8,0,0,1-.7,2.1,2.4,2.4,0,0,1-3.6,0,2.8,2.8,0,0,1-.7-2.1v-2.3a2.8,2.8,0,0,1,.7-2.1,2.2,2.2,0,0,1,1.8-.8,2.3,2.3,0,0,1,1.8.8,2.8,2.8,0,0,1,.7,2.1Zm-1.1-2.5a2.3,2.3,0,0,0-.3-1.3,1.3,1.3,0,0,0-1.1-.5,1.2,1.2,0,0,0-1.1.5,2.3,2.3,0,0,0-.3,1.3v2.7a2.9,2.9,0,0,0,.3,1.4,1.5,1.5,0,0,0,2.2,0,2.9,2.9,0,0,0,.3-1.4Z"/><path d="M20.6,210.9h-1V204H17.9v-.9l2.7-.3Z"/><path d="M26.8,210.9h-1V204H24v-.9l2.8-.3Z"/><path d="M20.6,228.9h-1V222H17.9v-.9l2.7-.3Z"/><path d="M28.7,228.9H23.8v-.7l2.5-3a4.9,4.9,0,0,0,.8-1.2,2.2,2.2,0,0,0,.3-1,1.6,1.6,0,0,0-.3-.9,1.2,1.2,0,0,0-.9-.3,1.4,1.4,0,0,0-1.1.4,1.8,1.8,0,0,0-.3,1.1H23.7a2.1,2.1,0,0,1,.7-1.6,2.5,2.5,0,0,1,1.8-.7,2.1,2.1,0,0,1,1.6.6,2,2,0,0,1,.6,1.5,2.7,2.7,0,0,1-.3,1.2l-1,1.5-2,2.3h3.6Z"/><path d="M20.6,246.9h-1V240H17.9v-.9l2.7-.3Z"/><path d="M26.1,242.4a1.3,1.3,0,0,0,1-.3,1.8,1.8,0,0,0,0-2,1.3,1.3,0,0,0-1-.3,1.3,1.3,0,0,0-1,.4,1.3,1.3,0,0,0-.4.9h-1a1.8,1.8,0,0,1,.7-1.5,2.4,2.4,0,0,1,1.7-.7,2.2,2.2,0,0,1,1.7.6,1.9,1.9,0,0,1,.7,1.6,1.7,1.7,0,0,1-.3,1,2.7,2.7,0,0,1-.8.7,2.2,2.2,0,0,1,.9.7,2.4,2.4,0,0,1,.3,1.2,2.1,2.1,0,0,1-.7,1.7,2.6,2.6,0,0,1-1.8.6,2.7,2.7,0,0,1-1.7-.6,1.9,1.9,0,0,1-.8-1.6h1.1a1.3,1.3,0,0,0,.4,1,1.5,1.5,0,0,0,1,.4,1.8,1.8,0,0,0,1.1-.4,2,2,0,0,0,.3-1.1,1.8,1.8,0,0,0-.3-1.1,1.6,1.6,0,0,0-1.1-.3h-.9v-.9Z"/><path d="M20.6,264.9h-1V258H17.9v-.9l2.7-.3Z"/><path d="M27.8,262.2h1.1v.9H27.8v1.8H26.7v-1.8H23.4v-.6l3.3-5.4h1.1Zm-3.3,0h2.2v-3.6h0v.2Z"/><path d="M20.6,282.9h-1V276H17.9v-.9l2.7-.3Z"/><path d="M23.9,279.4l.5-4.3h3.9v.9h-3l-.3,2.2.6-.3h.7a2.1,2.1,0,0,1,1.7.7,3.3,3.3,0,0,1,0,3.8,2.5,2.5,0,0,1-1.9.7,2.3,2.3,0,0,1-1.6-.6,1.6,1.6,0,0,1-.7-1.5h1a1.2,1.2,0,0,0,.4,1,1.3,1.3,0,0,0,.9.4,1.4,1.4,0,0,0,1.1-.5,2.5,2.5,0,0,0,.3-1.3,2.1,2.1,0,0,0-.3-1.2,1.4,1.4,0,0,0-1.1-.5l-.9.2a.9.9,0,0,0-.4.6Z"/><path d="M20.6,300.9h-1V294H17.9v-.9l2.7-.3Z"/><path d="M26.4,292.9h1l.7.3-.2.8-.7-.2h-.8a1.7,1.7,0,0,0-1.2.6,2.7,2.7,0,0,0-.4,1.6v.6l.8-.5.9-.2a1.9,1.9,0,0,1,1.6.7,2.4,2.4,0,0,1,.6,1.8,2.9,2.9,0,0,1-.6,1.9,2.4,2.4,0,0,1-1.8.7,2.5,2.5,0,0,1-1.8-.8,3.4,3.4,0,0,1-.8-2.3v-1.8a3.6,3.6,0,0,1,.8-2.3A2.5,2.5,0,0,1,26.4,292.9Zm-.2,3.8-.9.2a1,1,0,0,0-.5.6v.5a2.5,2.5,0,0,0,.4,1.6,1.4,1.4,0,0,0,1.1.6,1.2,1.2,0,0,0,1-.5,2.8,2.8,0,0,0,.4-1.3,2.2,2.2,0,0,0-.4-1.3A1.4,1.4,0,0,0,26.2,296.7Z"/><path d="M77.6,14.4H75.4L72.1,8.6H72v5.8H69.9V5.2H72L75.4,11h0V5.2h2.2Z"/><path d="M82.9,14.4c-.1-.1-.1-.3-.2-.5a1.3,1.3,0,0,1-.1-.6,3.5,3.5,0,0,1-.7.9,2,2,0,0,1-1.1.3,2.3,2.3,0,0,1-1.7-.5,2,2,0,0,1-.6-1.5,1.9,1.9,0,0,1,.8-1.6,3.7,3.7,0,0,1,2.3-.6h.9V9.8a1.1,1.1,0,0,0-.2-.6.7.7,0,0,0-.6-.3l-.6.2a.8.8,0,0,0-.2.6H78.8A2.3,2.3,0,0,1,79.6,8a3.8,3.8,0,0,1,2.2-.6,3.7,3.7,0,0,1,2.1.6,2.6,2.6,0,0,1,.8,1.9v3.6l.3.9ZM81.4,13l.7-.2a.8.8,0,0,0,.4-.4v-.9h-.9l-.7.2a.8.8,0,0,0-.2.7.4.4,0,0,0,.2.4Z"/><path d="M87.8,7.5v.9a2.7,2.7,0,0,1,.8-.7,2.4,2.4,0,0,1,1.2-.3,2,2,0,0,1,1.1.3,2.7,2.7,0,0,1,.7.8l.8-.8a2,2,0,0,1,1.1-.3,1.9,1.9,0,0,1,1.6.7,3.4,3.4,0,0,1,.6,2.2v4.1H93.6V10.3a1.5,1.5,0,0,0-.2-1c-.1-.2-.3-.2-.6-.2h-.5c-.2,0-.3.1-.4.3v.2h0v4.6H89.7V10.3a1.5,1.5,0,0,0-.2-1c-.1-.2-.3-.2-.6-.2h-.5c-.2,0-.3.1-.4.3v4.9H85.8V7.5Z"/><path d="M100.1,14.5a3.3,3.3,0,0,1-2.5-.9,3.2,3.2,0,0,1-.9-2.4V11a3.7,3.7,0,0,1,.9-2.6,2.7,2.7,0,0,1,2.4-1,2.9,2.9,0,0,1,2.1.8,3.1,3.1,0,0,1,.8,2.3v1.1H99a1.2,1.2,0,0,0,.4.9,1.3,1.3,0,0,0,1,.3h1l.9-.3.5,1.3a3.3,3.3,0,0,1-1.2.5A3.9,3.9,0,0,1,100.1,14.5ZM100,9.1a1,1,0,0,0-.8.3,4.6,4.6,0,0,0-.3.9h1.9v-.2a1.1,1.1,0,0,0-.2-.8C100.5,9.1,100.3,9.1,100,9.1Z"/><path d="M86.1,28.4h0a2.4,2.4,0,0,1-.8,1.9,3.3,3.3,0,0,1-2.1.7,2.6,2.6,0,0,1-2.1-.9,3.6,3.6,0,0,1-.9-2.4V26.3a3.2,3.2,0,0,1,.9-2.4,2.7,2.7,0,0,1,2.1-1,2.9,2.9,0,0,1,2.1.8,1.9,1.9,0,0,1,.8,1.8h-1a1.7,1.7,0,0,0-.5-1.3,1.9,1.9,0,0,0-2.8.2,3.5,3.5,0,0,0-.5,1.8v1.4a3.5,3.5,0,0,0,.5,1.8,1.9,1.9,0,0,0,1.4.7,2,2,0,0,0,1.4-.5,1.9,1.9,0,0,0,.5-1.3Z"/><path d="M92.2,30.9H87.4v-.7l2.4-3a3.6,3.6,0,0,0,.9-1.2,2,2,0,0,0,.2-1,1.6,1.6,0,0,0-.3-.9,1.1,1.1,0,0,0-.8-.3,1.2,1.2,0,0,0-1.1.4,1.8,1.8,0,0,0-.4,1.1h-1a2.5,2.5,0,0,1,.6-1.6,2.9,2.9,0,0,1,1.9-.7,2.1,2.1,0,0,1,1.6.6A2,2,0,0,1,92,25a2.7,2.7,0,0,1-.3,1.2l-1.1,1.5L88.7,30h3.5Z"/><path d="M77.9,45.3H74.7v2.8h3.7v.8H73.6V41.1h4.8v.8H74.7v2.5h3.2Z"/><path d="M85.6,48.9H84.5l-3.7-6h-.1v6h-1V41.1h1L84.5,47h0V41.1h1.1Z"/><path d="M89.8,46.8l.2.7h0l.2-.7,2-5.7h1.1l-2.9,7.8h-.9l-2.9-7.8h1.2Z"/><path d="M97.3,48.9H96.2V42H94.5v-.9l2.8-.3Z"/><path d="M78.5,64.8l.2.7h0l.2-.7,2-5.7h1.2l-2.9,7.8h-.9l-2.9-7.8h1.1Z"/><path d="M83.1,66.9V59.1h2.5A3.2,3.2,0,0,1,88,60a3,3,0,0,1,1,2.4v1.1a3.4,3.4,0,0,1-3.4,3.4Zm1.1-7v6.2h1.4a2.1,2.1,0,0,0,1.7-.8,2.4,2.4,0,0,0,.6-1.8V62.4a2.8,2.8,0,0,0-.6-1.8,2.1,2.1,0,0,0-1.7-.7Z"/><path d="M90.6,66.9V59.1H93a3.5,3.5,0,0,1,2.5.9,3.2,3.2,0,0,1,.9,2.4v1.1a3.2,3.2,0,0,1-.9,2.4,3.2,3.2,0,0,1-2.5,1Zm1-7v6.2H93a2,2,0,0,0,1.7-.8,2.1,2.1,0,0,0,.7-1.8V62.4a2.4,2.4,0,0,0-.7-1.8,1.9,1.9,0,0,0-1.7-.7Z"/><path d="M80.9,81.7A3.2,3.2,0,0,1,80,84a2.8,2.8,0,0,1-2.3,1,2.7,2.7,0,0,1-2.2-1,3.2,3.2,0,0,1-.9-2.3V80.3a3.2,3.2,0,0,1,.9-2.4,3,3,0,0,1,2.2-1,3.1,3.1,0,0,1,2.3,1,3.2,3.2,0,0,1,.9,2.4Zm-1-1.4a2.6,2.6,0,0,0-.6-1.8,1.9,1.9,0,0,0-1.6-.7,1.8,1.8,0,0,0-1.5.7,3.2,3.2,0,0,0-.5,1.8v1.4a2.9,2.9,0,0,0,.5,1.7,1.8,1.8,0,0,0,1.5.7,1.9,1.9,0,0,0,1.6-.7,2.4,2.4,0,0,0,.6-1.7Z"/><path d="M86.6,82.9a1.2,1.2,0,0,0-.4-.9,4,4,0,0,0-1.3-.6,4.8,4.8,0,0,1-1.9-.9,1.7,1.7,0,0,1-.6-1.4,1.8,1.8,0,0,1,.7-1.5,2.4,2.4,0,0,1,1.8-.7,3,3,0,0,1,2,.7,2.3,2.3,0,0,1,.7,1.7h-1a1.5,1.5,0,0,0-1.7-1.5,1.8,1.8,0,0,0-1.1.3,1.3,1.3,0,0,0-.4,1,1.2,1.2,0,0,0,.4.8,2.6,2.6,0,0,0,1.4.6,3.8,3.8,0,0,1,1.8.9,1.8,1.8,0,0,1,.7,1.5,1.9,1.9,0,0,1-.8,1.5A2.9,2.9,0,0,1,85,85a3.4,3.4,0,0,1-2-.6,2.1,2.1,0,0,1-.9-1.7h1.1a1.3,1.3,0,0,0,.5,1.2,2.8,2.8,0,0,0,1.3.4,1.6,1.6,0,0,0,1.2-.4A1,1,0,0,0,86.6,82.9Z"/><path d="M94.7,82.4h.1a2.7,2.7,0,0,1-.8,1.9,3.3,3.3,0,0,1-2.1.7,2.9,2.9,0,0,1-2.2-.9,4.1,4.1,0,0,1-.8-2.4V80.3a3.6,3.6,0,0,1,.8-2.4,3,3,0,0,1,2.2-1,2.9,2.9,0,0,1,2.1.8,2.2,2.2,0,0,1,.8,1.8H93.7a1.7,1.7,0,0,0-1.8-1.8,1.5,1.5,0,0,0-1.4.7,2.8,2.8,0,0,0-.6,1.8v1.4a2.8,2.8,0,0,0,.6,1.8,1.7,1.7,0,0,0,1.4.7,1.7,1.7,0,0,0,1.3-.5,1.5,1.5,0,0,0,.5-1.3Z"/><path d="M97.3,84.9H96.2V77.1h1.1Z"/><path d="M78.7,99.7a3.2,3.2,0,0,1-.9,2.3,2.8,2.8,0,0,1-2.3,1,2.7,2.7,0,0,1-2.2-1,3.2,3.2,0,0,1-.9-2.3V98.3a3.2,3.2,0,0,1,.9-2.4,3,3,0,0,1,2.2-1,3.1,3.1,0,0,1,2.3,1,3.2,3.2,0,0,1,.9,2.4Zm-1-1.4a2.6,2.6,0,0,0-.6-1.8,1.9,1.9,0,0,0-1.6-.7,1.8,1.8,0,0,0-1.5.7,3.2,3.2,0,0,0-.5,1.8v1.4a2.9,2.9,0,0,0,.5,1.7,1.8,1.8,0,0,0,1.5.7,1.9,1.9,0,0,0,1.6-.7,2.4,2.4,0,0,0,.6-1.7Z"/><path d="M84.4,100.9a1.2,1.2,0,0,0-.4-.9,4,4,0,0,0-1.3-.6,4.8,4.8,0,0,1-1.9-.9,1.7,1.7,0,0,1-.6-1.4,1.8,1.8,0,0,1,.7-1.5,2.4,2.4,0,0,1,1.8-.7,3,3,0,0,1,2,.7,2.3,2.3,0,0,1,.7,1.7h-1a1.5,1.5,0,0,0-1.7-1.5,2,2,0,0,0-1.1.3,1.3,1.3,0,0,0-.4,1,1.2,1.2,0,0,0,.4.8,2.6,2.6,0,0,0,1.5.6,5.1,5.1,0,0,1,1.8.9,2,2,0,0,1,.6,1.5,1.9,1.9,0,0,1-.8,1.5,2.9,2.9,0,0,1-1.9.6,3.4,3.4,0,0,1-2-.6,2.1,2.1,0,0,1-.9-1.7H81a1.3,1.3,0,0,0,.5,1.2,2.8,2.8,0,0,0,1.3.4,1.6,1.6,0,0,0,1.2-.4A1,1,0,0,0,84.4,100.9Z"/><path d="M92.5,100.4h.1a2.7,2.7,0,0,1-.8,1.9,3.3,3.3,0,0,1-2.1.7,2.9,2.9,0,0,1-2.2-.9,4.1,4.1,0,0,1-.8-2.4V98.3a3.6,3.6,0,0,1,.8-2.4,3,3,0,0,1,2.2-1,2.9,2.9,0,0,1,2.1.8,2.2,2.2,0,0,1,.8,1.8H91.5a1.7,1.7,0,0,0-.4-1.3,1.7,1.7,0,0,0-1.4-.5,1.5,1.5,0,0,0-1.4.7,2.8,2.8,0,0,0-.6,1.8v1.4a2.8,2.8,0,0,0,.6,1.8,1.7,1.7,0,0,0,1.4.7,2.2,2.2,0,0,0,1.4-.5,1.8,1.8,0,0,0,.4-1.3Z"/><path d="M99.9,99.7A3.2,3.2,0,0,1,99,102a2.8,2.8,0,0,1-2.3,1,2.7,2.7,0,0,1-2.2-1,3.2,3.2,0,0,1-.9-2.3V98.3a3.2,3.2,0,0,1,.9-2.4,3,3,0,0,1,2.2-1,3.1,3.1,0,0,1,2.3,1,3.2,3.2,0,0,1,.9,2.4Zm-1-1.4a2.6,2.6,0,0,0-.6-1.8,1.9,1.9,0,0,0-1.6-.7,1.8,1.8,0,0,0-1.5.7,3.2,3.2,0,0,0-.5,1.8v1.4a2.9,2.9,0,0,0,.5,1.7,1.8,1.8,0,0,0,1.5.7,1.9,1.9,0,0,0,1.6-.7,2.4,2.4,0,0,0,.6-1.7Z"/><path d="M78.4,118.4h0a2.3,2.3,0,0,1-.7,1.9,3.8,3.8,0,0,1-2.1.7,2.9,2.9,0,0,1-2.2-.9,3.5,3.5,0,0,1-.8-2.4v-1.4a3.2,3.2,0,0,1,.8-2.4,3,3,0,0,1,2.2-1,2.9,2.9,0,0,1,2.1.8,1.9,1.9,0,0,1,.7,1.8h-1a1.7,1.7,0,0,0-1.8-1.8,1.5,1.5,0,0,0-1.4.7,2.8,2.8,0,0,0-.6,1.8v1.4a2.8,2.8,0,0,0,.6,1.8,1.7,1.7,0,0,0,1.4.7,1.7,1.7,0,0,0,1.3-.5,1.5,1.5,0,0,0,.5-1.3Z"/><path d="M85.7,120.9h-1l-3.8-6h0v6H79.8v-7.8h1.1l3.7,5.9h.1v-5.9h1Z"/><path d="M92.9,113.9H90.3v7H89.2v-7H86.7v-.8h6.2Z"/><path d="M99.8,117.7a3.2,3.2,0,0,1-.9,2.3,2.8,2.8,0,0,1-2.3,1,2.7,2.7,0,0,1-2.2-1,3.2,3.2,0,0,1-.9-2.3v-1.4a3.2,3.2,0,0,1,.9-2.4,3,3,0,0,1,2.2-1,3.1,3.1,0,0,1,2.3,1,3.2,3.2,0,0,1,.9,2.4Zm-1.1-1.4a2.6,2.6,0,0,0-.5-1.8,1.9,1.9,0,0,0-1.6-.7,1.8,1.8,0,0,0-1.5.7,3.2,3.2,0,0,0-.5,1.8v1.4a2.9,2.9,0,0,0,.5,1.7,1.8,1.8,0,0,0,1.5.7,1.9,1.9,0,0,0,1.6-.7,2.3,2.3,0,0,0,.5-1.7Z"/><path d="M81.4,137.8a2.1,2.1,0,0,1-1,.8,3,3,0,0,1-1.8.4,2.9,2.9,0,0,1-2.2-.9,3.2,3.2,0,0,1-.9-2.3v-1.6a3.2,3.2,0,0,1,.9-2.4,2.8,2.8,0,0,1,2.2-.9,3.2,3.2,0,0,1,2,.7,2.5,2.5,0,0,1,.8,1.8H80.3a1.5,1.5,0,0,0-.4-1.1,1.5,1.5,0,0,0-1.3-.5,2,2,0,0,0-1.5.6,3.5,3.5,0,0,0-.5,1.8v1.6a3.1,3.1,0,0,0,.5,1.7,2.1,2.1,0,0,0,1.5.7l1.1-.2a1.5,1.5,0,0,0,.6-.4v-1.8H78.6V135h2.8Z"/><path d="M89.1,138.9h-1l-3.8-6h0v6H83.2v-7.8h1.1L88,137h.1v-5.9h1Z"/><path d="M91,138.9v-7.8h2.4a3.5,3.5,0,0,1,2.5.9,3.2,3.2,0,0,1,.9,2.4v1.1a3.2,3.2,0,0,1-.9,2.4,3.2,3.2,0,0,1-2.5,1Zm1-7v6.2h1.4a2.6,2.6,0,0,0,2.4-2.6v-1.1a2.4,2.4,0,0,0-.7-1.8,2.1,2.1,0,0,0-1.7-.7Z"/><path d="M82.7,153.7a3.2,3.2,0,0,1-.9,2.3,2.8,2.8,0,0,1-2.3,1,2.7,2.7,0,0,1-2.2-1,3.2,3.2,0,0,1-.9-2.3v-1.4a3.2,3.2,0,0,1,.9-2.4,3,3,0,0,1,2.2-1,3.1,3.1,0,0,1,2.3,1,3.2,3.2,0,0,1,.9,2.4Zm-1-1.4a2.6,2.6,0,0,0-.6-1.8,1.9,1.9,0,0,0-1.6-.7,1.5,1.5,0,0,0-1.4.7,2.6,2.6,0,0,0-.6,1.8v1.4a2.4,2.4,0,0,0,.6,1.7,1.5,1.5,0,0,0,1.4.7,1.9,1.9,0,0,0,1.6-.7,2.4,2.4,0,0,0,.6-1.7Z"/><path d="M85.3,153.7v3.2H84.2v-7.8h3a3,3,0,0,1,2,.6,2.4,2.4,0,0,1,0,3.4,3,3,0,0,1-2,.6Zm0-.8h1.9c.6,0,1-.1,1.2-.4a1.7,1.7,0,0,0,0-2.2c-.2-.3-.6-.4-1.2-.4H85.3Z"/><path d="M94.1,156.9h-1V150H91.4v-.9l2.7-.3Z"/><path d="M76.1,167.9H73.5v7H72.4v-7H69.9v-.8h6.2Z"/><path d="M81.5,171.3H78.3v2.8H82v.8H77.2v-7.8H82v.8H78.3v2.5h3.2Z"/><path d="M87.4,172.9a1.6,1.6,0,0,0-.3-.9,4.8,4.8,0,0,0-1.4-.6,4.8,4.8,0,0,1-1.9-.9,1.7,1.7,0,0,1-.6-1.4,1.8,1.8,0,0,1,.7-1.5,2.5,2.5,0,0,1,1.9-.7,2.9,2.9,0,0,1,1.9.7,2,2,0,0,1,.7,1.7h-1a1.5,1.5,0,0,0-.4-1.1,1.7,1.7,0,0,0-1.2-.4,2.1,2.1,0,0,0-1.2.3,1.8,1.8,0,0,0-.4,1,1,1,0,0,0,.5.8,2.3,2.3,0,0,0,1.4.6,3.8,3.8,0,0,1,1.8.9,2,2,0,0,1,.6,1.5,1.9,1.9,0,0,1-.8,1.5,2.7,2.7,0,0,1-1.9.6,3.6,3.6,0,0,1-2-.6,1.8,1.8,0,0,1-.8-1.7h1a1.7,1.7,0,0,0,.5,1.2,2.8,2.8,0,0,0,1.3.4,1.6,1.6,0,0,0,1.2-.4A1,1,0,0,0,87.4,172.9Z"/><path d="M95.5,167.9H92.9v7H91.8v-7H89.3v-.8h6.2Z"/><path d="M96.6,174.9v-7.8h2.5a2.7,2.7,0,0,1,1.9.5,1.8,1.8,0,0,1,.7,1.6,1.6,1.6,0,0,1-.3.9l-.8.6a1.9,1.9,0,0,1,1.2.7,1.9,1.9,0,0,1,.5,1.3,2.2,2.2,0,0,1-.7,1.6,2.9,2.9,0,0,1-1.9.6Zm1-4.5h1.7a1.5,1.5,0,0,0,1-.3,1.8,1.8,0,0,0,.4-.9,1.3,1.3,0,0,0-.4-1,2.1,2.1,0,0,0-1.2-.3H97.6Zm0,.8v2.9h2.1a1.8,1.8,0,0,0,1.1-.4,1.2,1.2,0,0,0,.4-1,1.4,1.4,0,0,0-.4-1.1,2.1,2.1,0,0,0-1.1-.4H97.6Z"/><path d="M80.7,185.9H78.1v7h-1v-7H74.5v-.8h6.2Z"/><path d="M82.9,189.5v3.4H81.8v-7.8h2.7a3.7,3.7,0,0,1,2,.5,2.4,2.4,0,0,1,.6,1.7,1.7,1.7,0,0,1-.3,1,1.6,1.6,0,0,1-.9.7,2.2,2.2,0,0,1,.9.7,2.1,2.1,0,0,1,.3,1.2v.7a1.5,1.5,0,0,0,.1.7,1.3,1.3,0,0,0,.3.5H86.4c-.2-.1-.2-.3-.3-.6v-1.4a1.5,1.5,0,0,0-.4-1,1.3,1.3,0,0,0-1-.4Zm0-.8h1.5a2.2,2.2,0,0,0,1.3-.4,1.2,1.2,0,0,0,.4-1,1.1,1.1,0,0,0-.4-1,1.6,1.6,0,0,0-1.2-.4H82.9Z"/><path d="M90,192.9H88.9v-7.8H90Z"/><path d="M91.9,192.9v-7.8h2.6a2.9,2.9,0,0,1,1.9.5,1.8,1.8,0,0,1,.7,1.6,1.6,1.6,0,0,1-.3.9l-.8.6a2.1,2.1,0,0,1,.9,3.6,2.7,2.7,0,0,1-1.9.6Zm1.1-4.5h1.7a1.7,1.7,0,0,0,1-.3,1.6,1.6,0,0,0,.3-.9,1.1,1.1,0,0,0-.4-1,1.6,1.6,0,0,0-1.1-.3H93Zm0,.8v2.9h2a2.1,2.1,0,0,0,1.2-.4,1.5,1.5,0,0,0,.4-1,1.8,1.8,0,0,0-.4-1.1,2.1,2.1,0,0,0-1.1-.4H93Z"/><path d="M79.3,209.4h0l2.5-6.3h1.4v7.8H82.1V205h0l-2.4,5.9H79l-2.5-6.1h0v6.1H75.4v-7.8h1.4Z"/><path d="M90.3,203.9H87.7v7h-1v-7H84.1v-.8h6.2Z"/><path d="M97.2,207.7a3.2,3.2,0,0,1-.9,2.3,2.8,2.8,0,0,1-2.3,1,2.7,2.7,0,0,1-2.2-1,3.1,3.1,0,0,1-.8-2.3v-1.4a3.2,3.2,0,0,1,.8-2.4,3,3,0,0,1,2.2-1,3.1,3.1,0,0,1,2.3,1,3.2,3.2,0,0,1,.9,2.4Zm-1-1.4a2.6,2.6,0,0,0-.6-1.8,1.9,1.9,0,0,0-1.6-.7,1.5,1.5,0,0,0-1.4.7,2.6,2.6,0,0,0-.6,1.8v1.4a2.4,2.4,0,0,0,.6,1.7,1.5,1.5,0,0,0,1.4.7,1.9,1.9,0,0,0,1.6-.7,2.4,2.4,0,0,0,.6-1.7Z"/><path d="M77.9,225.3H74.7v2.8h3.7v.8H73.6v-7.8h4.8v.8H74.7v2.5h3.2Z"/><path d="M85.6,228.9H84.5l-3.7-6h-.1v6h-1v-7.8h1l3.8,5.9h0v-5.9h1.1Z"/><path d="M89.8,226.8l.2.7h0l.2-.7,2-5.7h1.1l-2.9,7.8h-.9l-2.9-7.8h1.2Z"/><path d="M99.1,228.9H94.3v-.7l2.4-3a3.6,3.6,0,0,0,.9-1.2,2,2,0,0,0,.2-1,1.6,1.6,0,0,0-.3-.9,1.1,1.1,0,0,0-.8-.3,1.2,1.2,0,0,0-1.1.4,1.8,1.8,0,0,0-.4,1.1h-1a2.5,2.5,0,0,1,.6-1.6,2.9,2.9,0,0,1,1.9-.7,2.1,2.1,0,0,1,1.6.6,2,2,0,0,1,.6,1.5,2.7,2.7,0,0,1-.3,1.2l-1.1,1.5L95.6,228h3.5Z"/><path d="M86.1,244.4h0a2.4,2.4,0,0,1-.8,1.9,3.3,3.3,0,0,1-2.1.7,2.6,2.6,0,0,1-2.1-.9,3.6,3.6,0,0,1-.9-2.4v-1.4a3.2,3.2,0,0,1,.9-2.4,2.7,2.7,0,0,1,2.1-1,2.9,2.9,0,0,1,2.1.8,1.9,1.9,0,0,1,.8,1.8h-1a1.7,1.7,0,0,0-.5-1.3,1.9,1.9,0,0,0-2.8.2,3.5,3.5,0,0,0-.5,1.8v1.4a3.5,3.5,0,0,0,.5,1.8,1.9,1.9,0,0,0,1.4.7,2,2,0,0,0,1.4-.5,1.9,1.9,0,0,0,.5-1.3Z"/><path d="M90.4,246.9H89.3V240H87.6v-.9l2.8-.3Z"/><path d="M82.3,261.7a3.2,3.2,0,0,1-.9,2.3,2.8,2.8,0,0,1-2.3,1,2.7,2.7,0,0,1-2.2-1,3.2,3.2,0,0,1-.9-2.3v-1.4a3.2,3.2,0,0,1,.9-2.4,3,3,0,0,1,2.2-1,3.1,3.1,0,0,1,2.3,1,3.2,3.2,0,0,1,.9,2.4Zm-1.1-1.4a3.2,3.2,0,0,0-.5-1.8,1.9,1.9,0,0,0-1.6-.7,1.8,1.8,0,0,0-1.5.7,3.2,3.2,0,0,0-.5,1.8v1.4a2.9,2.9,0,0,0,.5,1.7,1.8,1.8,0,0,0,1.5.7,1.9,1.9,0,0,0,1.6-.7,2.3,2.3,0,0,0,.5-1.7Z"/><path d="M89.6,257.1v5.2a2.8,2.8,0,0,1-.8,2,3.2,3.2,0,0,1-2.2.7,3.8,3.8,0,0,1-2.1-.7,2.8,2.8,0,0,1-.8-2v-5.2h1.1v5.2a1.7,1.7,0,0,0,.5,1.4,1.9,1.9,0,0,0,1.3.5,2.2,2.2,0,0,0,1.4-.5,1.7,1.7,0,0,0,.5-1.4v-5.2Z"/><path d="M96.7,257.9H94.2v7H93.1v-7H90.6v-.8h6.1Z"/><path d="M78.4,282.1h3.8v.8H77.3v-7.8h1.1Z"/><path d="M87.6,279.3H84.4v2.8h3.8v.8H83.4v-7.8h4.7v.8H84.4v2.5h3.2Z"/><path d="M89.4,282.9v-7.8h2.5a3.2,3.2,0,0,1,2.4.9,3,3,0,0,1,1,2.4v1.1a3.4,3.4,0,0,1-3.4,3.4Zm1.1-7v6.2h1.4a2.1,2.1,0,0,0,1.7-.8,2.4,2.4,0,0,0,.6-1.8v-1.1a2.8,2.8,0,0,0-.6-1.8,2.1,2.1,0,0,0-1.7-.7Z"/><path d="M80.3,300.9v-7.8h2.6a2.9,2.9,0,0,1,1.9.5,2,2,0,0,1,.7,1.6,1.6,1.6,0,0,1-.3.9l-.9.6a1.9,1.9,0,0,1,1.2.7,1.9,1.9,0,0,1,.5,1.3,1.9,1.9,0,0,1-.7,1.6,2.9,2.9,0,0,1-1.9.6Zm1.1-4.5h1.7a1.2,1.2,0,0,0,1.3-1.2,1.1,1.1,0,0,0-.4-1,1.8,1.8,0,0,0-1.1-.3H81.4Zm0,.8v2.9h2a1.6,1.6,0,0,0,1.1-.4,1.2,1.2,0,0,0,.4-1,1.4,1.4,0,0,0-.4-1.1,1.8,1.8,0,0,0-1.1-.4h-2Z"/><path d="M88.1,300.1h4.4v.8H86.9v-.8l4.2-6.2H87v-.8h5.3v.7Z"/><path d="M183.9,14.4V5.2h3.4a3.6,3.6,0,0,1,2.7,1,3.3,3.3,0,0,1,1.1,2.7v1.7a3.3,3.3,0,0,1-1.1,2.7,3.7,3.7,0,0,1-2.7,1.1Zm2.2-7.6v6h1.2a1.4,1.4,0,0,0,1.2-.6,2.8,2.8,0,0,0,.5-1.6V8.9a2.5,2.5,0,0,0-.5-1.5,1.4,1.4,0,0,0-1.2-.6Z"/><path d="M195.3,14.5a3.1,3.1,0,0,1-3.3-3.3V11a4.2,4.2,0,0,1,.8-2.6,3,3,0,0,1,2.5-1,2.9,2.9,0,0,1,2.1.8,3.6,3.6,0,0,1,.8,2.3v1.1h-4a3.6,3.6,0,0,0,.4.9,1.7,1.7,0,0,0,1,.3h1.1l.9-.3.5,1.3a3.3,3.3,0,0,1-1.2.5A4.1,4.1,0,0,1,195.3,14.5Zm0-5.4a1,1,0,0,0-.8.3,1.2,1.2,0,0,0-.3.9h1.9v-.2a1.9,1.9,0,0,0-.2-.8C195.8,9.1,195.6,9.1,195.3,9.1Z"/><path d="M202.7,12.5c0-.2-.1-.3-.3-.5l-1.1-.3a3.8,3.8,0,0,1-1.8-.8,1.5,1.5,0,0,1-.6-1.3,2.3,2.3,0,0,1,.8-1.6,3.2,3.2,0,0,1,2-.6,3.6,3.6,0,0,1,2.2.6,1.8,1.8,0,0,1,.8,1.6h-2.1a1.4,1.4,0,0,0-.2-.6l-.7-.2-.5.2a.5.5,0,0,0-.3.5c0,.2.1.3.3.4a1.9,1.9,0,0,0,1.1.4,3.8,3.8,0,0,1,1.8.7,1.7,1.7,0,0,1,.6,1.4,1.7,1.7,0,0,1-.8,1.5,3.6,3.6,0,0,1-2.2.6,3.2,3.2,0,0,1-2.2-.7,2.1,2.1,0,0,1-.8-1.6h2a.8.8,0,0,0,.3.7l.8.2h.6C202.6,12.8,202.7,12.7,202.7,12.5Z"/><path d="M208.7,12.9a.6.6,0,0,0,.6-.3c.2-.1.2-.3.2-.6h2a2.1,2.1,0,0,1-.8,1.8,2.7,2.7,0,0,1-2,.7,3,3,0,0,1-2.4-.9,3.7,3.7,0,0,1-.9-2.6h0a3.5,3.5,0,0,1,.9-2.5,2.7,2.7,0,0,1,2.4-1,3.1,3.1,0,0,1,2.1.7,2.7,2.7,0,0,1,.7,2h-2c0-.4,0-.6-.2-.8a.6.6,0,0,0-.6-.3c-.5,0-.7.1-.9.5a2.3,2.3,0,0,0-.3,1.3h0a2.6,2.6,0,0,0,.3,1.4A1.1,1.1,0,0,0,208.7,12.9Z"/><path d="M216.2,9.4h-1.3a.8.8,0,0,0-.4.4v4.5h-2.1V7.5h2v1a1.6,1.6,0,0,1,.6-.8,1.1,1.1,0,0,1,.8-.3h.5Z"/><path d="M219.2,5.9h-2.1V4.5h2.1Zm0,8.5h-2.1V7.5h2.1Z"/><path d="M226.9,11.1a3.9,3.9,0,0,1-.7,2.5,2.4,2.4,0,0,1-2,.9,1.5,1.5,0,0,1-.9-.2l-.6-.5V17h-2.2V7.5h2.1v.8a2.3,2.3,0,0,1,.7-.7l.9-.2a2.2,2.2,0,0,1,2,1,4,4,0,0,1,.7,2.6Zm-2.1-.1a2.6,2.6,0,0,0-.3-1.4.7.7,0,0,0-.8-.5h-.6l-.4.4v2.8l.4.4h.6a.9.9,0,0,0,.8-.5,2.3,2.3,0,0,0,.3-1.3Z"/><path d="M230.3,5.8V7.5h1.1V9h-1.1v3.2a.7.7,0,0,0,.1.5l.5.2h.5v1.6h-1.2a2.5,2.5,0,0,1-1.6-.5,2.4,2.4,0,0,1-.5-1.8V9h-1V7.5h1V5.8Z"/><path d="M234.7,5.9h-2.2V4.5h2.2Zm0,8.5h-2.2V7.5h2.2Z"/><path d="M235.7,10.9a3.5,3.5,0,0,1,.9-2.5,3,3,0,0,1,2.4-1,3,3,0,0,1,2.5,1,3.4,3.4,0,0,1,.8,2.5h0a3.7,3.7,0,0,1-.8,2.6,3.3,3.3,0,0,1-2.5.9,3.2,3.2,0,0,1-2.4-.9,3.7,3.7,0,0,1-.9-2.6Zm2.1.1a2.6,2.6,0,0,0,.3,1.4,1.1,1.1,0,0,0,.9.5c.5,0,.8-.2.9-.5a2.6,2.6,0,0,0,.3-1.4h0a2.3,2.3,0,0,0-.3-1.3c-.1-.4-.5-.5-.9-.5a.9.9,0,0,0-.9.5,2.5,2.5,0,0,0-.3,1.3Z"/><path d="M245.3,7.5v1a3,3,0,0,1,.8-.8,2,2,0,0,1,1.1-.3,1.9,1.9,0,0,1,1.6.7,4,4,0,0,1,.5,2.2v4.1h-2.1V10.3a2.2,2.2,0,0,0-.2-1,.7.7,0,0,0-.6-.2h-.6l-.5.3v4.9h-2.1V7.5Z"/><path d="M128.6,27.7v3.2h-1V23.1h3a2.7,2.7,0,0,1,1.9.6,2.1,2.1,0,0,1,.7,1.7,2.1,2.1,0,0,1-.7,1.7,2.7,2.7,0,0,1-1.9.6Zm0-.8h2a1.6,1.6,0,0,0,1.2-.4,2.1,2.1,0,0,0,.4-1.1,2.1,2.1,0,0,0-.4-1.1,1.6,1.6,0,0,0-1.2-.4h-2Z"/><path d="M137.2,26h-.6a1,1,0,0,0-.7.2,1,1,0,0,0-.4.5v4.2h-1.1V25.1h1v.8l.6-.7a1.1,1.1,0,0,1,.8-.2h.4Z"/><path d="M140.6,31a2.8,2.8,0,0,1-2-.8,3.3,3.3,0,0,1-.7-2.1v-.3a2.8,2.8,0,0,1,.8-2,1.9,1.9,0,0,1,1.7-.8,2.1,2.1,0,0,1,1.8.7,2.9,2.9,0,0,1,.6,1.9v.6H139a2.6,2.6,0,0,0,.4,1.4,1.4,1.4,0,0,0,1.2.6l.9-.2.7-.4.4.7-.8.5Zm-.2-5.2a1.2,1.2,0,0,0-.9.4,2.1,2.1,0,0,0-.4,1.1h2.6a1.8,1.8,0,0,0-.3-1.1A1.1,1.1,0,0,0,140.4,25.8Z"/><path d="M147.5,30.9a.7.7,0,0,0-.1-.5V30a2.7,2.7,0,0,1-.8.7,1.7,1.7,0,0,1-1,.3,2,2,0,0,1-1.4-.5,1.7,1.7,0,0,1-.5-1.3,1.9,1.9,0,0,1,.7-1.3,3.4,3.4,0,0,1,1.8-.4h1.2v-.6a1.1,1.1,0,0,0-.3-.8,1.2,1.2,0,0,0-.9-.3,1.1,1.1,0,0,0-.8.3.6.6,0,0,0-.3.6H144a1.4,1.4,0,0,1,.6-1.1,2.5,2.5,0,0,1,1.7-.5,2.2,2.2,0,0,1,1.6.5,1.7,1.7,0,0,1,.6,1.4v3.4a1.3,1.3,0,0,0,.1.6Zm-1.7-.8a1.9,1.9,0,0,0,1-.3,1.3,1.3,0,0,0,.6-.7v-.9h-1.2a1.5,1.5,0,0,0-1,.3.9.9,0,0,0-.4.8,1.4,1.4,0,0,0,.2.6A1.5,1.5,0,0,0,145.8,30.1Z"/><path d="M150.9,25.1v.7c.2-.2.4-.5.7-.6a2,2,0,0,1,1.1-.2,1.8,1.8,0,0,1,1,.2l.6.8a2.7,2.7,0,0,1,.7-.8l1.1-.2a2,2,0,0,1,1.4.6,3,3,0,0,1,.5,1.8v3.5H157V27.4a1.7,1.7,0,0,0-.3-1.2,1,1,0,0,0-.9-.4.9.9,0,0,0-.8.4,1.1,1.1,0,0,0-.4.9h0v3.7h-1.1V27.4a1.9,1.9,0,0,0-.3-1.2,1,1,0,0,0-.9-.4l-.8.2a1.3,1.3,0,0,0-.4.6v4.3H150V25.1Z"/><path d="M164.6,28.2a3.2,3.2,0,0,1-.6,2,2.1,2.1,0,0,1-1.7.8l-.9-.2a1.8,1.8,0,0,1-.7-.5v2.8h-1.1v-8h.8l.2.7a1.3,1.3,0,0,1,.7-.6,1.6,1.6,0,0,1,1-.2,1.9,1.9,0,0,1,1.7.8,3.9,3.9,0,0,1,.6,2.3Zm-1.1-.1a2.5,2.5,0,0,0-.4-1.6,1.1,1.1,0,0,0-1.1-.7l-.8.2-.5.6v2.8l.5.6.8.2a1.1,1.1,0,0,0,1.1-.6,2.1,2.1,0,0,0,.4-1.4Z"/><path d="M167,30.9h-1.1V22.5H167Z"/><path d="M169.8,23.6h-1.1V22.5h1.1Zm0,7.3h-1.1V25.1h1.1Z"/><path d="M171.7,30.9v-5h-.9v-.8h.9v-.7a2,2,0,0,1,.6-1.5,2.5,2.5,0,0,1,1.6-.5h.7l.8.2-.2.9-.6-.2h-.7a1.2,1.2,0,0,0-.9.3,1.1,1.1,0,0,0-.2.8v.7h1.1v.8h-1.1v5Zm4.2,0h-1.1V25.1h1.1Z"/><path d="M179.9,31a2.4,2.4,0,0,1-1.9-.8,2.8,2.8,0,0,1-.7-2.1v-.3a2.7,2.7,0,0,1,.7-2,2.2,2.2,0,0,1,1.8-.8,2.1,2.1,0,0,1,1.7.7,2.9,2.9,0,0,1,.6,1.9v.6h-3.7a2.6,2.6,0,0,0,.3,1.4,1.4,1.4,0,0,0,1.2.6l1-.2.7-.4.4.7-.8.5Zm-.1-5.2a1.3,1.3,0,0,0-1,.4,3.6,3.6,0,0,0-.4,1.1H181a1.8,1.8,0,0,0-.3-1.1A1,1,0,0,0,179.8,25.8Z"/><path d="M186,26h-.5a.8.8,0,0,0-.7.2,1.2,1.2,0,0,0-.5.5v4.2h-1V25.1h.9v.8l.6-.7a1.5,1.5,0,0,1,.9-.2h.4Z"/><path d="M191.2,30.9h-1.1V23.1h1.1Z"/><path d="M193.9,25.1v.8a2.3,2.3,0,0,1,.7-.7,1.8,1.8,0,0,1,1-.2,2,2,0,0,1,1.5.5,2.6,2.6,0,0,1,.5,1.7v3.7h-1.1V27.2a1.8,1.8,0,0,0-.3-1.1,1.2,1.2,0,0,0-.9-.3l-.8.2c-.3.1-.4.3-.6.6v4.3h-1V25.1Z"/><path d="M204.2,28.2a3.2,3.2,0,0,1-.6,2,2.1,2.1,0,0,1-1.7.8l-.9-.2a1.8,1.8,0,0,1-.7-.5v2.8h-1.1v-8h.8l.2.7a1.3,1.3,0,0,1,.7-.6,1.6,1.6,0,0,1,1-.2,1.9,1.9,0,0,1,1.7.8,3.9,3.9,0,0,1,.6,2.3Zm-1.1-.1a2.5,2.5,0,0,0-.4-1.6,1.1,1.1,0,0,0-1.1-.7l-.8.2-.5.6v2.8l.5.6.8.2a1.1,1.1,0,0,0,1.1-.6,2.1,2.1,0,0,0,.4-1.4Z"/><path d="M209.2,30a1.6,1.6,0,0,1-.7.7,1.7,1.7,0,0,1-1,.3,1.8,1.8,0,0,1-1.5-.6,2.6,2.6,0,0,1-.5-1.9V25.1h1v3.4a2.1,2.1,0,0,0,.3,1.3,1.1,1.1,0,0,0,.8.3,1.6,1.6,0,0,0,1-.2,1.5,1.5,0,0,0,.5-.6V25.1h1.1v5.8h-1Z"/><path d="M213.2,23.7v1.4h1.1v.8h-1.1v3.5a1.1,1.1,0,0,0,.2.6h.6c.1,0,.2,0,.2-.1l.2.8h-.8a1.4,1.4,0,0,1-1.1-.4,2.1,2.1,0,0,1-.4-1.2V25.9h-.9v-.8h.9V23.7Z"/><path d="M131.9,45.3h-3.3v2.8h3.8v.8h-4.8V41.1h4.7v.8h-3.7v2.5h3.3Z"/><path d="M134.5,43.1v.8a2.7,2.7,0,0,1,.8-.7,1.6,1.6,0,0,1,1-.2,1.6,1.6,0,0,1,1.4.5,2.2,2.2,0,0,1,.5,1.7v3.7h-1V45.2a1.8,1.8,0,0,0-.3-1.1,1.3,1.3,0,0,0-1-.3l-.8.2a1,1,0,0,0-.5.6v4.3h-1.1V43.1Z"/><path d="M141.7,47.2v.4h0v-.4l1.4-4.1h1l-2.1,5.8h-.8l-2.2-5.8h1.1Z"/><path d="M147.6,49a2.6,2.6,0,0,1-1.9-.8,2.8,2.8,0,0,1-.7-2.1v-.3a2.7,2.7,0,0,1,.7-2,2.2,2.2,0,0,1,1.8-.8,2.1,2.1,0,0,1,1.7.7,2.9,2.9,0,0,1,.6,1.9v.6h-3.7a2,2,0,0,0,.4,1.4,1.1,1.1,0,0,0,1.1.6l1-.2.7-.4.4.7-.8.5Zm-.1-5.2a1,1,0,0,0-.9.4,2.2,2.2,0,0,0-.5,1.1h2.6a1.8,1.8,0,0,0-.3-1.1A1,1,0,0,0,147.5,43.8Z"/><path d="M152.1,48.9h-1V40.5h1Z"/><path d="M153.5,45.9a3.1,3.1,0,0,1,.7-2.1,2.7,2.7,0,0,1,3.8,0,3,3,0,0,1,.7,2.1h0a3.2,3.2,0,0,1-.7,2.2,2.4,2.4,0,0,1-1.9.8,2.6,2.6,0,0,1-1.9-.8,3.2,3.2,0,0,1-.7-2.2Zm1.1.1a2.5,2.5,0,0,0,.4,1.6,1.1,1.1,0,0,0,1.1.6,1.4,1.4,0,0,0,1.2-.6,3.4,3.4,0,0,0,.4-1.6h0a3.3,3.3,0,0,0-.4-1.5,1.4,1.4,0,0,0-1.2-.6,1.1,1.1,0,0,0-1.1.6,2.4,2.4,0,0,0-.4,1.5Z"/><path d="M165,46.2a3.2,3.2,0,0,1-.6,2,2.1,2.1,0,0,1-1.7.8l-.9-.2a1.8,1.8,0,0,1-.7-.5v2.8H160v-8h.8l.2.7a1.3,1.3,0,0,1,.7-.6,1.6,1.6,0,0,1,1-.2,1.9,1.9,0,0,1,1.7.8,3.9,3.9,0,0,1,.6,2.3Zm-1.1-.1a2.5,2.5,0,0,0-.4-1.6,1.1,1.1,0,0,0-1.1-.7l-.8.2-.5.6v2.8l.5.6.8.2a1.1,1.1,0,0,0,1.1-.6,2.1,2.1,0,0,0,.4-1.4Z"/><path d="M168.7,49a2.6,2.6,0,0,1-2-.8,2.8,2.8,0,0,1-.7-2.1v-.3a3.2,3.2,0,0,1,.7-2,2.2,2.2,0,0,1,1.8-.8,1.8,1.8,0,0,1,1.7.7,2.9,2.9,0,0,1,.6,1.9v.6h-3.7a2,2,0,0,0,.4,1.4,1.2,1.2,0,0,0,1.2.6l.9-.2.7-.4.4.7-.8.5Zm-.2-5.2a1,1,0,0,0-.9.4,2.2,2.2,0,0,0-.5,1.1h2.7a1.8,1.8,0,0,0-.3-1.1A1.2,1.2,0,0,0,168.5,43.8Z"/><path d="M180.5,46.4h0a2.7,2.7,0,0,1-.8,1.9,3.3,3.3,0,0,1-2.1.7,2.6,2.6,0,0,1-2.1-.9,3.6,3.6,0,0,1-.9-2.4V44.3a3.2,3.2,0,0,1,.9-2.4,2.7,2.7,0,0,1,2.1-1,2.9,2.9,0,0,1,2.1.8,1.9,1.9,0,0,1,.8,1.8h-1a1.7,1.7,0,0,0-.5-1.3,1.9,1.9,0,0,0-2.8.2,3.5,3.5,0,0,0-.5,1.8v1.4a3.5,3.5,0,0,0,.5,1.8,1.9,1.9,0,0,0,1.4.7,2,2,0,0,0,1.4-.5,1.9,1.9,0,0,0,.5-1.3Z"/><path d="M182.9,41.6h-1.1V40.5h1.1Zm0,7.3h-1.1V43.1h1.1Z"/><path d="M187.2,44h-.5a.8.8,0,0,0-.7.2l-.5.5v4.2h-1V43.1h.9v.8l.6-.7a1.5,1.5,0,0,1,.9-.2h.4Z"/><path d="M190.6,48.2a.9.9,0,0,0,.8-.4,1,1,0,0,0,.4-.8h.9a1.5,1.5,0,0,1-.6,1.3,2.2,2.2,0,0,1-1.5.6,2.3,2.3,0,0,1-1.9-.8,3.1,3.1,0,0,1-.7-2.1v-.2a3,3,0,0,1,.7-2.1,2.4,2.4,0,0,1,3.4-.2,1.4,1.4,0,0,1,.6,1.4h-.9a1,1,0,0,0-.4-.9.9.9,0,0,0-.8-.4,1.3,1.3,0,0,0-1.2.6,3.3,3.3,0,0,0-.3,1.5v.2a3.3,3.3,0,0,0,.3,1.5A1.2,1.2,0,0,0,190.6,48.2Z"/><path d="M197.7,48a1.6,1.6,0,0,1-.7.7,1.7,1.7,0,0,1-1,.3,2,2,0,0,1-1.5-.6,3.1,3.1,0,0,1-.5-1.9V43.1h1v3.4a2.1,2.1,0,0,0,.3,1.3,1.2,1.2,0,0,0,.9.3,1.3,1.3,0,0,0,.9-.2c.2-.1.4-.4.6-.6V43.1h1v5.8h-.9Z"/><path d="M201.4,41.6h-1.1V40.5h1.1Zm0,7.3h-1.1V43.1h1.1Z"/><path d="M204.5,41.7v1.4h1.1v.8h-1.1v3.5a1.1,1.1,0,0,0,.2.6h.6c.1,0,.2,0,.2-.1v.8h-.8a1.3,1.3,0,0,1-1-.4,2.1,2.1,0,0,1-.4-1.2V43.9h-.9v-.8h.9V41.7Z"/><path d="M215.1,41.9h-2.6v7h-1.1v-7h-2.5v-.8h6.2Z"/><path d="M217.9,49a2.4,2.4,0,0,1-1.9-.8,2.8,2.8,0,0,1-.7-2.1v-.3a2.7,2.7,0,0,1,.7-2,2.2,2.2,0,0,1,1.8-.8,2.1,2.1,0,0,1,1.7.7,2.9,2.9,0,0,1,.6,1.9v.6h-3.8a2.6,2.6,0,0,0,.4,1.4,1.4,1.4,0,0,0,1.2.6l1-.2.7-.4.4.7-.9.5Zm-.1-5.2a1.3,1.3,0,0,0-1,.4,2.1,2.1,0,0,0-.4,1.1H219a1.8,1.8,0,0,0-.3-1.1A1,1,0,0,0,217.8,43.8Z"/><path d="M224,44h-.5a.8.8,0,0,0-.7.2,1.2,1.2,0,0,0-.5.5v4.2h-1V43.1h.9v.8l.6-.7a1.3,1.3,0,0,1,.9-.2h.4Z"/><path d="M226.1,43.1v.7a2.4,2.4,0,0,1,.8-.6,2.6,2.6,0,0,1,2,0,1.6,1.6,0,0,1,.6.8,2.7,2.7,0,0,1,.7-.8l1.1-.2a1.8,1.8,0,0,1,1.4.6,3,3,0,0,1,.5,1.8v3.5h-1.1V45.4a1.7,1.7,0,0,0-.3-1.2.8.8,0,0,0-.8-.4,1,1,0,0,0-.9.4,1.5,1.5,0,0,0-.4.9h0v3.7h-1.1V45.4a1.9,1.9,0,0,0-.3-1.2.9.9,0,0,0-.8-.4,1.5,1.5,0,0,0-.8.2,1,1,0,0,0-.5.6v4.3h-1.1V43.1Z"/><path d="M235.9,41.6h-1.1V40.5h1.1Zm0,7.3h-1.1V43.1h1.1Z"/><path d="M238.5,43.1v.8a2.7,2.7,0,0,1,.8-.7,1.5,1.5,0,0,1,1-.2,1.6,1.6,0,0,1,1.4.5,2.6,2.6,0,0,1,.5,1.7v3.7h-1V45.2a1.8,1.8,0,0,0-.3-1.1,1.5,1.5,0,0,0-1-.3l-.8.2a1,1,0,0,0-.5.6v4.3h-1.1V43.1Z"/><path d="M247.3,48.9a.7.7,0,0,0-.1-.5V48a1.9,1.9,0,0,1-.8.7,1.7,1.7,0,0,1-1,.3,2.2,2.2,0,0,1-1.4-.5,1.7,1.7,0,0,1-.4-1.3,1.8,1.8,0,0,1,.6-1.3,3.6,3.6,0,0,1,1.9-.4h1.1v-.6a1.1,1.1,0,0,0-.3-.8,1.2,1.2,0,0,0-.9-.3,1.1,1.1,0,0,0-.8.3.6.6,0,0,0-.3.6h-1a1.1,1.1,0,0,1,.5-1.1,2.5,2.5,0,0,1,1.7-.5,2.2,2.2,0,0,1,1.6.5,1.7,1.7,0,0,1,.6,1.4v3.4c0,.2.1.4.1.6Zm-1.7-.8a1.7,1.7,0,0,0,1-.3,1.3,1.3,0,0,0,.6-.7v-.9H246a1.7,1.7,0,0,0-1,.3.9.9,0,0,0-.4.8.9.9,0,0,0,.3.6Z"/><path d="M251,48.9h-1.1V40.5H251Z"/><path d="M258.4,48.9h-1.1V42h-1.7v-.9l2.8-.3Z"/><path d="M128.6,63.7v3.2h-1V59.1h3a2.7,2.7,0,0,1,1.9.6,2.4,2.4,0,0,1,0,3.4,2.7,2.7,0,0,1-1.9.6Zm0-.8h2a1.6,1.6,0,0,0,1.2-.4,1.7,1.7,0,0,0,0-2.2,1.6,1.6,0,0,0-1.2-.4h-2Z"/><path d="M134.1,63.9a3.8,3.8,0,0,1,.7-2.1,2.2,2.2,0,0,1,1.9-.8,2.1,2.1,0,0,1,1.9.8,3,3,0,0,1,.7,2.1h0a3.2,3.2,0,0,1-.7,2.2,2.4,2.4,0,0,1-1.9.8,2.6,2.6,0,0,1-1.9-.8,3.8,3.8,0,0,1-.7-2.2Zm1.1.1a2.5,2.5,0,0,0,.4,1.6,1.1,1.1,0,0,0,1.1.6,1.4,1.4,0,0,0,1.2-.6,3.4,3.4,0,0,0,.4-1.6h0a3.3,3.3,0,0,0-.4-1.5,1.4,1.4,0,0,0-1.2-.6,1.1,1.1,0,0,0-1.1.6,2.4,2.4,0,0,0-.4,1.5Z"/><path d="M144,65.3a.9.9,0,0,0-.3-.6l-1-.3a4.8,4.8,0,0,1-1.6-.7,1.2,1.2,0,0,1-.5-1,1.4,1.4,0,0,1,.6-1.2,2.1,2.1,0,0,1,1.6-.5,2.2,2.2,0,0,1,1.6.5,1.7,1.7,0,0,1,.6,1.2h-1.1a.9.9,0,0,0-.3-.7,1.1,1.1,0,0,0-.8-.3l-.9.2a.7.7,0,0,0-.2.6c0,.3,0,.5.2.6l1,.3a4.8,4.8,0,0,1,1.6.7,1.1,1.1,0,0,1,.6,1,1.6,1.6,0,0,1-.7,1.3,2.5,2.5,0,0,1-1.6.5,2.8,2.8,0,0,1-1.8-.6,1.6,1.6,0,0,1-.6-1.3h1.1a.8.8,0,0,0,.4.8,1.5,1.5,0,0,0,1.8,0A.6.6,0,0,0,144,65.3Z"/><path d="M147.5,59.6h-1V58.5h1Zm0,7.3h-1V61.1h1Z"/><path d="M150.6,59.7v1.4h1.1v.8h-1.1v3.5a1.1,1.1,0,0,0,.2.6h.8l.2.8H151a1.4,1.4,0,0,1-1.1-.4,2.1,2.1,0,0,1-.3-1.2V61.9h-1v-.8h1V59.7Z"/><path d="M154,59.6h-1.1V58.5H154Zm0,7.3h-1.1V61.1H154Z"/><path d="M157.6,65.2v.4h0v-.4l1.3-4.1h1.1l-2.1,5.8h-.8l-2.2-5.8h1.1Z"/><path d="M163.5,67a2.8,2.8,0,0,1-2-.8,3.3,3.3,0,0,1-.7-2.1v-.3a2.8,2.8,0,0,1,.8-2,1.9,1.9,0,0,1,1.7-.8,2.1,2.1,0,0,1,1.8.7,2.9,2.9,0,0,1,.6,1.9v.6h-3.8a2.6,2.6,0,0,0,.4,1.4,1.4,1.4,0,0,0,1.2.6l.9-.2.7-.4.4.7-.8.5Zm-.2-5.2a1.2,1.2,0,0,0-.9.4,2.1,2.1,0,0,0-.4,1.1h2.6a1.8,1.8,0,0,0-.3-1.1A1.1,1.1,0,0,0,163.3,61.8Z"/><path d="M170.8,63.7v3.2h-1.1V59.1h3a3.2,3.2,0,0,1,2,.6,2.4,2.4,0,0,1,0,3.4,3.2,3.2,0,0,1-2,.6Zm0-.8h1.9a1.6,1.6,0,0,0,1.2-.4,1.7,1.7,0,0,0,0-2.2,1.6,1.6,0,0,0-1.2-.4h-1.9Z"/><path d="M176.3,63.9a3.1,3.1,0,0,1,.7-2.1,1.9,1.9,0,0,1,1.8-.8,2.3,2.3,0,0,1,2,.8,3.5,3.5,0,0,1,.7,2.1h0a3.8,3.8,0,0,1-.7,2.2,2.6,2.6,0,0,1-1.9.8,2.4,2.4,0,0,1-1.9-.8,3.2,3.2,0,0,1-.7-2.2Zm1,.1a2.5,2.5,0,0,0,.4,1.6,1.3,1.3,0,0,0,1.2.6,1.3,1.3,0,0,0,1.1-.6,2.5,2.5,0,0,0,.4-1.6h0a2.4,2.4,0,0,0-.4-1.5,1.3,1.3,0,0,0-1.2-.6,1.3,1.3,0,0,0-1.1.6,2.4,2.4,0,0,0-.4,1.5Z"/><path d="M184.2,64.8l.2.7h0v-.7l1.2-3.7h.9l1.1,3.7.2.8h0l.2-.8.8-3.7H190l-1.6,5.8h-.9l-1.1-3.6-.3-.9h0l-.2.9-1.1,3.6h-.9l-1.7-5.8h1.1Z"/><path d="M193.5,67a2.6,2.6,0,0,1-2-.8,3.3,3.3,0,0,1-.7-2.1v-.3a2.8,2.8,0,0,1,.8-2,1.9,1.9,0,0,1,1.7-.8,2.1,2.1,0,0,1,1.8.7,2.9,2.9,0,0,1,.5,1.9v.6h-3.7a2,2,0,0,0,.4,1.4,1.4,1.4,0,0,0,1.2.6l.9-.2.7-.4.4.7-.8.5Zm-.2-5.2a1,1,0,0,0-.9.4,2.1,2.1,0,0,0-.4,1.1h2.6a1.8,1.8,0,0,0-.3-1.1A1.1,1.1,0,0,0,193.3,61.8Z"/><path d="M199.6,62H199a1,1,0,0,0-.7.2,1,1,0,0,0-.4.5v4.2h-1.1V61.1h1v.8c.1-.3.4-.5.6-.7a1.1,1.1,0,0,1,.8-.2h.4Z"/><path d="M207.7,64.9a1.6,1.6,0,0,0-.3-.9l-1.4-.6a4.8,4.8,0,0,1-1.9-.9,1.7,1.7,0,0,1-.6-1.4,1.8,1.8,0,0,1,.7-1.5,2.5,2.5,0,0,1,1.9-.7,2.9,2.9,0,0,1,1.9.7,2,2,0,0,1,.7,1.7h-1a1.5,1.5,0,0,0-.4-1.1,1.7,1.7,0,0,0-1.2-.4,2.1,2.1,0,0,0-1.2.3,1.8,1.8,0,0,0-.4,1,1,1,0,0,0,.5.8,2.3,2.3,0,0,0,1.4.6,3.8,3.8,0,0,1,1.8.9,2,2,0,0,1,.6,1.5,1.9,1.9,0,0,1-.8,1.5,2.7,2.7,0,0,1-1.9.6,3.6,3.6,0,0,1-2-.6,1.8,1.8,0,0,1-.8-1.7h1a1.7,1.7,0,0,0,.5,1.2,2.8,2.8,0,0,0,1.3.4,1.6,1.6,0,0,0,1.2-.4A1,1,0,0,0,207.7,64.9Z"/><path d="M213.8,66a1.2,1.2,0,0,1-.7.7,1.9,1.9,0,0,1-2.4-.3,2.5,2.5,0,0,1-.6-1.9V61.1h1.1v3.4a2.1,2.1,0,0,0,.3,1.3c.1.2.4.3.8.3s.7,0,.9-.2a1.2,1.2,0,0,0,.6-.6V61.1h1.1v5.8h-1Z"/><path d="M221.4,64.2a3.2,3.2,0,0,1-.7,2,1.9,1.9,0,0,1-1.6.8l-1-.2a1.5,1.5,0,0,1-.6-.5v2.8h-1.1v-8h.8l.2.7a1.3,1.3,0,0,1,.7-.6,1.6,1.6,0,0,1,1-.2,1.9,1.9,0,0,1,1.7.8,3.9,3.9,0,0,1,.6,2.3Zm-1.1-.1a2.5,2.5,0,0,0-.4-1.6,1.2,1.2,0,0,0-1.1-.7l-.8.2-.5.6v2.8l.5.6.8.2a1.3,1.3,0,0,0,1.1-.6,2.1,2.1,0,0,0,.4-1.4Z"/><path d="M227.6,64.2a3.2,3.2,0,0,1-.6,2,2.1,2.1,0,0,1-1.7.8l-.9-.2a1.8,1.8,0,0,1-.7-.5v2.8h-1.1v-8h.9v.7a1.9,1.9,0,0,1,.7-.6,1.6,1.6,0,0,1,1-.2,1.9,1.9,0,0,1,1.7.8,3.9,3.9,0,0,1,.6,2.3Zm-1.1-.1a3.5,3.5,0,0,0-.3-1.6,1.3,1.3,0,0,0-1.2-.7l-.8.2-.5.6v2.8l.5.6.8.2a1.4,1.4,0,0,0,1.2-.6,2.9,2.9,0,0,0,.3-1.4Z"/><path d="M230,66.9h-1V58.5h1Z"/><path d="M233.5,64.7v.8h.1l1.4-4.4h1.2l-2.5,6.7a2.1,2.1,0,0,1-.6,1,1.4,1.4,0,0,1-1.1.4h-.3c-.2,0-.3,0-.3-.1v-.8h.4a.7.7,0,0,0,.6-.3l.4-.6.2-.6L231,61.1h1.2Z"/><path d="M133.6,81.7a3.2,3.2,0,0,1-.9,2.3,3.1,3.1,0,0,1-4.6,0,3.6,3.6,0,0,1-.8-2.3V80.3a3.6,3.6,0,0,1,.8-2.4,3.2,3.2,0,0,1,5.5,2.4Zm-1.1-1.4a2.6,2.6,0,0,0-.6-1.8,2,2,0,0,0-3,0,2.6,2.6,0,0,0-.6,1.8v1.4a2.4,2.4,0,0,0,.6,1.7,2,2,0,0,0,3,0,2.4,2.4,0,0,0,.6-1.7Z"/><path d="M138.3,83.3a1.4,1.4,0,0,0-.2-.6l-1.1-.3a4.2,4.2,0,0,1-1.5-.7,1.1,1.1,0,0,1-.6-1,1.4,1.4,0,0,1,.6-1.2,2.2,2.2,0,0,1,1.6-.5,2.1,2.1,0,0,1,1.6.5,1.7,1.7,0,0,1,.6,1.2h-1a1,1,0,0,0-.4-.7,1.1,1.1,0,0,0-.8-.3,1.3,1.3,0,0,0-.8.2.9.9,0,0,0-.3.6.8.8,0,0,0,.2.6l1,.3a4,4,0,0,1,1.6.7,1.1,1.1,0,0,1,.6,1,1.5,1.5,0,0,1-.6,1.3,3.1,3.1,0,0,1-1.7.5,2.4,2.4,0,0,1-1.7-.6,1.2,1.2,0,0,1-.6-1.3h1a.8.8,0,0,0,.4.8l.9.3a1.2,1.2,0,0,0,.9-.3A.6.6,0,0,0,138.3,83.3Z"/><path d="M143,84.2a1.2,1.2,0,0,0,.9-.4,1,1,0,0,0,.3-.8h1a1.8,1.8,0,0,1-.6,1.3,2.5,2.5,0,0,1-1.6.6,2.6,2.6,0,0,1-1.9-.8,3.8,3.8,0,0,1-.7-2.1v-.2a3.5,3.5,0,0,1,.7-2.1A2.2,2.2,0,0,1,143,79a2.1,2.1,0,0,1,1.6.6,2,2,0,0,1,.6,1.4h-1a1.2,1.2,0,0,0-.3-.9,1.1,1.1,0,0,0-.9-.4,1.1,1.1,0,0,0-1.1.6,2.4,2.4,0,0,0-.4,1.5v.2a2.4,2.4,0,0,0,.4,1.5A1.1,1.1,0,0,0,143,84.2Z"/><path d="M147.6,77.6h-1.1V76.5h1.1Zm0,7.3h-1.1V79.1h1.1Z"/><path d="M150.4,84.9h-1.1V76.5h1.1Z"/><path d="M153.1,84.9h-1V76.5h1Z"/><path d="M158.3,84.9v-.5a.6.6,0,0,1-.1-.4,2.3,2.3,0,0,1-.7.7,2.3,2.3,0,0,1-1.1.3,2.2,2.2,0,0,1-1.4-.5,1.7,1.7,0,0,1-.4-1.3,1.8,1.8,0,0,1,.6-1.3,3.6,3.6,0,0,1,1.9-.4h1.1v-.6a1.1,1.1,0,0,0-.3-.8,1.2,1.2,0,0,0-.9-.3,1.1,1.1,0,0,0-.8.3.6.6,0,0,0-.3.6h-1a1,1,0,0,1,.6-1.1,2.1,2.1,0,0,1,1.6-.5,2.2,2.2,0,0,1,1.6.5,1.7,1.7,0,0,1,.6,1.4v3.4c0,.2.1.4.1.6Zm-1.7-.8a1.7,1.7,0,0,0,1-.3,1.3,1.3,0,0,0,.6-.7v-.9H157a1.7,1.7,0,0,0-1,.3,1.2,1.2,0,0,0-.4.8.9.9,0,0,0,.3.6Z"/><path d="M162.3,77.7v1.4h1.1v.8h-1.1v3.5c0,.3,0,.4.2.6h.8v.8h-.8a1.3,1.3,0,0,1-1-.4,2.1,2.1,0,0,1-.4-1.2V79.9h-.9v-.8h.9V77.7Z"/><path d="M164.3,81.9a3.1,3.1,0,0,1,.7-2.1,2.1,2.1,0,0,1,1.9-.8,2.2,2.2,0,0,1,1.9.8,3.5,3.5,0,0,1,.7,2.1h0a3.8,3.8,0,0,1-.7,2.2,2.6,2.6,0,0,1-1.9.8,2.4,2.4,0,0,1-1.9-.8,3.2,3.2,0,0,1-.7-2.2Zm1,.1a3.4,3.4,0,0,0,.4,1.6,1.4,1.4,0,0,0,1.2.6,1.1,1.1,0,0,0,1.1-.6,2.5,2.5,0,0,0,.4-1.6h0a2.4,2.4,0,0,0-.4-1.5,1.1,1.1,0,0,0-1.1-.6,1.4,1.4,0,0,0-1.2.6,3.3,3.3,0,0,0-.4,1.5Z"/><path d="M173.5,80H173a.8.8,0,0,0-.7.2,1.2,1.2,0,0,0-.5.5v4.2h-1V79.1h.9v.8l.6-.7a1.5,1.5,0,0,1,.9-.2h.4Z"/><path d="M178.7,84.9h-1.1V77.1h1.1Z"/><path d="M181.4,79.1v.8a2.3,2.3,0,0,1,.7-.7,1.6,1.6,0,0,1,1-.2,2,2,0,0,1,1.5.5,2.6,2.6,0,0,1,.5,1.7v3.7h-1.1V81.2a1.8,1.8,0,0,0-.3-1.1,1.2,1.2,0,0,0-.9-.3l-.8.2c-.3.1-.4.3-.6.6v4.3h-1V79.1Z"/><path d="M191.7,82.2a3.2,3.2,0,0,1-.6,2,2.1,2.1,0,0,1-1.7.8l-.9-.2a1.8,1.8,0,0,1-.7-.5v2.8h-1.1v-8h.8l.2.7a1.3,1.3,0,0,1,.7-.6,1.6,1.6,0,0,1,1-.2,1.9,1.9,0,0,1,1.7.8,3.9,3.9,0,0,1,.6,2.3Zm-1.1-.1a2.5,2.5,0,0,0-.4-1.6,1.1,1.1,0,0,0-1.1-.7l-.8.2-.5.6v2.8l.5.6.8.2a1.1,1.1,0,0,0,1.1-.6,2.1,2.1,0,0,0,.4-1.4Z"/><path d="M196.7,84a2.3,2.3,0,0,1-.7.7,1.9,1.9,0,0,1-1,.3,1.8,1.8,0,0,1-1.5-.6,2.6,2.6,0,0,1-.5-1.9V79.1h1v3.4a2.1,2.1,0,0,0,.3,1.3,1.1,1.1,0,0,0,.8.3,1.6,1.6,0,0,0,1-.2,1.5,1.5,0,0,0,.5-.6V79.1h1.1v5.8h-1Z"/><path d="M200.7,77.7v1.4h1.1v.8h-1.1v3.5a1.1,1.1,0,0,0,.2.6h.8l.2.8H201a1.3,1.3,0,0,1-1-.4,2.1,2.1,0,0,1-.4-1.2V79.9h-.9v-.8h.9V77.7Z"/><path d="M206.9,81.7v3.2h-1.1V77.1h3a2.7,2.7,0,0,1,1.9.6,2.4,2.4,0,0,1,0,3.4,2.7,2.7,0,0,1-1.9.6Zm0-.8h1.9a1.6,1.6,0,0,0,1.2-.4,1.7,1.7,0,0,0,0-2.2,1.6,1.6,0,0,0-1.2-.4h-1.9Z"/><path d="M213.8,77.6h-1.1V76.5h1.1Zm0,7.3h-1.1V79.1h1.1Z"/><path d="M216.4,79.1v.8a2.7,2.7,0,0,1,.8-.7,1.6,1.6,0,0,1,1-.2,1.6,1.6,0,0,1,1.4.5,2.2,2.2,0,0,1,.5,1.7v3.7h-1V81.2a1.8,1.8,0,0,0-.3-1.1,1.2,1.2,0,0,0-.9-.3l-.9.2a1,1,0,0,0-.5.6v4.3h-1.1V79.1Z"/><path d="M133.6,99.7a3.2,3.2,0,0,1-.9,2.3,3.1,3.1,0,0,1-4.6,0,3.6,3.6,0,0,1-.8-2.3V98.3a3.6,3.6,0,0,1,.8-2.4,3.2,3.2,0,0,1,5.5,2.4Zm-1.1-1.4a2.6,2.6,0,0,0-.6-1.8,2,2,0,0,0-3,0,2.6,2.6,0,0,0-.6,1.8v1.4a2.4,2.4,0,0,0,.6,1.7,2,2,0,0,0,3,0,2.4,2.4,0,0,0,.6-1.7Z"/><path d="M138.3,101.3a1.4,1.4,0,0,0-.2-.6l-1.1-.3a4.2,4.2,0,0,1-1.5-.7,1.1,1.1,0,0,1-.6-1,1.4,1.4,0,0,1,.6-1.2,2.2,2.2,0,0,1,1.6-.5,2.1,2.1,0,0,1,1.6.5,1.7,1.7,0,0,1,.6,1.2h-1a1,1,0,0,0-.4-.7,1.1,1.1,0,0,0-.8-.3,1.3,1.3,0,0,0-.8.2.9.9,0,0,0-.3.6.8.8,0,0,0,.2.6l1,.3a4,4,0,0,1,1.6.7,1.1,1.1,0,0,1,.6,1,1.5,1.5,0,0,1-.6,1.3,3.1,3.1,0,0,1-1.7.5,2.4,2.4,0,0,1-1.7-.6,1.2,1.2,0,0,1-.6-1.3h1a.8.8,0,0,0,.4.8l.9.3a1.2,1.2,0,0,0,.9-.3A.6.6,0,0,0,138.3,101.3Z"/><path d="M143,102.2a1.2,1.2,0,0,0,.9-.4,1,1,0,0,0,.3-.8h1a1.8,1.8,0,0,1-.6,1.3,2.5,2.5,0,0,1-1.6.6,2.6,2.6,0,0,1-1.9-.8,3.8,3.8,0,0,1-.7-2.1v-.2a3.5,3.5,0,0,1,.7-2.1A2.2,2.2,0,0,1,143,97a2.1,2.1,0,0,1,1.6.6,2,2,0,0,1,.6,1.4h-1a1.2,1.2,0,0,0-.3-.9,1.1,1.1,0,0,0-.9-.4,1.1,1.1,0,0,0-1.1.6,2.4,2.4,0,0,0-.4,1.5v.2a2.4,2.4,0,0,0,.4,1.5A1.1,1.1,0,0,0,143,102.2Z"/><path d="M147.6,95.6h-1.1V94.5h1.1Zm0,7.3h-1.1V97.1h1.1Z"/><path d="M150.4,102.9h-1.1V94.5h1.1Z"/><path d="M153.1,102.9h-1V94.5h1Z"/><path d="M158.3,102.9v-.5a.6.6,0,0,1-.1-.4,2.3,2.3,0,0,1-.7.7,2.3,2.3,0,0,1-1.1.3,2.2,2.2,0,0,1-1.4-.5,1.7,1.7,0,0,1-.4-1.3,1.8,1.8,0,0,1,.6-1.3,3.6,3.6,0,0,1,1.9-.4h1.1v-.6a1.1,1.1,0,0,0-.3-.8,1.2,1.2,0,0,0-.9-.3,1.1,1.1,0,0,0-.8.3.6.6,0,0,0-.3.6h-1a1,1,0,0,1,.6-1.1,2.1,2.1,0,0,1,1.6-.5,2.2,2.2,0,0,1,1.6.5,1.7,1.7,0,0,1,.6,1.4v3.4c0,.2.1.4.1.6Zm-1.7-.8a1.7,1.7,0,0,0,1-.3,1.3,1.3,0,0,0,.6-.7v-.9H157a1.7,1.7,0,0,0-1,.3,1.2,1.2,0,0,0-.4.8.9.9,0,0,0,.3.6Z"/><path d="M162.3,95.7v1.4h1.1v.8h-1.1v3.5c0,.3,0,.4.2.6h.8v.8h-.8a1.3,1.3,0,0,1-1-.4,2.1,2.1,0,0,1-.4-1.2V97.9h-.9v-.8h.9V95.7Z"/><path d="M164.3,99.9a3.1,3.1,0,0,1,.7-2.1,2.1,2.1,0,0,1,1.9-.8,2.2,2.2,0,0,1,1.9.8,3.5,3.5,0,0,1,.7,2.1h0a3.8,3.8,0,0,1-.7,2.2,2.6,2.6,0,0,1-1.9.8,2.4,2.4,0,0,1-1.9-.8,3.2,3.2,0,0,1-.7-2.2Zm1,.1a3.4,3.4,0,0,0,.4,1.6,1.4,1.4,0,0,0,1.2.6,1.1,1.1,0,0,0,1.1-.6,2.5,2.5,0,0,0,.4-1.6h0a2.4,2.4,0,0,0-.4-1.5,1.1,1.1,0,0,0-1.1-.6,1.4,1.4,0,0,0-1.2.6,3.3,3.3,0,0,0-.4,1.5Z"/><path d="M173.5,98H173a.8.8,0,0,0-.7.2,1.2,1.2,0,0,0-.5.5v4.2h-1V97.1h.9v.8l.6-.7a1.5,1.5,0,0,1,.9-.2h.4Z"/><path d="M183.5,99.7a3.2,3.2,0,0,1-.9,2.3,2.9,2.9,0,0,1-2.3,1,2.6,2.6,0,0,1-2.2-1,3.2,3.2,0,0,1-.9-2.3V98.3a3.2,3.2,0,0,1,.9-2.4,2.9,2.9,0,0,1,2.2-1,3.2,3.2,0,0,1,3.2,3.4Zm-1.1-1.4a2.6,2.6,0,0,0-.6-1.8,1.7,1.7,0,0,0-1.5-.7,1.8,1.8,0,0,0-1.5.7,2.6,2.6,0,0,0-.5,1.8v1.4a2.3,2.3,0,0,0,.5,1.7,1.8,1.8,0,0,0,1.5.7,1.7,1.7,0,0,0,1.5-.7,2.4,2.4,0,0,0,.6-1.7Z"/><path d="M188.5,102a1.2,1.2,0,0,1-.7.7,1.5,1.5,0,0,1-1,.3,1.7,1.7,0,0,1-1.4-.6,2.5,2.5,0,0,1-.6-1.9V97.1h1.1v3.4a2.1,2.1,0,0,0,.3,1.3,1,1,0,0,0,.8.3,1.6,1.6,0,0,0,1-.2,1.5,1.5,0,0,0,.5-.6V97.1h1.1v5.8h-1Z"/><path d="M192.6,95.7v1.4h1.1v.8h-1.1v3.5c0,.3,0,.4.2.6h.8v.8h-.8a1.3,1.3,0,0,1-1-.4,1.6,1.6,0,0,1-.4-1.2V97.9h-.9v-.8h.9V95.7Z"/><path d="M199.8,100.2a3.2,3.2,0,0,1-.6,2,2.1,2.1,0,0,1-1.7.8l-.9-.2a1.8,1.8,0,0,1-.7-.5v2.8h-1.1v-8h.8l.2.7a1.3,1.3,0,0,1,.7-.6,1.6,1.6,0,0,1,1-.2,1.9,1.9,0,0,1,1.7.8,3.9,3.9,0,0,1,.6,2.3Zm-1.1-.1a2.5,2.5,0,0,0-.4-1.6,1.1,1.1,0,0,0-1.1-.7l-.8.2-.5.6v2.8l.5.6.8.2a1.1,1.1,0,0,0,1.1-.6,2.1,2.1,0,0,0,.4-1.4Z"/><path d="M204.8,102a2.3,2.3,0,0,1-.7.7,1.9,1.9,0,0,1-1,.3,1.8,1.8,0,0,1-1.5-.6,2.5,2.5,0,0,1-.6-1.9V97.1h1.1v3.4a2.1,2.1,0,0,0,.3,1.3,1,1,0,0,0,.8.3,1.6,1.6,0,0,0,1-.2,1.5,1.5,0,0,0,.5-.6V97.1h1.1v5.8h-1Z"/><path d="M208.8,95.7v1.4h1.1v.8h-1.1v3.5c0,.3,0,.4.2.6h.8v.8h-.8a1.3,1.3,0,0,1-1-.4,2.1,2.1,0,0,1-.4-1.2V97.9h-.9v-.8h.9V95.7Z"/><path d="M215,99.7v3.2h-1.1V95.1h3a2.7,2.7,0,0,1,1.9.6,2.4,2.4,0,0,1,0,3.4,2.7,2.7,0,0,1-1.9.6Zm0-.8h1.9a1.6,1.6,0,0,0,1.2-.4,1.7,1.7,0,0,0,0-2.2,1.6,1.6,0,0,0-1.2-.4H215Z"/><path d="M221.9,95.6h-1.1V94.5h1.1Zm0,7.3h-1.1V97.1h1.1Z"/><path d="M224.5,97.1v.8a2.7,2.7,0,0,1,.8-.7,1.6,1.6,0,0,1,1-.2,1.6,1.6,0,0,1,1.4.5,2.2,2.2,0,0,1,.5,1.7v3.7h-1V99.2a1.8,1.8,0,0,0-.3-1.1,1.2,1.2,0,0,0-.9-.3l-.9.2a1,1,0,0,0-.5.6v4.3h-1.1V97.1Z"/><path d="M133.2,118.4h0a2.7,2.7,0,0,1-.8,1.9,3.3,3.3,0,0,1-2.1.7,2.9,2.9,0,0,1-2.2-.9,4.1,4.1,0,0,1-.8-2.4v-1.4a3.6,3.6,0,0,1,.8-2.4,3,3,0,0,1,2.2-1,2.9,2.9,0,0,1,2.1.8,2.2,2.2,0,0,1,.8,1.8h-1a1.7,1.7,0,0,0-1.9-1.8,1.5,1.5,0,0,0-1.4.7,2.7,2.7,0,0,0-.5,1.8v1.4a2.7,2.7,0,0,0,.5,1.8,1.7,1.7,0,0,0,1.4.7,2.2,2.2,0,0,0,1.4-.5,1.9,1.9,0,0,0,.5-1.3Z"/><path d="M134.2,117.9a3.1,3.1,0,0,1,.7-2.1,2.1,2.1,0,0,1,1.9-.8,2.2,2.2,0,0,1,1.9.8,3.5,3.5,0,0,1,.7,2.1h0a3.8,3.8,0,0,1-.7,2.2,2.6,2.6,0,0,1-1.9.8,2.4,2.4,0,0,1-1.9-.8,3.2,3.2,0,0,1-.7-2.2Zm1,.1a3.4,3.4,0,0,0,.4,1.6,1.4,1.4,0,0,0,1.2.6,1.1,1.1,0,0,0,1.1-.6,2.5,2.5,0,0,0,.4-1.6h0a2.4,2.4,0,0,0-.4-1.5,1.1,1.1,0,0,0-1.1-.6,1.4,1.4,0,0,0-1.2.6,3.3,3.3,0,0,0-.4,1.5Z"/><path d="M141.6,115.1v.8a2.3,2.3,0,0,1,.7-.7,1.6,1.6,0,0,1,1-.2,2,2,0,0,1,1.5.5,2.6,2.6,0,0,1,.5,1.7v3.7h-1.1v-3.7a1.8,1.8,0,0,0-.3-1.1,1.2,1.2,0,0,0-.9-.3l-.8.2c-.3.1-.4.3-.6.6v4.3h-1v-5.8Z"/><path d="M148.4,113.7v1.4h1.1v.8h-1.1v3.5c0,.3,0,.4.2.6h.8v.8h-.8a1.3,1.3,0,0,1-1-.4,2.1,2.1,0,0,1-.4-1.2v-3.5h-.9v-.8h.9v-1.4Z"/><path d="M153.4,116h-.6a.8.8,0,0,0-.7.2,1,1,0,0,0-.4.5v4.2h-1.1v-5.8h1v.8a1.3,1.3,0,0,1,.6-.7,1.1,1.1,0,0,1,.8-.2h.4Z"/><path d="M154.1,117.9a3.8,3.8,0,0,1,.7-2.1,2.2,2.2,0,0,1,1.9-.8,2.1,2.1,0,0,1,1.9.8,3,3,0,0,1,.7,2.1h0a3.2,3.2,0,0,1-.7,2.2,2.4,2.4,0,0,1-1.9.8,2.6,2.6,0,0,1-1.9-.8,3.8,3.8,0,0,1-.7-2.2Zm1.1.1a2.5,2.5,0,0,0,.4,1.6,1.1,1.1,0,0,0,1.1.6,1.4,1.4,0,0,0,1.2-.6,3.4,3.4,0,0,0,.4-1.6h0a3.3,3.3,0,0,0-.4-1.5,1.4,1.4,0,0,0-1.2-.6,1.1,1.1,0,0,0-1.1.6,2.4,2.4,0,0,0-.4,1.5Z"/><path d="M161.8,120.9h-1.1v-8.4h1.1Z"/><path d="M172.2,117.7a3.6,3.6,0,0,1-.8,2.3,3,3,0,0,1-2.4,1,2.7,2.7,0,0,1-2.2-1,3.1,3.1,0,0,1-.8-2.3v-1.4a3.2,3.2,0,0,1,.8-2.4,3,3,0,0,1,2.2-1,3.3,3.3,0,0,1,2.4,1,3.6,3.6,0,0,1,.8,2.4Zm-1-1.4a2.6,2.6,0,0,0-.6-1.8,1.9,1.9,0,0,0-1.6-.7,1.5,1.5,0,0,0-1.4.7,2.6,2.6,0,0,0-.6,1.8v1.4a2.4,2.4,0,0,0,.6,1.7,1.5,1.5,0,0,0,1.4.7,1.9,1.9,0,0,0,1.6-.7,2.4,2.4,0,0,0,.6-1.7Z"/><path d="M177.3,120a1.6,1.6,0,0,1-.7.7,1.7,1.7,0,0,1-1,.3,2,2,0,0,1-1.5-.6,3.1,3.1,0,0,1-.5-1.9v-3.4h1.1v3.4c0,.6,0,1.1.2,1.3a1.2,1.2,0,0,0,.9.3c.4,0,.7,0,.9-.2s.4-.4.6-.6v-4.2h1v5.8h-.9Z"/><path d="M181.3,113.7v1.4h1.1v.8h-1.1v3.5a1.1,1.1,0,0,0,.2.6h.9v.8h-.8a1.2,1.2,0,0,1-1-.4,1.6,1.6,0,0,1-.4-1.2v-3.5h-.9v-.8h.9v-1.4Z"/><path d="M188.5,118.2a3.2,3.2,0,0,1-.6,2,1.9,1.9,0,0,1-1.6.8l-1-.2-.7-.5v2.8h-1v-8h.8l.2.7a1.1,1.1,0,0,1,.7-.6,1.5,1.5,0,0,1,1-.2,1.7,1.7,0,0,1,1.6.8,3.9,3.9,0,0,1,.6,2.3Zm-1-.1a3.4,3.4,0,0,0-.4-1.6,1.3,1.3,0,0,0-1.2-.7l-.7.2-.6.6v2.8l.6.6.7.2a1.4,1.4,0,0,0,1.2-.6,2.9,2.9,0,0,0,.4-1.4Z"/><path d="M193.5,120a1.6,1.6,0,0,1-.7.7,1.7,1.7,0,0,1-1,.3,2,2,0,0,1-1.5-.6,3.1,3.1,0,0,1-.5-1.9v-3.4h1.1v3.4a3.5,3.5,0,0,0,.2,1.3,1.2,1.2,0,0,0,.9.3c.4,0,.7,0,.9-.2a1.2,1.2,0,0,0,.6-.6v-4.2h1v5.8h-.9Z"/><path d="M197.6,113.7v1.4h1.1v.8h-1.1v3.5a1.1,1.1,0,0,0,.1.6h.9v.8h-.8a1.2,1.2,0,0,1-1-.4,1.6,1.6,0,0,1-.4-1.2v-3.5h-.9v-.8h.9v-1.4Z"/><path d="M203.7,117.7v3.2h-1v-7.8h3a2.9,2.9,0,0,1,1.9.6,2.4,2.4,0,0,1,0,3.4,2.9,2.9,0,0,1-1.9.6Zm0-.8h2a1.2,1.2,0,0,0,1.1-.4,1.7,1.7,0,0,0,0-2.2,1.2,1.2,0,0,0-1.1-.4h-2Z"/><path d="M210.7,113.6h-1.1v-1.1h1.1Zm0,7.3h-1.1v-5.8h1.1Z"/><path d="M213.2,115.1v.8a2.3,2.3,0,0,1,.7-.7,1.8,1.8,0,0,1,1-.2,1.8,1.8,0,0,1,1.5.5,2.6,2.6,0,0,1,.5,1.7v3.7h-1.1v-3.7a1.8,1.8,0,0,0-.3-1.1,1.2,1.2,0,0,0-.9-.3l-.8.2a1.7,1.7,0,0,0-.6.6v4.3h-1v-5.8Z"/><path d="M133.5,138.9h-1.1l-3.7-6h-.1v6h-1v-7.8h1l3.8,5.9h0v-5.9h1.1Z"/><path d="M137.6,139a2.8,2.8,0,0,1-2-.8,3.3,3.3,0,0,1-.7-2.1v-.3a2.8,2.8,0,0,1,.8-2,1.9,1.9,0,0,1,1.7-.8,2.1,2.1,0,0,1,1.8.7,2.9,2.9,0,0,1,.6,1.9v.6H136a2.6,2.6,0,0,0,.4,1.4,1.4,1.4,0,0,0,1.2.6l.9-.2.7-.4.4.7-.8.5Zm-.2-5.2a1.2,1.2,0,0,0-.9.4,2.1,2.1,0,0,0-.4,1.1h2.6a1.8,1.8,0,0,0-.3-1.1A1.1,1.1,0,0,0,137.4,133.8Z"/><path d="M140.8,136.1a3.9,3.9,0,0,1,.6-2.3,1.7,1.7,0,0,1,1.6-.8,1.6,1.6,0,0,1,1,.2,1.3,1.3,0,0,1,.7.6v-.7h.9v5.8a1.9,1.9,0,0,1-.7,1.7,2.4,2.4,0,0,1-1.8.6h-.9l-.9-.3.2-.8.7.2h.8a1.9,1.9,0,0,0,1.2-.3,1.8,1.8,0,0,0,.3-1.1v-.6a1.8,1.8,0,0,1-.7.5l-.9.2a1.9,1.9,0,0,1-1.6-.8,3.2,3.2,0,0,1-.6-2Zm1,.1a2.1,2.1,0,0,0,.4,1.4c.2.4.6.5,1.1.5a1.1,1.1,0,0,0,.8-.2,1,1,0,0,0,.5-.6v-2.7l-.5-.6-.8-.2a1.1,1.1,0,0,0-1.1.6,3.1,3.1,0,0,0-.4,1.7Z"/><path d="M150.8,138.9a1.1,1.1,0,0,1-.1-.5V138a2.7,2.7,0,0,1-.8.7,1.9,1.9,0,0,1-1,.3,2,2,0,0,1-1.4-.5,1.7,1.7,0,0,1-.5-1.3,1.6,1.6,0,0,1,.7-1.3,3,3,0,0,1,1.8-.4h1.2v-.6a.9.9,0,0,0-.4-.8,1.1,1.1,0,0,0-.8-.3,1.2,1.2,0,0,0-.9.3.6.6,0,0,0-.3.6h-1a1.4,1.4,0,0,1,.6-1.1,2.2,2.2,0,0,1,1.6-.5,2.1,2.1,0,0,1,1.6.5,1.7,1.7,0,0,1,.6,1.4v3.4c.1.2.1.4.2.6Zm-1.8-.8a2.3,2.3,0,0,0,1.1-.3,1.3,1.3,0,0,0,.6-.7v-.9h-1.2a1.8,1.8,0,0,0-1.1.3,1.1,1.1,0,0,0-.3.8.7.7,0,0,0,.2.6Z"/><path d="M154.7,131.7v1.4h1.1v.8h-1.1v3.5a1.1,1.1,0,0,0,.2.6h.8l.2.8h-.8a1.4,1.4,0,0,1-1.1-.4,2.1,2.1,0,0,1-.3-1.2v-3.5h-1v-.8h1v-1.4Z"/><path d="M158.1,131.6H157v-1.1h1.1Zm0,7.3H157v-5.8h1.1Z"/><path d="M161.7,137.2v.4h0v-.4l1.3-4.1h1.1l-2.1,5.8h-.8l-2.2-5.8h1.1Z"/><path d="M167.6,139a2.8,2.8,0,0,1-2-.8,3.3,3.3,0,0,1-.7-2.1v-.3a2.8,2.8,0,0,1,.8-2,1.9,1.9,0,0,1,1.7-.8,2.1,2.1,0,0,1,1.8.7,2.9,2.9,0,0,1,.6,1.9v.6H166a2.6,2.6,0,0,0,.4,1.4,1.4,1.4,0,0,0,1.2.6l.9-.2.7-.4.4.7-.8.5Zm-.2-5.2a1.2,1.2,0,0,0-.9.4,2.1,2.1,0,0,0-.4,1.1h2.6a1.8,1.8,0,0,0-.3-1.1A1.1,1.1,0,0,0,167.4,133.8Z"/><path d="M174.9,135.7v3.2h-1.1v-7.8h3a3,3,0,0,1,2,.6,2.4,2.4,0,0,1,0,3.4,3,3,0,0,1-2,.6Zm0-.8h1.9a1.6,1.6,0,0,0,1.2-.4,1.7,1.7,0,0,0,0-2.2,1.6,1.6,0,0,0-1.2-.4h-1.9Z"/><path d="M180.4,135.9a3.1,3.1,0,0,1,.7-2.1,2.1,2.1,0,0,1,1.9-.8,2.2,2.2,0,0,1,1.9.8,3.5,3.5,0,0,1,.7,2.1h0a3.8,3.8,0,0,1-.7,2.2,2.6,2.6,0,0,1-1.9.8,2.4,2.4,0,0,1-1.9-.8,3.2,3.2,0,0,1-.7-2.2Zm1,.1a2.5,2.5,0,0,0,.4,1.6,1.3,1.3,0,0,0,1.2.6,1.3,1.3,0,0,0,1.1-.6,2.5,2.5,0,0,0,.4-1.6h0a2.4,2.4,0,0,0-.4-1.5,1.3,1.3,0,0,0-1.1-.6,1.3,1.3,0,0,0-1.2.6,2.4,2.4,0,0,0-.4,1.5Z"/><path d="M188.3,136.8l.2.7h0v-.7l1.2-3.7h.9l1.1,3.7.2.8h0l.2-.8.8-3.7h1.1l-1.6,5.8h-.9l-1.1-3.6-.3-.9h0l-.2.9-1.1,3.6H188l-1.7-5.8h1.1Z"/><path d="M197.6,139a2.8,2.8,0,0,1-2-.8,3.3,3.3,0,0,1-.7-2.1v-.3a2.8,2.8,0,0,1,.8-2,1.9,1.9,0,0,1,1.7-.8,2.1,2.1,0,0,1,1.8.7,2.9,2.9,0,0,1,.6,1.9v.6H196a2,2,0,0,0,.4,1.4,1.4,1.4,0,0,0,1.2.6l.9-.2.7-.4.4.7-.8.5Zm-.2-5.2a1.1,1.1,0,0,0-.9.4,2.1,2.1,0,0,0-.4,1.1h2.6a1.8,1.8,0,0,0-.3-1.1A1.1,1.1,0,0,0,197.4,133.8Z"/><path d="M203.7,134h-.6a1,1,0,0,0-.7.2,1,1,0,0,0-.4.5v4.2h-1.1v-5.8h1v.8l.6-.7a1.1,1.1,0,0,1,.8-.2h.4Z"/><path d="M211.8,136.9a1.6,1.6,0,0,0-.3-.9,4.8,4.8,0,0,0-1.4-.6,3.8,3.8,0,0,1-1.8-.9,1.5,1.5,0,0,1-.7-1.4,1.8,1.8,0,0,1,.7-1.5,2.5,2.5,0,0,1,1.9-.7,2.7,2.7,0,0,1,1.9.7,2.5,2.5,0,0,1,.8,1.7h-1.1a1.5,1.5,0,0,0-.4-1.1,1.6,1.6,0,0,0-1.2-.4,2.1,2.1,0,0,0-1.2.3,1.8,1.8,0,0,0-.4,1,1,1,0,0,0,.5.8,2.3,2.3,0,0,0,1.4.6,3.8,3.8,0,0,1,1.8.9,2,2,0,0,1,.6,1.5,2.1,2.1,0,0,1-.7,1.5,3.2,3.2,0,0,1-2,.6,3.6,3.6,0,0,1-2-.6,2,2,0,0,1-.8-1.7h1a1.7,1.7,0,0,0,.5,1.2,2.8,2.8,0,0,0,1.3.4,1.6,1.6,0,0,0,1.2-.4A1,1,0,0,0,211.8,136.9Z"/><path d="M217.9,138a1.2,1.2,0,0,1-.7.7,1.9,1.9,0,0,1-2.4-.3,2.5,2.5,0,0,1-.6-1.9v-3.4h1.1v3.4a2.1,2.1,0,0,0,.3,1.3c.1.2.4.3.8.3s.7,0,.9-.2a1.2,1.2,0,0,0,.6-.6v-4.2H219v5.8h-1Z"/><path d="M225.5,136.2a3.2,3.2,0,0,1-.6,2,2.1,2.1,0,0,1-1.7.8l-1-.2a1.5,1.5,0,0,1-.6-.5v2.8h-1.1v-8h.8l.2.7a1.3,1.3,0,0,1,.7-.6,1.6,1.6,0,0,1,1-.2,1.9,1.9,0,0,1,1.7.8,3.9,3.9,0,0,1,.6,2.3Zm-1.1-.1a2.5,2.5,0,0,0-.4-1.6,1.2,1.2,0,0,0-1.1-.7l-.8.2-.5.6v2.8l.5.6.8.2a1.1,1.1,0,0,0,1.1-.6,2.1,2.1,0,0,0,.4-1.4Z"/><path d="M231.7,136.2a3.2,3.2,0,0,1-.6,2,2.1,2.1,0,0,1-1.7.8l-.9-.2a1.8,1.8,0,0,1-.7-.5v2.8h-1v-8h.8v.7a1.9,1.9,0,0,1,.7-.6,1.8,1.8,0,0,1,1-.2,1.9,1.9,0,0,1,1.7.8,3.9,3.9,0,0,1,.6,2.3Zm-1.1-.1a3.5,3.5,0,0,0-.3-1.6,1.3,1.3,0,0,0-1.2-.7l-.8.2-.5.6v2.8l.5.6.8.2a1.4,1.4,0,0,0,1.2-.6,2.9,2.9,0,0,0,.3-1.4Z"/><path d="M234.1,138.9h-1v-8.4h1Z"/><path d="M237.6,136.7v.8h.1l1.4-4.4h1.2l-2.5,6.7a2.1,2.1,0,0,1-.6,1,1.4,1.4,0,0,1-1.1.4h-.6v-.8h.4a.6.6,0,0,0,.6-.3l.4-.6.2-.6-2.2-5.7h1.2Z"/><path d="M133.4,153.7a3.2,3.2,0,0,1-.9,2.3,2.9,2.9,0,0,1-2.3,1,2.6,2.6,0,0,1-2.2-1,3.2,3.2,0,0,1-.9-2.3v-1.4a3.2,3.2,0,0,1,.9-2.4,2.9,2.9,0,0,1,2.2-1,3.2,3.2,0,0,1,3.2,3.4Zm-1.1-1.4a2.6,2.6,0,0,0-.6-1.8,1.7,1.7,0,0,0-1.5-.7,1.8,1.8,0,0,0-1.5.7,2.6,2.6,0,0,0-.5,1.8v1.4a2.3,2.3,0,0,0,.5,1.7,1.8,1.8,0,0,0,1.5.7,2,2,0,0,0,1.6-.7,2.9,2.9,0,0,0,.5-1.7Z"/><path d="M138.5,156a2.3,2.3,0,0,1-.7.7,1.9,1.9,0,0,1-1,.3,1.8,1.8,0,0,1-1.5-.6,2.5,2.5,0,0,1-.6-1.9v-3.4h1.1v3.4a2.1,2.1,0,0,0,.3,1.3,1,1,0,0,0,.8.3,1.6,1.6,0,0,0,1-.2,1.5,1.5,0,0,0,.5-.6v-4.2h1.1v5.8h-1Z"/><path d="M142.5,149.7v1.4h1.1v.8h-1.1v3.5c0,.3,0,.4.2.6h.8v.8h-.8a1.3,1.3,0,0,1-1-.4,2.1,2.1,0,0,1-.4-1.2v-3.5h-.9v-.8h.9v-1.4Z"/><path d="M149.7,154.2a3.2,3.2,0,0,1-.6,2,2.1,2.1,0,0,1-1.7.8l-.9-.2a1.8,1.8,0,0,1-.7-.5v2.8h-1.1v-8h.8l.2.7a1.3,1.3,0,0,1,.7-.6,1.6,1.6,0,0,1,1-.2,1.9,1.9,0,0,1,1.7.8,3.9,3.9,0,0,1,.6,2.3Zm-1.1-.1a2.5,2.5,0,0,0-.4-1.6,1.1,1.1,0,0,0-1.1-.7l-.8.2-.5.6v2.8l.5.6.8.2a1.1,1.1,0,0,0,1.1-.6,2.1,2.1,0,0,0,.4-1.4Z"/><path d="M154.7,156a2.3,2.3,0,0,1-.7.7,1.9,1.9,0,0,1-1,.3,1.8,1.8,0,0,1-1.5-.6,2.6,2.6,0,0,1-.5-1.9v-3.4h1v3.4a2.1,2.1,0,0,0,.3,1.3,1.1,1.1,0,0,0,.8.3,1.6,1.6,0,0,0,1-.2,1.5,1.5,0,0,0,.5-.6v-4.2h1.1v5.8h-1Z"/><path d="M158.7,149.7v1.4h1.1v.8h-1.1v3.5a1.1,1.1,0,0,0,.2.6h.8l.2.8H159a1.3,1.3,0,0,1-1-.4,2.1,2.1,0,0,1-.4-1.2v-3.5h-.9v-.8h.9v-1.4Z"/><path d="M163.8,156.9v-7.8h2.6a2.9,2.9,0,0,1,1.9.5,2,2,0,0,1,.7,1.6,1.6,1.6,0,0,1-.3.9l-.9.6a2.1,2.1,0,0,1,1.3.7,1.8,1.8,0,0,1,.4,1.3,1.9,1.9,0,0,1-.7,1.6,2.9,2.9,0,0,1-1.9.6Zm1.1-4.5h1.7a1.2,1.2,0,0,0,1.3-1.2,1.1,1.1,0,0,0-.4-1,1.8,1.8,0,0,0-1.1-.3h-1.5Zm0,.8v2.9h2a1.6,1.6,0,0,0,1.1-.4,1.2,1.2,0,0,0,.4-1,1.4,1.4,0,0,0-.4-1.1,1.6,1.6,0,0,0-1.1-.4h-2Z"/><path d="M174.4,156a1.8,1.8,0,0,1-.8.7,1.4,1.4,0,0,1-.9.3,1.8,1.8,0,0,1-1.5-.6,2.5,2.5,0,0,1-.6-1.9v-3.4h1.1v3.4a2.1,2.1,0,0,0,.3,1.3,1,1,0,0,0,.8.3,1.6,1.6,0,0,0,1-.2,1.5,1.5,0,0,0,.5-.6v-4.2h1.1v5.8h-1Z"/><path d="M177.4,156.9v-5h-1v-.8h1v-.8a2,2,0,0,1,.4-1.4,2.2,2.2,0,0,1,1.4-.5h.8l-.2.8h-.5a.8.8,0,0,0-.7.2,1.9,1.9,0,0,0-.2.8v.8h1.1v.8h-1.1v5Z"/><path d="M181,156.9v-5h-.9v-.8h.9v-.8a1.6,1.6,0,0,1,.5-1.4,1.7,1.7,0,0,1,1.3-.5h.8v.8h-.6c-.3,0-.5,0-.6.2a1.1,1.1,0,0,0-.3.8v.8h1.1v.8H182v5Z"/><path d="M186.4,157a2.4,2.4,0,0,1-1.9-.8,2.8,2.8,0,0,1-.7-2.1v-.3a2.7,2.7,0,0,1,.7-2,2.2,2.2,0,0,1,1.8-.8,2.1,2.1,0,0,1,1.7.7,2.9,2.9,0,0,1,.6,1.9v.6h-3.7a2.6,2.6,0,0,0,.3,1.4,1.4,1.4,0,0,0,1.2.6l1-.2.7-.4.4.7-.8.5Zm-.1-5.2a1.3,1.3,0,0,0-1,.4,3.6,3.6,0,0,0-.4,1.1h2.6a1.8,1.8,0,0,0-.3-1.1A1,1,0,0,0,186.3,151.8Z"/><path d="M192.5,152H192a.8.8,0,0,0-.7.2l-.5.5v4.2h-1v-5.8h.9v.8l.6-.7a1.5,1.5,0,0,1,.9-.2h.4Z"/><path d="M202.5,153.7a3.2,3.2,0,0,1-.9,2.3,2.9,2.9,0,0,1-2.3,1,2.6,2.6,0,0,1-2.2-1,3.2,3.2,0,0,1-.9-2.3v-1.4a3.2,3.2,0,0,1,.9-2.4,2.9,2.9,0,0,1,2.2-1,3.2,3.2,0,0,1,3.2,3.4Zm-1.1-1.4a2.6,2.6,0,0,0-.6-1.8,1.7,1.7,0,0,0-1.5-.7,1.8,1.8,0,0,0-1.5.7,2.6,2.6,0,0,0-.5,1.8v1.4a2.3,2.3,0,0,0,.5,1.7,1.8,1.8,0,0,0,1.5.7,1.7,1.7,0,0,0,1.5-.7,2.4,2.4,0,0,0,.6-1.7Z"/><path d="M207.6,156a2.3,2.3,0,0,1-.7.7,1.9,1.9,0,0,1-1,.3,1.8,1.8,0,0,1-1.5-.6,2.5,2.5,0,0,1-.6-1.9v-3.4h1.1v3.4a2.1,2.1,0,0,0,.3,1.3,1,1,0,0,0,.8.3,1.6,1.6,0,0,0,1-.2,1.5,1.5,0,0,0,.5-.6v-4.2h1.1v5.8h-1Z"/><path d="M211.6,149.7v1.4h1.1v.8h-1.1v3.5c0,.3,0,.4.2.6h.8v.8h-.8a1.3,1.3,0,0,1-1-.4,2.1,2.1,0,0,1-.4-1.2v-3.5h-.9v-.8h.9v-1.4Z"/><path d="M218.8,154.2a3.2,3.2,0,0,1-.6,2,2.1,2.1,0,0,1-1.7.8l-.9-.2a1.8,1.8,0,0,1-.7-.5v2.8h-1.1v-8h.8l.2.7a1.3,1.3,0,0,1,.7-.6,1.6,1.6,0,0,1,1-.2,1.9,1.9,0,0,1,1.7.8,3.9,3.9,0,0,1,.6,2.3Zm-1.1-.1a2.5,2.5,0,0,0-.4-1.6,1.1,1.1,0,0,0-1.1-.7l-.8.2-.5.6v2.8l.5.6.8.2a1.1,1.1,0,0,0,1.1-.6,2.1,2.1,0,0,0,.4-1.4Z"/><path d="M223.8,156a2.3,2.3,0,0,1-.7.7,1.9,1.9,0,0,1-1,.3,1.8,1.8,0,0,1-1.5-.6,2.6,2.6,0,0,1-.5-1.9v-3.4h1v3.4a2.1,2.1,0,0,0,.3,1.3,1.1,1.1,0,0,0,.8.3,1.6,1.6,0,0,0,1-.2,1.5,1.5,0,0,0,.5-.6v-4.2h1.1v5.8h-1Z"/><path d="M227.8,149.7v1.4h1.1v.8h-1.1v3.5a1.1,1.1,0,0,0,.2.6h.8l.2.8h-.9a1.3,1.3,0,0,1-1-.4,2.1,2.1,0,0,1-.4-1.2v-3.5h-.9v-.8h.9v-1.4Z"/><path d="M235.8,156.9h-1.1V150H233v-.9l2.8-.3Z"/><path d="M131.8,171.4h-3.3v3.5h-1.1v-7.8h4.9v.8h-3.8v2.7h3.3Z"/><path d="M133,171.9a3.1,3.1,0,0,1,.7-2.1,2.1,2.1,0,0,1,1.9-.8,2.2,2.2,0,0,1,1.9.8,3.5,3.5,0,0,1,.7,2.1h0a3.8,3.8,0,0,1-.7,2.2,2.6,2.6,0,0,1-1.9.8,2.4,2.4,0,0,1-1.9-.8,3.2,3.2,0,0,1-.7-2.2Zm1,.1a3.4,3.4,0,0,0,.4,1.6,1.4,1.4,0,0,0,1.2.6,1.1,1.1,0,0,0,1.1-.6,2.5,2.5,0,0,0,.4-1.6h0a2.4,2.4,0,0,0-.4-1.5,1.1,1.1,0,0,0-1.1-.6,1.4,1.4,0,0,0-1.2.6,3.3,3.3,0,0,0-.4,1.5Z"/><path d="M142.2,170h-.5a.8.8,0,0,0-.7.2l-.5.5v4.2h-1v-5.8h.9v.8l.6-.7a1.5,1.5,0,0,1,.9-.2h.4Z"/><path d="M151.7,167.9h-2.6v7H148v-7h-2.5v-.8h6.2Z"/><path d="M154.5,175a2.4,2.4,0,0,1-1.9-.8,2.8,2.8,0,0,1-.7-2.1v-.3a2.7,2.7,0,0,1,.7-2,2.1,2.1,0,0,1,1.7-.8,2.1,2.1,0,0,1,1.8.7,2.9,2.9,0,0,1,.6,1.9v.6h-3.8a2.6,2.6,0,0,0,.4,1.4,1.4,1.4,0,0,0,1.2.6l1-.2.7-.4.4.7-.9.5Zm-.2-5.2a1.2,1.2,0,0,0-.9.4,2.1,2.1,0,0,0-.4,1.1h2.6a1.8,1.8,0,0,0-.3-1.1A1.1,1.1,0,0,0,154.3,169.8Z"/><path d="M161.2,173.3a.7.7,0,0,0-.2-.6l-1-.3a4.8,4.8,0,0,1-1.6-.7,1.1,1.1,0,0,1-.6-1,1.3,1.3,0,0,1,.7-1.2,2,2,0,0,1,1.5-.5,2.1,2.1,0,0,1,1.6.5,1.7,1.7,0,0,1,.6,1.2h-1a.9.9,0,0,0-.3-.7,1.4,1.4,0,0,0-.9-.3l-.8.2a.9.9,0,0,0-.3.6.8.8,0,0,0,.2.6l1,.3a5.4,5.4,0,0,1,1.7.7,1.2,1.2,0,0,1,.5,1,1.5,1.5,0,0,1-.6,1.3,2.9,2.9,0,0,1-1.7.5,2.4,2.4,0,0,1-1.7-.6,1.6,1.6,0,0,1-.6-1.3h1a1,1,0,0,0,.4.8l.9.3a1.2,1.2,0,0,0,.9-.3A.6.6,0,0,0,161.2,173.3Z"/><path d="M165.1,167.7v1.4h1.1v.8h-1.1v3.5c0,.3,0,.4.2.6h.8v.8h-.8a1.3,1.3,0,0,1-1-.4,2.1,2.1,0,0,1-.4-1.2v-3.5h-.9v-.8h.9v-1.4Z"/><path d="M168.5,167.6h-1.1v-1.1h1.1Zm0,7.3h-1.1v-5.8h1.1Z"/><path d="M171,169.1v.8l.7-.7a1.8,1.8,0,0,1,1-.2,1.7,1.7,0,0,1,1.5.5,2.6,2.6,0,0,1,.5,1.7v3.7h-1v-3.7a1.8,1.8,0,0,0-.3-1.1,1.5,1.5,0,0,0-1-.3l-.8.2a1,1,0,0,0-.5.6v4.3h-1.1v-5.8Z"/><path d="M176.2,172.1a3.9,3.9,0,0,1,.6-2.3,1.7,1.7,0,0,1,1.6-.8,1.6,1.6,0,0,1,1,.2,1.3,1.3,0,0,1,.7.6v-.7h.9v5.8a1.9,1.9,0,0,1-.7,1.7,2.4,2.4,0,0,1-1.8.6h-.9l-.9-.3.2-.8.7.2h.8a1.9,1.9,0,0,0,1.2-.3,1.8,1.8,0,0,0,.3-1.1v-.6a1.8,1.8,0,0,1-.7.5l-.9.2a1.9,1.9,0,0,1-1.6-.8,3.2,3.2,0,0,1-.6-2Zm1,.1a2.1,2.1,0,0,0,.4,1.4c.2.4.6.5,1.1.5a1.1,1.1,0,0,0,.8-.2,1,1,0,0,0,.5-.6v-2.7l-.5-.6-.8-.2a1.1,1.1,0,0,0-1.1.6,3.1,3.1,0,0,0-.4,1.7Z"/><path d="M131.8,190.9a1.8,1.8,0,0,0-.4-.9l-1.4-.6a3.8,3.8,0,0,1-1.8-.9,1.5,1.5,0,0,1-.7-1.4,1.8,1.8,0,0,1,.7-1.5,2.5,2.5,0,0,1,1.9-.7,3.2,3.2,0,0,1,2,.7,2.8,2.8,0,0,1,.7,1.7h-1.1a1.5,1.5,0,0,0-.4-1.1,2.1,2.1,0,0,0-2.3-.1,1.3,1.3,0,0,0-.4,1,.9.9,0,0,0,.4.8,2.6,2.6,0,0,0,1.4.6,3.8,3.8,0,0,1,1.8.9,2,2,0,0,1,.6,1.5,1.8,1.8,0,0,1-.7,1.5,3.2,3.2,0,0,1-2,.6,3.6,3.6,0,0,1-2-.6,2.3,2.3,0,0,1-.8-1.7h1a1.4,1.4,0,0,0,.6,1.2,2.5,2.5,0,0,0,1.2.4,1.6,1.6,0,0,0,1.2-.4A1.1,1.1,0,0,0,131.8,190.9Z"/><path d="M136.6,193a2.6,2.6,0,0,1-2-.8,3.3,3.3,0,0,1-.7-2.1v-.3a3.2,3.2,0,0,1,.7-2,2.2,2.2,0,0,1,1.8-.8,2.1,2.1,0,0,1,1.8.7,3.6,3.6,0,0,1,.5,1.9v.6H135a2,2,0,0,0,.4,1.4,1.3,1.3,0,0,0,1.2.6l.9-.2.7-.4.4.7-.8.5Zm-.2-5.2a1,1,0,0,0-.9.4,2.1,2.1,0,0,0-.4,1.1h2.6a1.8,1.8,0,0,0-.3-1.1A1.2,1.2,0,0,0,136.4,187.8Z"/><path d="M139.7,190.1a3.9,3.9,0,0,1,.6-2.3,1.8,1.8,0,0,1,1.7-.8,1.5,1.5,0,0,1,.9.2,1.8,1.8,0,0,1,.7.5v-.6h.8v8h-1v-2.8a1.8,1.8,0,0,1-.7.5l-.8.2a2,2,0,0,1-1.7-.8,3.2,3.2,0,0,1-.6-2Zm1,.1a2.6,2.6,0,0,0,.4,1.4,1.1,1.1,0,0,0,1.1.6l.8-.2.5-.6v-2.9l-.5-.5-.8-.2a1.3,1.3,0,0,0-1.1.6,4.3,4.3,0,0,0-.4,1.7Z"/><path d="M149.9,192a1.6,1.6,0,0,1-.7.7,1.9,1.9,0,0,1-1,.3,1.8,1.8,0,0,1-1.5-.6,2.6,2.6,0,0,1-.5-1.9v-3.4h1v3.4a2.1,2.1,0,0,0,.3,1.3,1.1,1.1,0,0,0,.8.3,1.6,1.6,0,0,0,1-.2,1.5,1.5,0,0,0,.5-.6v-4.2h1.1v5.8h-1Z"/><path d="M154.8,193a2.6,2.6,0,0,1-1.9-.8,2.8,2.8,0,0,1-.7-2.1v-.3a2.7,2.7,0,0,1,.7-2,2.2,2.2,0,0,1,1.8-.8,2.1,2.1,0,0,1,1.7.7,2.9,2.9,0,0,1,.6,1.9v.6h-3.7a2,2,0,0,0,.4,1.4,1.1,1.1,0,0,0,1.1.6l1-.2.7-.4.4.7-.8.5Zm-.1-5.2a1,1,0,0,0-.9.4,2.2,2.2,0,0,0-.5,1.1h2.6a1.8,1.8,0,0,0-.3-1.1A1,1,0,0,0,154.7,187.8Z"/><path d="M159.1,187.1v.8l.7-.7a1.8,1.8,0,0,1,1-.2,1.8,1.8,0,0,1,1.5.5,2.6,2.6,0,0,1,.5,1.7v3.7h-1.1v-3.7a1.8,1.8,0,0,0-.3-1.1,1.2,1.2,0,0,0-.9-.3l-.8.2a1.7,1.7,0,0,0-.6.6v4.3h-1v-5.8Z"/><path d="M166.8,192.2a.9.9,0,0,0,.8-.4,1,1,0,0,0,.4-.8h.9a1.5,1.5,0,0,1-.6,1.3,2.2,2.2,0,0,1-1.5.6,2.3,2.3,0,0,1-1.9-.8,3.1,3.1,0,0,1-.7-2.1v-.2a3,3,0,0,1,.7-2.1,2.4,2.4,0,0,1,3.4-.2,1.4,1.4,0,0,1,.6,1.4H168a1,1,0,0,0-.4-.9.9.9,0,0,0-.8-.4,1.3,1.3,0,0,0-1.2.6,3.3,3.3,0,0,0-.3,1.5v.2a3.3,3.3,0,0,0,.3,1.5A1.2,1.2,0,0,0,166.8,192.2Z"/><path d="M172.6,193a2.4,2.4,0,0,1-1.9-.8,2.8,2.8,0,0,1-.7-2.1v-.3a2.7,2.7,0,0,1,.7-2,2,2,0,0,1,1.7-.8,2.1,2.1,0,0,1,1.8.7,2.9,2.9,0,0,1,.6,1.9v.6H171a2.6,2.6,0,0,0,.4,1.4,1.4,1.4,0,0,0,1.2.6l.9-.2.7-.4.5.7-.9.5Zm-.2-5.2a1.2,1.2,0,0,0-.9.4,2.1,2.1,0,0,0-.4,1.1h2.6a1.8,1.8,0,0,0-.3-1.1A1.1,1.1,0,0,0,172.4,187.8Z"/><path d="M184.3,185.9h-2.6v7h-1v-7h-2.6v-.8h6.2Z"/><path d="M187.6,188h-.5a.8.8,0,0,0-.7.2l-.5.5v4.2h-1v-5.8h.9v.8l.6-.7a1.3,1.3,0,0,1,.9-.2h.4Z"/><path d="M189.9,185.6h-1.1v-1.1h1.1Zm0,7.3h-1.1v-5.8h1.1Z"/><path d="M191.3,190.1a3.9,3.9,0,0,1,.6-2.3,1.9,1.9,0,0,1,1.7-.8,1.3,1.3,0,0,1,.9.2,1.6,1.6,0,0,1,.8.6v-.7h.8v5.8a2.2,2.2,0,0,1-.6,1.7,2.9,2.9,0,0,1-1.9.6h-.9l-.9-.3.2-.8.7.2h.9a1.6,1.6,0,0,0,1.1-.3,1.8,1.8,0,0,0,.4-1.1v-.6l-.7.5-.9.2a2.1,2.1,0,0,1-1.7-.8,3.2,3.2,0,0,1-.6-2Zm1.1.1a2.9,2.9,0,0,0,.3,1.4,1.2,1.2,0,0,0,1.1.5c.4,0,.6,0,.8-.2a1.7,1.7,0,0,0,.6-.6v-2.7a3.4,3.4,0,0,0-.6-.6l-.8-.2a1.3,1.3,0,0,0-1.1.6,4.3,4.3,0,0,0-.3,1.7Z"/><path d="M197.6,190.1a3.9,3.9,0,0,1,.6-2.3,1.7,1.7,0,0,1,1.6-.8,1.6,1.6,0,0,1,1,.2,1.3,1.3,0,0,1,.7.6v-.7h.9v5.8a1.9,1.9,0,0,1-.7,1.7,2.4,2.4,0,0,1-1.8.6h-1l-.8-.3.2-.8.7.2h.8a1.9,1.9,0,0,0,1.2-.3,1.8,1.8,0,0,0,.3-1.1v-.6a1.8,1.8,0,0,1-.7.5l-.9.2a1.9,1.9,0,0,1-1.6-.8,3.2,3.2,0,0,1-.6-2Zm1,.1a2.1,2.1,0,0,0,.4,1.4c.2.4.6.5,1.1.5a1.1,1.1,0,0,0,.8-.2,1,1,0,0,0,.5-.6v-2.7l-.5-.6-.8-.2a1.1,1.1,0,0,0-1.1.6,3.1,3.1,0,0,0-.4,1.7Z"/><path d="M206.4,193a2.8,2.8,0,0,1-2-.8,3.3,3.3,0,0,1-.7-2.1v-.3a2.8,2.8,0,0,1,.8-2,2,2,0,0,1,1.7-.8,2.1,2.1,0,0,1,1.8.7,2.9,2.9,0,0,1,.6,1.9v.6h-3.8a2.6,2.6,0,0,0,.4,1.4,1.4,1.4,0,0,0,1.2.6l.9-.2.7-.4.5.7-.9.5Zm-.2-5.2a1.2,1.2,0,0,0-.9.4,2.1,2.1,0,0,0-.4,1.1h2.6a1.8,1.8,0,0,0-.3-1.1A1.1,1.1,0,0,0,206.2,187.8Z"/><path d="M212.5,188H212c-.3,0-.6,0-.7.2l-.5.5v4.2h-1v-5.8h.9v.8l.6-.7a1.2,1.2,0,0,1,.8-.2h.4Z"/><path d="M217.5,189.7v3.2h-1v-7.8h3a2.7,2.7,0,0,1,1.9.6,2.4,2.4,0,0,1,0,3.4,2.7,2.7,0,0,1-1.9.6Zm0-.8h2a1.6,1.6,0,0,0,1.2-.4,1.7,1.7,0,0,0,0-2.2,1.6,1.6,0,0,0-1.2-.4h-2Z"/><path d="M224.5,185.6h-1.1v-1.1h1.1Zm0,7.3h-1.1v-5.8h1.1Z"/><path d="M227,187.1v.8a2.7,2.7,0,0,1,.8-.7,1.3,1.3,0,0,1,.9-.2,1.7,1.7,0,0,1,1.5.5,2.6,2.6,0,0,1,.5,1.7v3.7h-1v-3.7a1.8,1.8,0,0,0-.3-1.1,1.5,1.5,0,0,0-1-.3l-.8.2a1,1,0,0,0-.5.6v4.3h-1.1v-5.8Z"/><path d="M131.5,209.4h0l2.5-6.3h1.3v7.8h-1V205h-.1l-2.3,5.9h-.8l-2.4-6.1h-.1v6.1h-1v-7.8H129Z"/><path d="M136.8,207.9a3.1,3.1,0,0,1,.7-2.1,1.9,1.9,0,0,1,1.8-.8,2.3,2.3,0,0,1,2,.8,3.5,3.5,0,0,1,.7,2.1h0a3.8,3.8,0,0,1-.7,2.2,2.6,2.6,0,0,1-1.9.8,2.4,2.4,0,0,1-1.9-.8,3.2,3.2,0,0,1-.7-2.2Zm1,.1a2.5,2.5,0,0,0,.4,1.6,1.3,1.3,0,0,0,1.2.6,1.3,1.3,0,0,0,1.1-.6,2.5,2.5,0,0,0,.4-1.6h0a2.4,2.4,0,0,0-.4-1.5,1.3,1.3,0,0,0-1.2-.6,1.3,1.3,0,0,0-1.1.6,2.4,2.4,0,0,0-.4,1.5Z"/><path d="M143,208.1a3.9,3.9,0,0,1,.6-2.3,1.9,1.9,0,0,1,1.7-.8h.9l.7.6v-3.2h1v8.4h-.8v-.8a2.7,2.7,0,0,1-.8.7l-.9.2a2.1,2.1,0,0,1-1.7-.8,3.2,3.2,0,0,1-.6-2Zm1.1.1a2.6,2.6,0,0,0,.3,1.4,1.2,1.2,0,0,0,1.1.5c.4,0,.6,0,.8-.2s.4-.3.6-.6v-2.7l-.6-.6-.7-.2a1.3,1.3,0,0,0-1.2.6,4.3,4.3,0,0,0-.3,1.7Z"/><path d="M153.2,210a1.6,1.6,0,0,1-.7.7,1.7,1.7,0,0,1-1,.3,2,2,0,0,1-1.5-.6,3.1,3.1,0,0,1-.5-1.9v-3.4h1v3.4a2.1,2.1,0,0,0,.3,1.3,1.2,1.2,0,0,0,.9.3,1.3,1.3,0,0,0,.9-.2c.2-.1.4-.4.6-.6v-4.2h1v5.8h-.9Z"/><path d="M156.9,210.9h-1.1v-8.4h1.1Z"/><path d="M162.1,210.9a4.3,4.3,0,0,0-.1-.5V210a2.7,2.7,0,0,1-.8.7,1.7,1.7,0,0,1-1,.3,2,2,0,0,1-1.4-.5,1.7,1.7,0,0,1-.5-1.3,1.9,1.9,0,0,1,.7-1.3,3.4,3.4,0,0,1,1.8-.4H162v-.6a1.1,1.1,0,0,0-.3-.8,1.2,1.2,0,0,0-.9-.3,1,1,0,0,0-.8.3.5.5,0,0,0-.4.6h-1a1.4,1.4,0,0,1,.6-1.1,2.2,2.2,0,0,1,1.6-.5,2.1,2.1,0,0,1,1.6.5,1.7,1.7,0,0,1,.6,1.4v2.8c0,.2.1.4.1.6a1.3,1.3,0,0,0,.1.6Zm-1.8-.8a2,2,0,0,0,1.1-.3,1.3,1.3,0,0,0,.6-.7v-.9h-1.2a1.5,1.5,0,0,0-1,.3.9.9,0,0,0-.4.8,1.4,1.4,0,0,0,.2.6Z"/><path d="M166,203.7v1.4h1.1v.8H166v3.5a1.1,1.1,0,0,0,.2.6h.9v.8h-.8a1.2,1.2,0,0,1-1-.4,1.6,1.6,0,0,1-.4-1.2v-3.5h-.9v-.8h.9v-1.4Z"/><path d="M170.7,211a2.8,2.8,0,0,1-2-.8,3.3,3.3,0,0,1-.7-2.1v-.3a2.8,2.8,0,0,1,.8-2,1.9,1.9,0,0,1,1.7-.8,2.1,2.1,0,0,1,1.8.7,2.9,2.9,0,0,1,.6,1.9v.6h-3.8a2,2,0,0,0,.4,1.4,1.4,1.4,0,0,0,1.2.6l.9-.2.7-.4.4.7-.8.5Zm-.2-5.2a1.1,1.1,0,0,0-.9.4,2.1,2.1,0,0,0-.4,1.1h2.6a1.8,1.8,0,0,0-.3-1.1A1.1,1.1,0,0,0,170.5,205.8Z"/><path d="M173.8,208.1a3.9,3.9,0,0,1,.6-2.3,1.9,1.9,0,0,1,1.7-.8h.9l.7.6v-3.2h1v8.4h-.8l-.2-.8a1.6,1.6,0,0,1-.7.7l-.9.2a2.1,2.1,0,0,1-1.7-.8,3.2,3.2,0,0,1-.6-2Zm1.1.1a2.6,2.6,0,0,0,.3,1.4,1.2,1.2,0,0,0,1.1.5,1.1,1.1,0,0,0,.8-.2,1.7,1.7,0,0,0,.6-.6v-2.7l-.6-.6-.8-.2a1.3,1.3,0,0,0-1.1.6,4.3,4.3,0,0,0-.3,1.7Z"/><path d="M188.6,203.9h-2.5v7H185v-7h-2.5v-.8h6.1Z"/><path d="M188.8,207.9a3.8,3.8,0,0,1,.7-2.1,2.2,2.2,0,0,1,1.9-.8,2.1,2.1,0,0,1,1.9.8,3,3,0,0,1,.7,2.1h0a3.2,3.2,0,0,1-.7,2.2,2.4,2.4,0,0,1-1.9.8,2.6,2.6,0,0,1-1.9-.8,3.8,3.8,0,0,1-.7-2.2Zm1.1.1a2.5,2.5,0,0,0,.4,1.6,1.1,1.1,0,0,0,1.1.6,1.4,1.4,0,0,0,1.2-.6,3.4,3.4,0,0,0,.4-1.6h0a3.3,3.3,0,0,0-.4-1.5,1.4,1.4,0,0,0-1.2-.6,1.1,1.1,0,0,0-1.1.6,2.4,2.4,0,0,0-.4,1.5Z"/><path d="M196.3,205.1v.8a2.7,2.7,0,0,1,.8-.7,1.6,1.6,0,0,1,1-.2,1.6,1.6,0,0,1,1.4.5,2.2,2.2,0,0,1,.5,1.7v3.7h-1v-3.7a1.8,1.8,0,0,0-.3-1.1,1.2,1.2,0,0,0-.9-.3l-.9.2a1,1,0,0,0-.5.6v4.3h-1.1v-5.8Z"/><path d="M204,211a2.6,2.6,0,0,1-2-.8,3.3,3.3,0,0,1-.7-2.1v-.3a2.8,2.8,0,0,1,.8-2,1.9,1.9,0,0,1,1.7-.8,2.1,2.1,0,0,1,1.8.7,2.9,2.9,0,0,1,.5,1.9v.6h-3.7a2,2,0,0,0,.4,1.4,1.4,1.4,0,0,0,1.2.6l.9-.2.7-.4.4.7-.8.5Zm-.2-5.2a1,1,0,0,0-.9.4,2.1,2.1,0,0,0-.4,1.1h2.6a1.8,1.8,0,0,0-.3-1.1A1.1,1.1,0,0,0,203.8,205.8Z"/><path d="M214.4,208.9a1.2,1.2,0,0,0-.4-.9l-1.3-.6a4.2,4.2,0,0,1-1.9-.9,1.7,1.7,0,0,1-.7-1.4,2.1,2.1,0,0,1,.7-1.5,2.6,2.6,0,0,1,1.9-.7,3.2,3.2,0,0,1,2,.7,2.3,2.3,0,0,1,.7,1.7h-1a1.8,1.8,0,0,0-2.8-1.2,1.3,1.3,0,0,0-.4,1,.9.9,0,0,0,.4.8,2.6,2.6,0,0,0,1.4.6,3.8,3.8,0,0,1,1.8.9,2,2,0,0,1,.6,1.5,1.8,1.8,0,0,1-.7,1.5,2.9,2.9,0,0,1-1.9.6,3.2,3.2,0,0,1-2-.6,2.1,2.1,0,0,1-.9-1.7h1a1.4,1.4,0,0,0,.6,1.2,2.8,2.8,0,0,0,1.3.4,1.2,1.2,0,0,0,1.1-.4A1.1,1.1,0,0,0,214.4,208.9Z"/><path d="M217.9,203.6h-1v-1.1h1Zm0,7.3h-1v-5.8h1Z"/><path d="M219.4,208.1a3.9,3.9,0,0,1,.6-2.3,1.7,1.7,0,0,1,1.6-.8,1.6,1.6,0,0,1,1,.2,1.3,1.3,0,0,1,.7.6l.2-.7h.8v5.8a1.9,1.9,0,0,1-.7,1.7,2.4,2.4,0,0,1-1.8.6h-.9l-.9-.3.2-.8.7.2h.9a1.6,1.6,0,0,0,1.1-.3,1.8,1.8,0,0,0,.3-1.1v-.6l-.6.5-1,.2a1.9,1.9,0,0,1-1.6-.8,3.2,3.2,0,0,1-.6-2Zm1,.1a2.9,2.9,0,0,0,.4,1.4c.2.4.6.5,1.1.5a1.1,1.1,0,0,0,.8-.2,1,1,0,0,0,.5-.6v-2.7l-.5-.6-.8-.2a1.1,1.1,0,0,0-1.1.6,4.3,4.3,0,0,0-.4,1.7Z"/><path d="M226.8,205.1v.8a2.7,2.7,0,0,1,.8-.7,1.6,1.6,0,0,1,1-.2,1.6,1.6,0,0,1,1.4.5,2.2,2.2,0,0,1,.5,1.7v3.7h-1v-3.7a1.8,1.8,0,0,0-.3-1.1,1.3,1.3,0,0,0-1-.3l-.8.2a1,1,0,0,0-.5.6v4.3h-1.1v-5.8Z"/><path d="M235.6,210.9v-.5a.6.6,0,0,1-.1-.4,2.3,2.3,0,0,1-.7.7,2.3,2.3,0,0,1-1.1.3,2.2,2.2,0,0,1-1.4-.5,1.7,1.7,0,0,1-.4-1.3,1.8,1.8,0,0,1,.6-1.3,3.6,3.6,0,0,1,1.9-.4h1.1v-.6a1.1,1.1,0,0,0-.3-.8,1.2,1.2,0,0,0-.9-.3,1.1,1.1,0,0,0-.8.3.6.6,0,0,0-.3.6h-1a1,1,0,0,1,.6-1.1,2.1,2.1,0,0,1,1.6-.5,2.2,2.2,0,0,1,1.6.5,1.7,1.7,0,0,1,.6,1.4v3.4c0,.2.1.4.1.6Zm-1.7-.8a1.7,1.7,0,0,0,1-.3,1.3,1.3,0,0,0,.6-.7v-.9h-1.2a1.7,1.7,0,0,0-1,.3,1.2,1.2,0,0,0-.4.8.9.9,0,0,0,.3.6Z"/><path d="M239.3,210.9h-1.1v-8.4h1.1Z"/><path d="M244.9,210.9h-1v-7.8h1Z"/><path d="M247.7,205.1v.8a1.6,1.6,0,0,1,.7-.7,1.6,1.6,0,0,1,1-.2,1.6,1.6,0,0,1,1.4.5,2.2,2.2,0,0,1,.5,1.7v3.7h-1v-3.7a1.8,1.8,0,0,0-.3-1.1,1.2,1.2,0,0,0-.9-.3l-.9.2a1,1,0,0,0-.5.6v4.3h-1.1v-5.8Z"/><path d="M257.9,208.2a3.2,3.2,0,0,1-.6,2,1.9,1.9,0,0,1-1.6.8l-1-.2-.7-.5v2.8h-1v-8h.8l.2.7a1.3,1.3,0,0,1,.7-.6,1.6,1.6,0,0,1,1-.2,1.7,1.7,0,0,1,1.6.8,3.9,3.9,0,0,1,.6,2.3Zm-1-.1a3.4,3.4,0,0,0-.4-1.6,1.3,1.3,0,0,0-1.2-.7l-.7.2-.6.6v2.8l.6.6.8.2a1.3,1.3,0,0,0,1.1-.6,2.9,2.9,0,0,0,.4-1.4Z"/><path d="M262.9,210a1.6,1.6,0,0,1-.7.7,1.7,1.7,0,0,1-1,.3,2,2,0,0,1-1.5-.6,3.1,3.1,0,0,1-.5-1.9v-3.4h1.1v3.4a3.5,3.5,0,0,0,.2,1.3,1.2,1.2,0,0,0,.9.3c.4,0,.7,0,.9-.2a1.2,1.2,0,0,0,.6-.6v-4.2h1v5.8H263Z"/><path d="M267,203.7v1.4h1.1v.8H267v3.5a1.1,1.1,0,0,0,.1.6h.9v.8h-.8a1.2,1.2,0,0,1-1-.4,1.6,1.6,0,0,1-.4-1.2v-3.5H265v-.8h.9v-1.4Z"/><path d="M131.9,225.3h-3.3v2.8h3.8v.8h-4.8v-7.8h4.7v.8h-3.7v2.5h3.3Z"/><path d="M134.5,223.1v.8a2.7,2.7,0,0,1,.8-.7,1.6,1.6,0,0,1,1-.2,1.6,1.6,0,0,1,1.4.5,2.2,2.2,0,0,1,.5,1.7v3.7h-1v-3.7a1.8,1.8,0,0,0-.3-1.1,1.3,1.3,0,0,0-1-.3l-.8.2a1,1,0,0,0-.5.6v4.3h-1.1v-5.8Z"/><path d="M141.7,227.2v.4h0v-.4l1.4-4.1h1l-2.1,5.8h-.8l-2.2-5.8h1.1Z"/><path d="M147.6,229a2.6,2.6,0,0,1-1.9-.8,2.8,2.8,0,0,1-.7-2.1v-.3a2.7,2.7,0,0,1,.7-2,2.2,2.2,0,0,1,1.8-.8,2.1,2.1,0,0,1,1.7.7,2.9,2.9,0,0,1,.6,1.9v.6h-3.7a2,2,0,0,0,.4,1.4,1.1,1.1,0,0,0,1.1.6l1-.2.7-.4.4.7-.8.5Zm-.1-5.2a1,1,0,0,0-.9.4,2.2,2.2,0,0,0-.5,1.1h2.6a1.8,1.8,0,0,0-.3-1.1A1,1,0,0,0,147.5,223.8Z"/><path d="M152.1,228.9h-1v-8.4h1Z"/><path d="M153.5,225.9a3.1,3.1,0,0,1,.7-2.1,2.7,2.7,0,0,1,3.8,0,3,3,0,0,1,.7,2.1h0a3.2,3.2,0,0,1-.7,2.2,2.4,2.4,0,0,1-1.9.8,2.6,2.6,0,0,1-1.9-.8,3.2,3.2,0,0,1-.7-2.2Zm1.1.1a2.5,2.5,0,0,0,.4,1.6,1.1,1.1,0,0,0,1.1.6,1.4,1.4,0,0,0,1.2-.6,3.4,3.4,0,0,0,.4-1.6h0a3.3,3.3,0,0,0-.4-1.5,1.4,1.4,0,0,0-1.2-.6,1.1,1.1,0,0,0-1.1.6,2.4,2.4,0,0,0-.4,1.5Z"/><path d="M165,226.2a3.2,3.2,0,0,1-.6,2,2.1,2.1,0,0,1-1.7.8l-.9-.2a1.8,1.8,0,0,1-.7-.5v2.8H160v-8h.8l.2.7a1.3,1.3,0,0,1,.7-.6,1.6,1.6,0,0,1,1-.2,1.9,1.9,0,0,1,1.7.8,3.9,3.9,0,0,1,.6,2.3Zm-1.1-.1a2.5,2.5,0,0,0-.4-1.6,1.1,1.1,0,0,0-1.1-.7l-.8.2-.5.6v2.8l.5.6.8.2a1.1,1.1,0,0,0,1.1-.6,2.1,2.1,0,0,0,.4-1.4Z"/><path d="M168.7,229a2.6,2.6,0,0,1-2-.8,2.8,2.8,0,0,1-.7-2.1v-.3a3.2,3.2,0,0,1,.7-2,2.2,2.2,0,0,1,1.8-.8,1.8,1.8,0,0,1,1.7.7,2.9,2.9,0,0,1,.6,1.9v.6h-3.7a2,2,0,0,0,.4,1.4,1.2,1.2,0,0,0,1.2.6l.9-.2.7-.4.4.7-.8.5Zm-.2-5.2a1,1,0,0,0-.9.4,2.2,2.2,0,0,0-.5,1.1h2.7a1.8,1.8,0,0,0-.3-1.1A1.2,1.2,0,0,0,168.5,223.8Z"/><path d="M180.5,226.4h0a2.7,2.7,0,0,1-.8,1.9,3.3,3.3,0,0,1-2.1.7,2.6,2.6,0,0,1-2.1-.9,3.6,3.6,0,0,1-.9-2.4v-1.4a3.2,3.2,0,0,1,.9-2.4,2.7,2.7,0,0,1,2.1-1,2.9,2.9,0,0,1,2.1.8,1.9,1.9,0,0,1,.8,1.8h-1a1.7,1.7,0,0,0-.5-1.3,1.9,1.9,0,0,0-2.8.2,3.5,3.5,0,0,0-.5,1.8v1.4a3.5,3.5,0,0,0,.5,1.8,1.9,1.9,0,0,0,1.4.7,2,2,0,0,0,1.4-.5,1.9,1.9,0,0,0,.5-1.3Z"/><path d="M182.9,221.6h-1.1v-1.1h1.1Zm0,7.3h-1.1v-5.8h1.1Z"/><path d="M187.2,224h-.5a.8.8,0,0,0-.7.2l-.5.5v4.2h-1v-5.8h.9v.8l.6-.7a1.5,1.5,0,0,1,.9-.2h.4Z"/><path d="M190.6,228.2a.9.9,0,0,0,.8-.4,1,1,0,0,0,.4-.8h.9a1.5,1.5,0,0,1-.6,1.3,2.2,2.2,0,0,1-1.5.6,2.3,2.3,0,0,1-1.9-.8,3.1,3.1,0,0,1-.7-2.1v-.2a3,3,0,0,1,.7-2.1,2.4,2.4,0,0,1,3.4-.2,1.4,1.4,0,0,1,.6,1.4h-.9a1,1,0,0,0-.4-.9.9.9,0,0,0-.8-.4,1.3,1.3,0,0,0-1.2.6,3.3,3.3,0,0,0-.3,1.5v.2a3.3,3.3,0,0,0,.3,1.5A1.2,1.2,0,0,0,190.6,228.2Z"/><path d="M197.7,228a1.6,1.6,0,0,1-.7.7,1.7,1.7,0,0,1-1,.3,2,2,0,0,1-1.5-.6,3.1,3.1,0,0,1-.5-1.9v-3.4h1v3.4a2.1,2.1,0,0,0,.3,1.3,1.2,1.2,0,0,0,.9.3,1.3,1.3,0,0,0,.9-.2c.2-.1.4-.4.6-.6v-4.2h1v5.8h-.9Z"/><path d="M201.4,221.6h-1.1v-1.1h1.1Zm0,7.3h-1.1v-5.8h1.1Z"/><path d="M204.5,221.7v1.4h1.1v.8h-1.1v3.5a1.1,1.1,0,0,0,.2.6h.8v.8h-.8a1.3,1.3,0,0,1-1-.4,2.1,2.1,0,0,1-.4-1.2v-3.5h-.9v-.8h.9v-1.4Z"/><path d="M215.1,221.9h-2.6v7h-1.1v-7h-2.5v-.8h6.2Z"/><path d="M217.9,229a2.4,2.4,0,0,1-1.9-.8,2.8,2.8,0,0,1-.7-2.1v-.3a2.7,2.7,0,0,1,.7-2,2.2,2.2,0,0,1,1.8-.8,2.1,2.1,0,0,1,1.7.7,2.9,2.9,0,0,1,.6,1.9v.6h-3.8a2.6,2.6,0,0,0,.4,1.4,1.4,1.4,0,0,0,1.2.6l1-.2.7-.4.4.7-.9.5Zm-.1-5.2a1.3,1.3,0,0,0-1,.4,2.1,2.1,0,0,0-.4,1.1H219a1.8,1.8,0,0,0-.3-1.1A1,1,0,0,0,217.8,223.8Z"/><path d="M224,224h-.5a.8.8,0,0,0-.7.2l-.5.5v4.2h-1v-5.8h.9v.8l.6-.7a1.3,1.3,0,0,1,.9-.2h.4Z"/><path d="M226.1,223.1v.7a2.4,2.4,0,0,1,.8-.6,2.6,2.6,0,0,1,2,0,1.6,1.6,0,0,1,.6.8,2.7,2.7,0,0,1,.7-.8l1.1-.2a1.8,1.8,0,0,1,1.4.6,3,3,0,0,1,.5,1.8v3.5h-1.1v-3.5a1.7,1.7,0,0,0-.3-1.2.8.8,0,0,0-.8-.4,1,1,0,0,0-.9.4,1.5,1.5,0,0,0-.4.9h0v3.7h-1.1v-3.5a1.9,1.9,0,0,0-.3-1.2.9.9,0,0,0-.8-.4l-.8.2a1,1,0,0,0-.5.6v4.3h-1.1v-5.8Z"/><path d="M235.9,221.6h-1.1v-1.1h1.1Zm0,7.3h-1.1v-5.8h1.1Z"/><path d="M238.5,223.1v.8a2.7,2.7,0,0,1,.8-.7,1.5,1.5,0,0,1,1-.2,1.6,1.6,0,0,1,1.4.5,2.6,2.6,0,0,1,.5,1.7v3.7h-1v-3.7a1.8,1.8,0,0,0-.3-1.1,1.5,1.5,0,0,0-1-.3l-.8.2a1,1,0,0,0-.5.6v4.3h-1.1v-5.8Z"/><path d="M247.3,228.9a.7.7,0,0,0-.1-.5V228a1.9,1.9,0,0,1-.8.7,1.7,1.7,0,0,1-1,.3,2.2,2.2,0,0,1-1.4-.5,1.7,1.7,0,0,1-.4-1.3,1.8,1.8,0,0,1,.6-1.3,3.6,3.6,0,0,1,1.9-.4h1.1v-.6a1.1,1.1,0,0,0-.3-.8,1.2,1.2,0,0,0-.9-.3,1.1,1.1,0,0,0-.8.3.6.6,0,0,0-.3.6h-1a1.1,1.1,0,0,1,.5-1.1,2.5,2.5,0,0,1,1.7-.5,2.2,2.2,0,0,1,1.6.5,1.7,1.7,0,0,1,.6,1.4v3.4c0,.2.1.4.1.6Zm-1.7-.8a1.7,1.7,0,0,0,1-.3,1.3,1.3,0,0,0,.6-.7v-.9H246a1.7,1.7,0,0,0-1,.3.9.9,0,0,0-.4.8.9.9,0,0,0,.3.6Z"/><path d="M251,228.9h-1.1v-8.4H251Z"/><path d="M260.2,228.9h-4.9v-.7l2.5-3,.9-1.2a4.4,4.4,0,0,0,.2-1,1.6,1.6,0,0,0-.3-.9,1.2,1.2,0,0,0-.9-.3,1.2,1.2,0,0,0-1,.4,1.4,1.4,0,0,0-.4,1.1h-1a2.5,2.5,0,0,1,.6-1.6,2.9,2.9,0,0,1,1.8-.7,2.4,2.4,0,0,1,1.7.6,2,2,0,0,1,.6,1.5,1.9,1.9,0,0,1-.4,1.2,7.7,7.7,0,0,1-1,1.5l-2,2.3h3.6Z"/><path d="M131.5,245.4h0l2.5-6.3h1.3v7.8h-1V241h-.1l-2.3,5.9h-.8l-2.4-6.1h-.1v6.1h-1v-7.8H129Z"/><path d="M136.8,243.9a3.1,3.1,0,0,1,.7-2.1,1.9,1.9,0,0,1,1.8-.8,2.3,2.3,0,0,1,2,.8,3.5,3.5,0,0,1,.7,2.1h0a3.8,3.8,0,0,1-.7,2.2,2.6,2.6,0,0,1-1.9.8,2.4,2.4,0,0,1-1.9-.8,3.2,3.2,0,0,1-.7-2.2Zm1,.1a2.5,2.5,0,0,0,.4,1.6,1.3,1.3,0,0,0,1.2.6,1.3,1.3,0,0,0,1.1-.6,2.5,2.5,0,0,0,.4-1.6h0a2.4,2.4,0,0,0-.4-1.5,1.3,1.3,0,0,0-1.2-.6,1.3,1.3,0,0,0-1.1.6,2.4,2.4,0,0,0-.4,1.5Z"/><path d="M143,244.1a3.9,3.9,0,0,1,.6-2.3,1.9,1.9,0,0,1,1.7-.8h.9l.7.6v-3.2h1v8.4h-.8v-.8a2.7,2.7,0,0,1-.8.7l-.9.2a2.1,2.1,0,0,1-1.7-.8,3.2,3.2,0,0,1-.6-2Zm1.1.1a2.6,2.6,0,0,0,.3,1.4,1.2,1.2,0,0,0,1.1.5c.4,0,.6,0,.8-.2s.4-.3.6-.6v-2.7l-.6-.6-.7-.2a1.3,1.3,0,0,0-1.2.6,4.3,4.3,0,0,0-.3,1.7Z"/><path d="M153.2,246a1.6,1.6,0,0,1-.7.7,1.7,1.7,0,0,1-1,.3,2,2,0,0,1-1.5-.6,3.1,3.1,0,0,1-.5-1.9v-3.4h1v3.4a2.1,2.1,0,0,0,.3,1.3,1.2,1.2,0,0,0,.9.3,1.3,1.3,0,0,0,.9-.2c.2-.1.4-.4.6-.6v-4.2h1v5.8h-.9Z"/><path d="M156.9,246.9h-1.1v-8.4h1.1Z"/><path d="M162.1,246.9a4.3,4.3,0,0,0-.1-.5V246a2.7,2.7,0,0,1-.8.7,1.7,1.7,0,0,1-1,.3,2,2,0,0,1-1.4-.5,1.7,1.7,0,0,1-.5-1.3,1.9,1.9,0,0,1,.7-1.3,3.4,3.4,0,0,1,1.8-.4H162v-.6a1.1,1.1,0,0,0-.3-.8,1.2,1.2,0,0,0-.9-.3,1,1,0,0,0-.8.3.5.5,0,0,0-.4.6h-1a1.4,1.4,0,0,1,.6-1.1,2.2,2.2,0,0,1,1.6-.5,2.1,2.1,0,0,1,1.6.5,1.7,1.7,0,0,1,.6,1.4v2.8c0,.2.1.4.1.6a1.3,1.3,0,0,0,.1.6Zm-1.8-.8a2,2,0,0,0,1.1-.3,1.3,1.3,0,0,0,.6-.7v-.9h-1.2a1.5,1.5,0,0,0-1,.3.9.9,0,0,0-.4.8,1.4,1.4,0,0,0,.2.6Z"/><path d="M166,239.7v1.4h1.1v.8H166v3.5a1.1,1.1,0,0,0,.2.6h.9v.8h-.8a1.2,1.2,0,0,1-1-.4,1.6,1.6,0,0,1-.4-1.2v-3.5h-.9v-.8h.9v-1.4Z"/><path d="M170.7,247a2.8,2.8,0,0,1-2-.8,3.3,3.3,0,0,1-.7-2.1v-.3a2.8,2.8,0,0,1,.8-2,1.9,1.9,0,0,1,1.7-.8,2.1,2.1,0,0,1,1.8.7,2.9,2.9,0,0,1,.6,1.9v.6h-3.8a2,2,0,0,0,.4,1.4,1.4,1.4,0,0,0,1.2.6l.9-.2.7-.4.4.7-.8.5Zm-.2-5.2a1.1,1.1,0,0,0-.9.4,2.1,2.1,0,0,0-.4,1.1h2.6a1.8,1.8,0,0,0-.3-1.1A1.1,1.1,0,0,0,170.5,241.8Z"/><path d="M173.8,244.1a3.9,3.9,0,0,1,.6-2.3,1.9,1.9,0,0,1,1.7-.8h.9l.7.6v-3.2h1v8.4h-.8l-.2-.8a1.6,1.6,0,0,1-.7.7l-.9.2a2.1,2.1,0,0,1-1.7-.8,3.2,3.2,0,0,1-.6-2Zm1.1.1a2.6,2.6,0,0,0,.3,1.4,1.2,1.2,0,0,0,1.1.5,1.1,1.1,0,0,0,.8-.2,1.7,1.7,0,0,0,.6-.6v-2.7l-.6-.6-.8-.2a1.3,1.3,0,0,0-1.1.6,4.3,4.3,0,0,0-.3,1.7Z"/><path d="M188.6,239.9h-2.5v7H185v-7h-2.5v-.8h6.1Z"/><path d="M188.8,243.9a3.8,3.8,0,0,1,.7-2.1,2.2,2.2,0,0,1,1.9-.8,2.1,2.1,0,0,1,1.9.8,3,3,0,0,1,.7,2.1h0a3.2,3.2,0,0,1-.7,2.2,2.4,2.4,0,0,1-1.9.8,2.6,2.6,0,0,1-1.9-.8,3.8,3.8,0,0,1-.7-2.2Zm1.1.1a2.5,2.5,0,0,0,.4,1.6,1.1,1.1,0,0,0,1.1.6,1.4,1.4,0,0,0,1.2-.6,3.4,3.4,0,0,0,.4-1.6h0a3.3,3.3,0,0,0-.4-1.5,1.4,1.4,0,0,0-1.2-.6,1.1,1.1,0,0,0-1.1.6,2.4,2.4,0,0,0-.4,1.5Z"/><path d="M196.3,241.1v.8a2.7,2.7,0,0,1,.8-.7,1.6,1.6,0,0,1,1-.2,1.6,1.6,0,0,1,1.4.5,2.2,2.2,0,0,1,.5,1.7v3.7h-1v-3.7a1.8,1.8,0,0,0-.3-1.1,1.2,1.2,0,0,0-.9-.3l-.9.2a1,1,0,0,0-.5.6v4.3h-1.1v-5.8Z"/><path d="M204,247a2.6,2.6,0,0,1-2-.8,3.3,3.3,0,0,1-.7-2.1v-.3a2.8,2.8,0,0,1,.8-2,1.9,1.9,0,0,1,1.7-.8,2.1,2.1,0,0,1,1.8.7,2.9,2.9,0,0,1,.5,1.9v.6h-3.7a2,2,0,0,0,.4,1.4,1.4,1.4,0,0,0,1.2.6l.9-.2.7-.4.4.7-.8.5Zm-.2-5.2a1,1,0,0,0-.9.4,2.1,2.1,0,0,0-.4,1.1h2.6a1.8,1.8,0,0,0-.3-1.1A1.1,1.1,0,0,0,203.8,241.8Z"/><path d="M214.4,244.9a1.2,1.2,0,0,0-.4-.9l-1.3-.6a4.2,4.2,0,0,1-1.9-.9,1.7,1.7,0,0,1-.7-1.4,2.1,2.1,0,0,1,.7-1.5,2.6,2.6,0,0,1,1.9-.7,3.2,3.2,0,0,1,2,.7,2.3,2.3,0,0,1,.7,1.7h-1a1.8,1.8,0,0,0-2.8-1.2,1.3,1.3,0,0,0-.4,1,.9.9,0,0,0,.4.8,2.6,2.6,0,0,0,1.4.6,3.8,3.8,0,0,1,1.8.9,2,2,0,0,1,.6,1.5,1.8,1.8,0,0,1-.7,1.5,2.9,2.9,0,0,1-1.9.6,3.2,3.2,0,0,1-2-.6,2.1,2.1,0,0,1-.9-1.7h1a1.4,1.4,0,0,0,.6,1.2,2.8,2.8,0,0,0,1.3.4,1.2,1.2,0,0,0,1.1-.4A1.1,1.1,0,0,0,214.4,244.9Z"/><path d="M217.9,239.6h-1v-1.1h1Zm0,7.3h-1v-5.8h1Z"/><path d="M219.4,244.1a3.9,3.9,0,0,1,.6-2.3,1.7,1.7,0,0,1,1.6-.8,1.6,1.6,0,0,1,1,.2,1.3,1.3,0,0,1,.7.6l.2-.7h.8v5.8a1.9,1.9,0,0,1-.7,1.7,2.4,2.4,0,0,1-1.8.6h-.9l-.9-.3.2-.8.7.2h.9a1.6,1.6,0,0,0,1.1-.3,1.8,1.8,0,0,0,.3-1.1v-.6l-.6.5-1,.2a1.9,1.9,0,0,1-1.6-.8,3.2,3.2,0,0,1-.6-2Zm1,.1a2.9,2.9,0,0,0,.4,1.4c.2.4.6.5,1.1.5a1.1,1.1,0,0,0,.8-.2,1,1,0,0,0,.5-.6v-2.7l-.5-.6-.8-.2a1.1,1.1,0,0,0-1.1.6,4.3,4.3,0,0,0-.4,1.7Z"/><path d="M226.8,241.1v.8a2.7,2.7,0,0,1,.8-.7,1.6,1.6,0,0,1,1-.2,1.6,1.6,0,0,1,1.4.5,2.2,2.2,0,0,1,.5,1.7v3.7h-1v-3.7a1.8,1.8,0,0,0-.3-1.1,1.3,1.3,0,0,0-1-.3l-.8.2a1,1,0,0,0-.5.6v4.3h-1.1v-5.8Z"/><path d="M235.6,246.9v-.5a.6.6,0,0,1-.1-.4,2.3,2.3,0,0,1-.7.7,2.3,2.3,0,0,1-1.1.3,2.2,2.2,0,0,1-1.4-.5,1.7,1.7,0,0,1-.4-1.3,1.8,1.8,0,0,1,.6-1.3,3.6,3.6,0,0,1,1.9-.4h1.1v-.6a1.1,1.1,0,0,0-.3-.8,1.2,1.2,0,0,0-.9-.3,1.1,1.1,0,0,0-.8.3.6.6,0,0,0-.3.6h-1a1,1,0,0,1,.6-1.1,2.1,2.1,0,0,1,1.6-.5,2.2,2.2,0,0,1,1.6.5,1.7,1.7,0,0,1,.6,1.4v3.4c0,.2.1.4.1.6Zm-1.7-.8a1.7,1.7,0,0,0,1-.3,1.3,1.3,0,0,0,.6-.7v-.9h-1.2a1.7,1.7,0,0,0-1,.3,1.2,1.2,0,0,0-.4.8.9.9,0,0,0,.3.6Z"/><path d="M239.3,246.9h-1.1v-8.4h1.1Z"/><path d="M249.7,243.7a3.6,3.6,0,0,1-.8,2.3,3,3,0,0,1-2.4,1,2.7,2.7,0,0,1-2.2-1,3.1,3.1,0,0,1-.8-2.3v-1.4a3.2,3.2,0,0,1,.8-2.4,3,3,0,0,1,2.2-1,3.3,3.3,0,0,1,2.4,1,3.6,3.6,0,0,1,.8,2.4Zm-1-1.4a2.6,2.6,0,0,0-.6-1.8,1.9,1.9,0,0,0-1.6-.7,1.5,1.5,0,0,0-1.4.7,2.6,2.6,0,0,0-.6,1.8v1.4a2.4,2.4,0,0,0,.6,1.7,1.5,1.5,0,0,0,1.4.7,1.9,1.9,0,0,0,1.6-.7,2.4,2.4,0,0,0,.6-1.7Z"/><path d="M254.8,246a1.6,1.6,0,0,1-.7.7,1.7,1.7,0,0,1-1,.3,2,2,0,0,1-1.5-.6,3.1,3.1,0,0,1-.5-1.9v-3.4h1.1v3.4c0,.6,0,1.1.2,1.3a1.2,1.2,0,0,0,.9.3c.4,0,.7,0,.9-.2s.4-.4.6-.6v-4.2h1v5.8h-.9Z"/><path d="M258.8,239.7v1.4h1.1v.8h-1.1v3.5a1.1,1.1,0,0,0,.2.6h.9v.8h-.8a1.2,1.2,0,0,1-1-.4,1.6,1.6,0,0,1-.4-1.2v-3.5h-.9v-.8h.9v-1.4Z"/><path d="M266,244.2a3.2,3.2,0,0,1-.6,2,1.9,1.9,0,0,1-1.6.8l-1-.2-.7-.5v2.8h-1v-8h.8l.2.7a1.1,1.1,0,0,1,.7-.6,1.5,1.5,0,0,1,1-.2,1.7,1.7,0,0,1,1.6.8,3.9,3.9,0,0,1,.6,2.3Zm-1-.1a3.4,3.4,0,0,0-.4-1.6,1.3,1.3,0,0,0-1.2-.7l-.7.2a3.4,3.4,0,0,0-.6.6v2.8a3.4,3.4,0,0,0,.6.6l.7.2a1.4,1.4,0,0,0,1.2-.6,2.9,2.9,0,0,0,.4-1.4Z"/><path d="M271,246a1.6,1.6,0,0,1-.7.7,1.7,1.7,0,0,1-1,.3,2,2,0,0,1-1.5-.6,3.1,3.1,0,0,1-.5-1.9v-3.4h1.1v3.4a3.5,3.5,0,0,0,.2,1.3,1.2,1.2,0,0,0,.9.3c.4,0,.7,0,.9-.2a1.2,1.2,0,0,0,.6-.6v-4.2h1v5.8h-.9Z"/><path d="M275.1,239.7v1.4h1.1v.8h-1.1v3.5a1.1,1.1,0,0,0,.1.6h.9v.8h-.8a1.2,1.2,0,0,1-1-.4,1.6,1.6,0,0,1-.4-1.2v-3.5h-.9v-.8h.9v-1.4Z"/><path d="M133.6,261.7a3.2,3.2,0,0,1-.9,2.3,3.1,3.1,0,0,1-4.6,0,3.6,3.6,0,0,1-.8-2.3v-1.4a3.6,3.6,0,0,1,.8-2.4,3.2,3.2,0,0,1,5.5,2.4Zm-1.1-1.4a2.6,2.6,0,0,0-.6-1.8,2,2,0,0,0-3,0,2.6,2.6,0,0,0-.6,1.8v1.4a2.4,2.4,0,0,0,.6,1.7,2,2,0,0,0,3,0,2.4,2.4,0,0,0,.6-1.7Z"/><path d="M138.6,264a1.2,1.2,0,0,1-.7.7,1.9,1.9,0,0,1-2.4-.3,2.5,2.5,0,0,1-.6-1.9v-3.4H136v3.4a2.1,2.1,0,0,0,.3,1.3c.1.2.4.3.8.3s.7,0,.9-.2a1.2,1.2,0,0,0,.6-.6v-4.2h1.1v5.8h-1Z"/><path d="M142.7,257.7v1.4h1.1v.8h-1.1v3.5a1.1,1.1,0,0,0,.1.6h.9v.8H143a1.2,1.2,0,0,1-1-.4,1.6,1.6,0,0,1-.4-1.2v-3.5h-.9v-.8h.9v-1.4Z"/><path d="M149.9,262.2a3.2,3.2,0,0,1-.6,2,2.1,2.1,0,0,1-1.7.8l-1-.2a1.5,1.5,0,0,1-.6-.5v2.8h-1.1v-8h.8l.2.7a1.3,1.3,0,0,1,.7-.6,1.6,1.6,0,0,1,1-.2,1.9,1.9,0,0,1,1.7.8,3.9,3.9,0,0,1,.6,2.3Zm-1.1-.1a2.5,2.5,0,0,0-.4-1.6,1.2,1.2,0,0,0-1.1-.7l-.8.2-.5.6v2.8l.5.6.8.2a1.1,1.1,0,0,0,1.1-.6,2.1,2.1,0,0,0,.4-1.4Z"/><path d="M154.8,264a1.2,1.2,0,0,1-.7.7,1.5,1.5,0,0,1-1,.3,1.7,1.7,0,0,1-1.4-.6,2.5,2.5,0,0,1-.6-1.9v-3.4h1.1v3.4a2.1,2.1,0,0,0,.3,1.3c.1.2.4.3.8.3a1.6,1.6,0,0,0,1-.2,1.5,1.5,0,0,0,.5-.6v-4.2h1.1v5.8h-1Z"/><path d="M158.9,257.7v1.4H160v.8h-1.1v3.5a1.1,1.1,0,0,0,.1.6h.9v.8h-.8a1.3,1.3,0,0,1-1-.4,1.6,1.6,0,0,1-.4-1.2v-3.5h-.9v-.8h.9v-1.4Z"/><path d="M164,264.9v-7.8h2.5a3,3,0,0,1,2,.5,2,2,0,0,1,.7,1.6,1.8,1.8,0,0,1-.4.9,2.8,2.8,0,0,1-.8.6,1.9,1.9,0,0,1,1.2.7,1.9,1.9,0,0,1,.5,1.3,2.2,2.2,0,0,1-.7,1.6,2.9,2.9,0,0,1-1.9.6Zm1-4.5h1.8a1.2,1.2,0,0,0,1.3-1.2,1.1,1.1,0,0,0-.4-1,2.1,2.1,0,0,0-1.2-.3H165Zm0,.8v2.9h2.1a1.8,1.8,0,0,0,1.1-.4,1.2,1.2,0,0,0,.4-1,1.4,1.4,0,0,0-.4-1.1,1.8,1.8,0,0,0-1.1-.4H165Z"/><path d="M174.5,264a1.6,1.6,0,0,1-.7.7,1.7,1.7,0,0,1-1,.3,2,2,0,0,1-1.5-.6,3.1,3.1,0,0,1-.5-1.9v-3.4h1.1v3.4a3.5,3.5,0,0,0,.2,1.3,1.2,1.2,0,0,0,.9.3c.4,0,.7,0,.9-.2a1.2,1.2,0,0,0,.6-.6v-4.2h1v5.8h-.9Z"/><path d="M177.5,264.9v-5h-.9v-.8h.9v-.8a1.7,1.7,0,0,1,1.9-1.9h.8l-.2.8h-.5a.8.8,0,0,0-.7.2,1.9,1.9,0,0,0-.2.8v.8h1v.8h-1v5Z"/><path d="M181.2,264.9v-5h-1v-.8h1v-.8a2,2,0,0,1,.4-1.4,2.2,2.2,0,0,1,1.4-.5h.8l-.2.8h-.5a.8.8,0,0,0-.7.2,1.9,1.9,0,0,0-.2.8v.8h1.1v.8h-1.1v5Z"/><path d="M186.6,265a2.4,2.4,0,0,1-1.9-.8,2.8,2.8,0,0,1-.7-2.1v-.3a2.7,2.7,0,0,1,.7-2,2,2,0,0,1,1.7-.8,2.1,2.1,0,0,1,1.8.7,2.9,2.9,0,0,1,.6,1.9v.6H185a2.6,2.6,0,0,0,.4,1.4,1.4,1.4,0,0,0,1.2.6l1-.2c.2-.1.5-.2.6-.4l.5.7-.9.5Zm-.2-5.2a1.2,1.2,0,0,0-.9.4,2.1,2.1,0,0,0-.4,1.1h2.6a1.8,1.8,0,0,0-.3-1.1A1.1,1.1,0,0,0,186.4,259.8Z"/><path d="M192.7,260h-.5a.8.8,0,0,0-.7.2,1.2,1.2,0,0,0-.5.5v4.2h-1v-5.8h.9v.8l.6-.7a1.3,1.3,0,0,1,.9-.2h.4Z"/><path d="M202.7,261.7a3.2,3.2,0,0,1-.9,2.3,3.1,3.1,0,0,1-4.6,0,3.6,3.6,0,0,1-.8-2.3v-1.4a3.6,3.6,0,0,1,.8-2.4,3.2,3.2,0,0,1,5.5,2.4Zm-1.1-1.4a2.6,2.6,0,0,0-.6-1.8,2,2,0,0,0-3,0,2.6,2.6,0,0,0-.6,1.8v1.4a2.4,2.4,0,0,0,.6,1.7,2,2,0,0,0,3,0,2.4,2.4,0,0,0,.6-1.7Z"/><path d="M207.7,264a1.6,1.6,0,0,1-.7.7,1.9,1.9,0,0,1-2.4-.3,2.5,2.5,0,0,1-.6-1.9v-3.4h1.1v3.4a2.1,2.1,0,0,0,.3,1.3c.1.2.4.3.8.3s.7,0,.9-.2a1.2,1.2,0,0,0,.6-.6v-4.2h1.1v5.8h-1Z"/><path d="M211.8,257.7v1.4h1.1v.8h-1.1v3.5a1.1,1.1,0,0,0,.1.6h.9v.8h-.8a1.2,1.2,0,0,1-1-.4,1.6,1.6,0,0,1-.4-1.2v-3.5h-.9v-.8h.9v-1.4Z"/><path d="M219,262.2a3.2,3.2,0,0,1-.6,2,2.1,2.1,0,0,1-1.7.8l-1-.2a1.5,1.5,0,0,1-.6-.5v2.8H214v-8h.8l.2.7a1.3,1.3,0,0,1,.7-.6,1.6,1.6,0,0,1,1-.2,1.9,1.9,0,0,1,1.7.8,3.9,3.9,0,0,1,.6,2.3Zm-1.1-.1a2.5,2.5,0,0,0-.4-1.6,1.2,1.2,0,0,0-1.1-.7l-.8.2-.5.6v2.8l.5.6.8.2a1.1,1.1,0,0,0,1.1-.6,2.1,2.1,0,0,0,.4-1.4Z"/><path d="M223.9,264a1.2,1.2,0,0,1-.7.7,1.5,1.5,0,0,1-1,.3,1.7,1.7,0,0,1-1.4-.6,2.5,2.5,0,0,1-.6-1.9v-3.4h1.1v3.4a2.1,2.1,0,0,0,.3,1.3c.1.2.4.3.8.3s.7,0,.9-.2a1.2,1.2,0,0,0,.6-.6v-4.2H225v5.8h-1Z"/><path d="M228,257.7v1.4h1.1v.8H228v3.5a1.1,1.1,0,0,0,.1.6h.9v.8h-.8a1.3,1.3,0,0,1-1-.4,1.6,1.6,0,0,1-.4-1.2v-3.5H226v-.8h.9v-1.4Z"/><path d="M235.3,260.4a1.3,1.3,0,0,0,1-.3,1.3,1.3,0,0,0-1-2.3,1.3,1.3,0,0,0-1,.4,1,1,0,0,0-.4.9h-1a2,2,0,0,1,.6-1.5,2.9,2.9,0,0,1,1.8-.7,2.4,2.4,0,0,1,1.7.6,2.1,2.1,0,0,1,.6,1.6,3,3,0,0,1-.2,1,2.2,2.2,0,0,1-.9.7,2.2,2.2,0,0,1,.9.7,1.7,1.7,0,0,1,.4,1.2,2.4,2.4,0,0,1-.7,1.7,2.8,2.8,0,0,1-1.8.6,2.5,2.5,0,0,1-1.7-.6,1.7,1.7,0,0,1-.8-1.6h1a1.4,1.4,0,0,0,.5,1,1.5,1.5,0,0,0,2,0,1.5,1.5,0,0,0,.4-1.1,1.1,1.1,0,0,0-1.4-1.4h-.9v-.9Z"/><path d="M128.6,282.1h3.9v.8h-4.9v-7.8h1Z"/><path d="M137.9,279.3h-3.2v2.8h3.8v.8h-4.9v-7.8h4.8v.8h-3.7v2.5h3.2Z"/><path d="M139.7,282.9v-7.8h2.5a3.2,3.2,0,0,1,2.4.9,3,3,0,0,1,1,2.4v1.1a3.4,3.4,0,0,1-3.4,3.4Zm1.1-7v6.2h1.4a2.1,2.1,0,0,0,1.7-.8,2.4,2.4,0,0,0,.6-1.8v-1.1a2.8,2.8,0,0,0-.6-1.8,2.1,2.1,0,0,0-1.7-.7Z"/><path d="M149.9,282.9v-7.8h2.5a3.1,3.1,0,0,1,3.3,3.3v1.1a3.2,3.2,0,0,1-.9,2.4,3,3,0,0,1-2.4,1Zm1-7v6.2h1.5a2.3,2.3,0,0,0,1.7-.8,2.4,2.4,0,0,0,.6-1.8v-1.1a2.8,2.8,0,0,0-.6-1.8,2.2,2.2,0,0,0-1.7-.7Z"/><path d="M159.9,278h-.5a.8.8,0,0,0-.7.2,1,1,0,0,0-.4.5v4.2h-1.1v-5.8h.9v.8a2.3,2.3,0,0,1,.7-.7,1.1,1.1,0,0,1,.8-.2h.4Z"/><path d="M162.2,275.6h-1.1v-1.1h1.1Zm0,7.3h-1.1v-5.8h1.1Z"/><path d="M165.8,281.2v.4h.1v-.4l1.3-4.1h1.1l-2.1,5.8h-.8l-2.2-5.8h1.1Z"/><path d="M171.7,283a2.8,2.8,0,0,1-2-.8,3.3,3.3,0,0,1-.7-2.1v-.3a2.8,2.8,0,0,1,.8-2,1.9,1.9,0,0,1,1.7-.8,2.1,2.1,0,0,1,1.8.7,2.9,2.9,0,0,1,.6,1.9v.6h-3.8a2,2,0,0,0,.4,1.4,1.4,1.4,0,0,0,1.2.6l.9-.2.7-.4.4.7-.8.5Zm-.2-5.2a1.1,1.1,0,0,0-.9.4,2.1,2.1,0,0,0-.4,1.1h2.6a1.8,1.8,0,0,0-.3-1.1A1.1,1.1,0,0,0,171.5,277.8Z"/><path d="M179,279.7v3.2h-1.1v-7.8h3a3.2,3.2,0,0,1,2,.6,2.7,2.7,0,0,1,0,3.4,3.2,3.2,0,0,1-2,.6Zm0-.8h1.9a1.6,1.6,0,0,0,1.2-.4,1.7,1.7,0,0,0,0-2.2,1.6,1.6,0,0,0-1.2-.4H179Z"/><path d="M185.9,275.6h-1v-1.1h1Zm0,7.3h-1v-5.8h1Z"/><path d="M188.5,277.1v.8a2.3,2.3,0,0,1,.7-.7,1.6,1.6,0,0,1,1-.2,1.6,1.6,0,0,1,1.4.5,2.2,2.2,0,0,1,.6,1.7v3.7h-1.1v-3.7a1.8,1.8,0,0,0-.3-1.1,1.2,1.2,0,0,0-.9-.3l-.9.2a1,1,0,0,0-.5.6v4.3h-1.1v-5.8Z"/><path d="M127.6,300.9v-7.8h2.5a3,3,0,0,1,2,.5,2,2,0,0,1,.7,1.6,1.8,1.8,0,0,1-.4.9,2.8,2.8,0,0,1-.8.6,1.9,1.9,0,0,1,1.2.7,1.9,1.9,0,0,1,.5,1.3,2.2,2.2,0,0,1-.7,1.6,2.9,2.9,0,0,1-1.9.6Zm1-4.5h1.8a1.2,1.2,0,0,0,1.3-1.2,1.1,1.1,0,0,0-.4-1,2.1,2.1,0,0,0-1.2-.3h-1.5Zm0,.8v2.9h2.1a1.8,1.8,0,0,0,1.1-.4,1.2,1.2,0,0,0,.4-1,1.4,1.4,0,0,0-.4-1.1,1.8,1.8,0,0,0-1.1-.4h-2.1Z"/><path d="M138.1,300a1.6,1.6,0,0,1-.7.7,1.7,1.7,0,0,1-1,.3,2,2,0,0,1-1.5-.6,3.1,3.1,0,0,1-.5-1.9v-3.4h1.1v3.4a3.5,3.5,0,0,0,.2,1.3,1.2,1.2,0,0,0,.9.3c.4,0,.7,0,.9-.2a1.2,1.2,0,0,0,.6-.6v-4.2h1v5.8h-.9Z"/><path d="M141.7,300.1H145v.8h-4.6v-.8l3.2-4.2h-3.1v-.8h4.4v.7Z"/><path d="M147.2,300.1h3.4v.8H146v-.8l3.1-4.2H146v-.8h4.4v.7Z"/><path d="M154.1,301a2.6,2.6,0,0,1-2-.8,3.3,3.3,0,0,1-.7-2.1v-.3a3.2,3.2,0,0,1,.7-2,2.2,2.2,0,0,1,1.8-.8,2.1,2.1,0,0,1,1.8.7,3.6,3.6,0,0,1,.5,1.9v.6h-3.7a2,2,0,0,0,.4,1.4,1.3,1.3,0,0,0,1.2.6l.9-.2.7-.4.4.7-.8.5Zm-.2-5.2a1,1,0,0,0-.9.4,3.7,3.7,0,0,0-.5,1.1h2.7a1.8,1.8,0,0,0-.3-1.1A1.2,1.2,0,0,0,153.9,295.8Z"/><path d="M160.2,296h-.6a1,1,0,0,0-.7.2,1,1,0,0,0-.4.5v4.2h-1.1v-5.8h1v.8a1.3,1.3,0,0,1,.6-.7,1.1,1.1,0,0,1,.8-.2h.4Z"/><path d="M164.2,300.9v-7.8h2.4a3.5,3.5,0,0,1,2.5.9,3.2,3.2,0,0,1,.9,2.4v1.1a3.2,3.2,0,0,1-.9,2.4,3.2,3.2,0,0,1-2.5,1Zm1-7v6.2h1.4a2.1,2.1,0,0,0,1.7-.8,2.5,2.5,0,0,0,.7-1.8v-1.1a2.9,2.9,0,0,0-.7-1.8,2.1,2.1,0,0,0-1.7-.7Z"/><path d="M174.2,296h-.5a.8.8,0,0,0-.7.2,1.2,1.2,0,0,0-.5.5v4.2h-1v-5.8h.9v.8l.6-.7a1.3,1.3,0,0,1,.9-.2h.4Z"/><path d="M176.5,293.6h-1.1v-1.1h1.1Zm0,7.3h-1.1v-5.8h1.1Z"/><path d="M180,299.2v.4h0l.2-.4,1.3-4.1h1.1l-2.2,5.8h-.8l-2.1-5.8h1Z"/><path d="M186,301a2.6,2.6,0,0,1-2-.8,2.8,2.8,0,0,1-.7-2.1v-.3a2.7,2.7,0,0,1,.7-2,2.2,2.2,0,0,1,1.8-.8,1.9,1.9,0,0,1,1.7.7,2.9,2.9,0,0,1,.6,1.9v.6h-3.7a2,2,0,0,0,.4,1.4,1.2,1.2,0,0,0,1.2.6l.9-.2.7-.4.4.7-.8.5Zm-.2-5.2a1,1,0,0,0-.9.4,2.2,2.2,0,0,0-.5,1.1h2.7a1.4,1.4,0,0,0-.4-1.1A1,1,0,0,0,185.8,295.8Z"/><path d="M193.2,297.7v3.2h-1v-7.8h3a2.7,2.7,0,0,1,1.9.6,2.4,2.4,0,0,1,0,3.4,2.7,2.7,0,0,1-1.9.6Zm0-.8h2a1.6,1.6,0,0,0,1.2-.4,1.7,1.7,0,0,0,0-2.2,1.6,1.6,0,0,0-1.2-.4h-2Z"/><path d="M200.2,293.6h-1.1v-1.1h1.1Zm0,7.3h-1.1v-5.8h1.1Z"/><path d="M202.7,295.1v.8a2.7,2.7,0,0,1,.8-.7,1.3,1.3,0,0,1,.9-.2,1.7,1.7,0,0,1,1.5.5,2.6,2.6,0,0,1,.5,1.7v3.7h-1v-3.7a1.8,1.8,0,0,0-.3-1.1,1.5,1.5,0,0,0-1-.3l-.8.2a1,1,0,0,0-.5.6v4.3h-1.1v-5.8Z"/></g></g></svg>