<svg xmlns="http://www.w3.org/2000/svg" viewBox="0 0 180 181.6"><defs><style>.cls-1{fill:#fff;}.cls-2{fill:none;stroke:#000;stroke-miterlimit:10;stroke-width:0.75px;}</style></defs><title>pinoutAsset 1</title><g id="Layer_2" data-name="Layer 2"><g id="Layer_1-2" data-name="Layer 1"><rect class="cls-1" width="180" height="181.59"/></g><g id="Layer_2-2" data-name="Layer 2"><polygon class="cls-2" points="54 19.2 126 19.2 126 59.7 126 181.2 54 181.2 54 19.2"/><rect class="cls-2" x="126" y="37.2" width="9" height="9"/><rect class="cls-2" x="126" y="55.2" width="9" height="9"/><rect class="cls-2" x="126" y="73.2" width="9" height="9"/><rect class="cls-2" x="126" y="91.2" width="9" height="9"/><rect class="cls-2" x="126" y="109.2" width="9" height="9"/><rect class="cls-2" x="126" y="127.2" width="9" height="9"/><rect class="cls-2" x="126" y="145.2" width="9" height="9"/><rect class="cls-2" x="126" y="163.2" width="9" height="9"/><rect class="cls-2" x="45" y="37.2" width="9" height="9"/><rect class="cls-2" x="45" y="55.2" width="9" height="9"/><rect class="cls-2" x="45" y="73.2" width="9" height="9"/><rect class="cls-2" x="45" y="91.2" width="9" height="9"/><rect class="cls-2" x="45" y="109.2" width="9" height="9"/><rect class="cls-2" x="45" y="127.2" width="9" height="9"/><rect class="cls-2" x="45" y="145.2" width="9" height="9"/><rect class="cls-2" x="45" y="163.2" width="9" height="9"/><path class="cls-2" d="M81,19.2a9,9,0,1,0,18,0"/><path d="M66.8,45.6h-1V38.8H64V38l2.8-.3Z"/><path d="M68.7,63.6H63.8v-.7l2.5-3a4.9,4.9,0,0,0,.8-1.2,1.7,1.7,0,0,0,.3-1,1.6,1.6,0,0,0-.3-.9,1.2,1.2,0,0,0-.9-.3,1.4,1.4,0,0,0-1.1.4,2,2,0,0,0-.3,1.1H63.7a2.1,2.1,0,0,1,.7-1.6,2.4,2.4,0,0,1,1.8-.6,2.5,2.5,0,0,1,1.6.5,2,2,0,0,1,.6,1.5,2.8,2.8,0,0,1-.3,1.3l-1,1.4-2,2.3h3.6Z"/><path d="M66.1,77.2a1.3,1.3,0,0,0,1-.4,1.5,1.5,0,0,0,.3-1,1.2,1.2,0,0,0-.3-.9,1.1,1.1,0,0,0-1-.4,1.3,1.3,0,0,0-1,.4,1.3,1.3,0,0,0-.4.9h-1a1.8,1.8,0,0,1,.7-1.5,2.4,2.4,0,0,1,1.7-.6,2.2,2.2,0,0,1,1.7.5,1.9,1.9,0,0,1,.7,1.6,1.7,1.7,0,0,1-.3,1,1.8,1.8,0,0,1-.8.7,1.8,1.8,0,0,1,.9.8,2,2,0,0,1,.3,1.1,2.1,2.1,0,0,1-.7,1.7,2.6,2.6,0,0,1-1.8.6,2.7,2.7,0,0,1-1.7-.6,1.9,1.9,0,0,1-.8-1.5h1.1a1.3,1.3,0,0,0,.4,1,1.2,1.2,0,0,0,1,.4,1.4,1.4,0,0,0,1.1-.4,2.2,2.2,0,0,0,0-2.2,1.6,1.6,0,0,0-1.1-.3h-.9v-.8Z"/><path d="M67.8,97h1.1v.8H67.8v1.8H66.7V97.8H63.4v-.6l3.3-5.4h1.1Zm-3.3,0h2.2V93.3h0v.3Z"/><path d="M63.9,114.1l.5-4.3h3.9v.9h-3L65,113a.9.9,0,0,1,.6-.3l.7-.2a2.4,2.4,0,0,1,1.7.7,3.3,3.3,0,0,1,0,3.8,2.4,2.4,0,0,1-1.9.7,2.8,2.8,0,0,1-1.6-.5,1.9,1.9,0,0,1-.7-1.6h1a1.1,1.1,0,0,0,.4,1,1,1,0,0,0,.9.4,1.4,1.4,0,0,0,1.1-.5,2.3,2.3,0,0,0,.3-1.3,2.1,2.1,0,0,0-.3-1.2,1.4,1.4,0,0,0-1.1-.5l-.9.2a2.1,2.1,0,0,0-.4.6Z"/><path d="M66.4,127.7h1l.7.2-.2.8-.7-.2h-.8a1.7,1.7,0,0,0-1.2.6,2.7,2.7,0,0,0-.4,1.6v.6l.8-.5.9-.2a1.9,1.9,0,0,1,1.6.7,2.4,2.4,0,0,1,.6,1.8,2.9,2.9,0,0,1-.6,1.9,2.4,2.4,0,0,1-1.8.7,2.5,2.5,0,0,1-1.8-.8,3.4,3.4,0,0,1-.8-2.3v-1.8a3.3,3.3,0,0,1,.8-2.2A2.5,2.5,0,0,1,66.4,127.7Zm-.2,3.7-.9.2-.5.6v.5a2.5,2.5,0,0,0,.4,1.6,1.4,1.4,0,0,0,1.1.6,1.2,1.2,0,0,0,1-.5,2.8,2.8,0,0,0,.4-1.3,2.1,2.1,0,0,0-.4-1.2A1.4,1.4,0,0,0,66.2,131.4Z"/><path d="M68.7,146.6a13.2,13.2,0,0,0-2,3.1,9.4,9.4,0,0,0-.5,3v.9H65.1v-.9a6.4,6.4,0,0,1,.7-3.1,10,10,0,0,1,1.9-3H63.5v-.8h5.2Z"/><path d="M68.4,165.8a2.3,2.3,0,0,1-.3,1.1,1.8,1.8,0,0,1-.9.6,2,2,0,0,1,1,.8,1.5,1.5,0,0,1,.4,1.1,1.9,1.9,0,0,1-.7,1.7,2.4,2.4,0,0,1-1.7.6,2.9,2.9,0,0,1-1.9-.6,2,2,0,0,1-.8-1.7,1.6,1.6,0,0,1,.5-1.1,1.9,1.9,0,0,1,1.1-.8,2.1,2.1,0,0,1-1-.6,2.3,2.3,0,0,1-.3-1.1,2.1,2.1,0,0,1,.6-1.6,2.5,2.5,0,0,1,1.7-.5,2.3,2.3,0,0,1,1.7.5A2.1,2.1,0,0,1,68.4,165.8Zm-.8,3.6a1.8,1.8,0,0,0-.4-1,1.4,1.4,0,0,0-1.1-.4,1.5,1.5,0,0,0-1.1.4,1.8,1.8,0,0,0-.4,1,1.8,1.8,0,0,0,.4,1.1,1.6,1.6,0,0,0,1.2.4,1.3,1.3,0,0,0,1-.4A1.4,1.4,0,0,0,67.6,169.4Zm-.2-3.6a1.3,1.3,0,0,0-.4-.9,1,1,0,0,0-.9-.4,1.4,1.4,0,0,0-.9.3,1.3,1.3,0,0,0-.4,1,1.8,1.8,0,0,0,.4,1,1.7,1.7,0,0,0,1,.3,1.1,1.1,0,0,0,.8-.3A1.3,1.3,0,0,0,67.4,165.8Z"/><path d="M108.4,45.6h-1V38.8h-1.7V38l2.7-.3Z"/><path d="M114.3,37.7h.9l.7.2-.2.8-.7-.2h-.7a1.4,1.4,0,0,0-1.2.6,2.2,2.2,0,0,0-.5,1.6v.6l.8-.5.9-.2a1.9,1.9,0,0,1,1.6.7,2.4,2.4,0,0,1,.6,1.8,2.9,2.9,0,0,1-.6,1.9,2.4,2.4,0,0,1-1.8.7,2.5,2.5,0,0,1-1.8-.8,3.4,3.4,0,0,1-.8-2.3V40.8a3.3,3.3,0,0,1,.8-2.2A2.5,2.5,0,0,1,114.3,37.7Zm-.3,3.7-.9.2-.5.6v.5a2.5,2.5,0,0,0,.4,1.6,1.4,1.4,0,0,0,1.1.6,1.2,1.2,0,0,0,1-.5,2.8,2.8,0,0,0,.4-1.3,2.1,2.1,0,0,0-.4-1.2A1.4,1.4,0,0,0,114,41.4Z"/><path d="M108.4,63.6h-1V56.8h-1.7V56l2.7-.3Z"/><path d="M111.7,60.1l.5-4.3h3.9v.9h-3l-.3,2.3a.9.9,0,0,1,.6-.3l.7-.2a2.4,2.4,0,0,1,1.7.7,3.3,3.3,0,0,1,0,3.8,2.4,2.4,0,0,1-1.9.7,2.8,2.8,0,0,1-1.6-.5,1.6,1.6,0,0,1-.6-1.6h.9a1.1,1.1,0,0,0,.4,1,1,1,0,0,0,.9.4,1.4,1.4,0,0,0,1.1-.5,2.2,2.2,0,0,0,.4-1.3,2.1,2.1,0,0,0-.4-1.2,1.4,1.4,0,0,0-1.1-.5l-.9.2-.4.6Z"/><path d="M108.4,81.6h-1V74.8h-1.7V74l2.7-.3Z"/><path d="M115.6,79h1.1v.8h-1.1v1.8h-1V79.8h-3.4v-.6l3.3-5.4h1.1Zm-3.3,0h2.3V75.3h-.1v.3Z"/><path d="M108.4,99.6h-1V92.8h-1.7V92l2.7-.3Z"/><path d="M113.9,95.2a1.3,1.3,0,0,0,1-.4,1.5,1.5,0,0,0,.3-1,1.2,1.2,0,0,0-.3-.9,1.1,1.1,0,0,0-1-.4,1.3,1.3,0,0,0-1,.4,1.3,1.3,0,0,0-.4.9h-1a1.8,1.8,0,0,1,.7-1.5,2.4,2.4,0,0,1,1.7-.6,2.6,2.6,0,0,1,1.8.5,2.1,2.1,0,0,1,.6,1.6,1.7,1.7,0,0,1-.3,1,1.8,1.8,0,0,1-.8.7,1.8,1.8,0,0,1,.9.8,2,2,0,0,1,.3,1.1,2.1,2.1,0,0,1-.7,1.7,2.4,2.4,0,0,1-1.8.6,2.7,2.7,0,0,1-1.7-.6,1.6,1.6,0,0,1-.7-1.5h1a1.4,1.4,0,0,0,1.4,1.4,1.4,1.4,0,0,0,1.1-.4,2.2,2.2,0,0,0,0-2.2,1.6,1.6,0,0,0-1.1-.3H113v-.8Z"/><path d="M108.4,117.6h-1v-6.8h-1.7V110l2.7-.3Z"/><path d="M116.5,117.6h-4.9v-.7l2.5-3,.9-1.2a3,3,0,0,0,.2-1,1.6,1.6,0,0,0-.3-.9,1.2,1.2,0,0,0-.9-.3,1.4,1.4,0,0,0-1.1.4,2,2,0,0,0-.3,1.1h-1.1a2.1,2.1,0,0,1,.7-1.6,2.4,2.4,0,0,1,1.8-.6,2.5,2.5,0,0,1,1.6.5,2,2,0,0,1,.6,1.5,2.8,2.8,0,0,1-.3,1.3l-1,1.4-2,2.3h3.6Z"/><path d="M108.4,135.6h-1v-6.8h-1.7V128l2.7-.3Z"/><path d="M114.6,135.6h-1v-6.8h-1.7V128l2.7-.3Z"/><path d="M108.4,153.6h-1v-6.8h-1.7V146l2.7-.3Z"/><path d="M116.4,150.8a2.8,2.8,0,0,1-.7,2.1,1.9,1.9,0,0,1-1.8.8,2.1,2.1,0,0,1-1.8-.8,2.8,2.8,0,0,1-.7-2.1v-2.3a3.1,3.1,0,0,1,.7-2.1,2.7,2.7,0,0,1,3.6,0,3.1,3.1,0,0,1,.7,2.1Zm-1.1-2.5a2.5,2.5,0,0,0-.3-1.3,1.5,1.5,0,0,0-2.2,0,2.5,2.5,0,0,0-.3,1.3v2.8a1.8,1.8,0,0,0,.4,1.3,1.2,1.2,0,0,0,1,.5,1.4,1.4,0,0,0,1.1-.5,2.5,2.5,0,0,0,.3-1.3Z"/><path d="M113.5,170.9a1.7,1.7,0,0,0,1.2-.5,2.5,2.5,0,0,0,.5-1.5v-.7l-.6.6-.9.2a2.9,2.9,0,0,1-1.8-.7,3,3,0,0,1-.6-2,2.6,2.6,0,0,1,.7-1.9,2.1,2.1,0,0,1,1.7-.7,2.5,2.5,0,0,1,1.9.7,3.3,3.3,0,0,1,.7,2.1v2.4a2.9,2.9,0,0,1-.8,2.1,2.7,2.7,0,0,1-2,.7h-.8l-.9-.2.2-.8.7.2Zm.2-2.8c.4,0,.7,0,.9-.2a1.3,1.3,0,0,0,.6-.7v-.9a1.7,1.7,0,0,0-.4-1.3,1.4,1.4,0,0,0-1.1-.5,1.4,1.4,0,0,0-1,.5,2.8,2.8,0,0,0-.3,1.3,2.3,2.3,0,0,0,.3,1.3A1.1,1.1,0,0,0,113.7,168.1Z"/><path d="M144.9,45.6V37.8h2.6a3.6,3.6,0,0,1,1.9.5,2.2,2.2,0,0,1,.7,1.6,1.6,1.6,0,0,1-.3.9,1.5,1.5,0,0,1-.9.6,2.1,2.1,0,0,1,1.3.7,1.8,1.8,0,0,1,.4,1.3,1.8,1.8,0,0,1-.7,1.6,2.9,2.9,0,0,1-1.9.6Zm1.1-4.5h1.7a1.2,1.2,0,0,0,.9-.3,1,1,0,0,0,.4-.9,1.1,1.1,0,0,0-.4-1,1.8,1.8,0,0,0-1.1-.3H146Zm0,.8v2.9h2a1.2,1.2,0,0,0,1.1-.4,1.4,1.4,0,0,0,0-2,1.3,1.3,0,0,0-1.1-.5h-2Z"/><path d="M152.7,44.8h4.4v.8h-5.6v-.8l4.2-6.2h-4.1v-.8h5.3v.7Z"/><path d="M146,62.8h3.8v.8h-4.9V55.8H146Z"/><path d="M155.2,60H152v2.8h3.8v.8H151V55.8h4.7v.8H152v2.5h3.2Z"/><path d="M157,63.6V55.8h2.5a3.7,3.7,0,0,1,2.5.9,3.5,3.5,0,0,1,.9,2.5v1a3.1,3.1,0,0,1-3.4,3.4Zm1.1-7v6.2h1.4a2.4,2.4,0,0,0,1.7-.7,2.9,2.9,0,0,0,.6-1.9V59.1a2.8,2.8,0,0,0-.6-1.8,2.1,2.1,0,0,0-1.7-.7Z"/><path d="M150.9,78.4a3.6,3.6,0,0,1-.9,2.4,3.2,3.2,0,0,1-2.3.9,2.8,2.8,0,0,1-2.2-.9,3.6,3.6,0,0,1-.9-2.4V77a3.2,3.2,0,0,1,.9-2.4,2.8,2.8,0,0,1,2.2-.9,3.2,3.2,0,0,1,2.3.9,3.2,3.2,0,0,1,.9,2.4ZM149.8,77a2.8,2.8,0,0,0-.6-1.8,2,2,0,0,0-1.5-.7,2.1,2.1,0,0,0-1.5.7,2.7,2.7,0,0,0-.5,1.8v1.4a2.7,2.7,0,0,0,.5,1.8,2,2,0,0,0,1.5.6,2.3,2.3,0,0,0,1.6-.6,3.5,3.5,0,0,0,.5-1.8Z"/><path d="M158.2,73.8V79a2.5,2.5,0,0,1-.9,2,2.9,2.9,0,0,1-5-2V73.8h1V79a1.8,1.8,0,0,0,.6,1.4,1.7,1.7,0,0,0,1.3.5,1.7,1.7,0,0,0,1.9-1.9V73.8Z"/><path d="M165.3,74.6h-2.6v7h-1v-7h-2.6v-.8h6.2Z"/><path d="M150.5,97.1h0a2.2,2.2,0,0,1-.8,1.9,2.8,2.8,0,0,1-2.1.7,2.6,2.6,0,0,1-2.1-.9,3.6,3.6,0,0,1-.9-2.4V95a3.2,3.2,0,0,1,.9-2.4,2.6,2.6,0,0,1,2.1-.9,2.8,2.8,0,0,1,2.1.7,2.1,2.1,0,0,1,.8,1.8h-1A1.7,1.7,0,0,0,149,93a2,2,0,0,0-1.4-.5,1.6,1.6,0,0,0-1.4.7,3.5,3.5,0,0,0-.5,1.8v1.4a3.5,3.5,0,0,0,.5,1.8,1.9,1.9,0,0,0,1.4.7,2,2,0,0,0,1.4-.5,1.7,1.7,0,0,0,.5-1.3Z"/><path d="M154.8,99.6h-1.1V92.8H152V92l2.8-.3Z"/><path d="M149.2,114H146v2.8h3.7v.8h-4.8v-7.8h4.8v.8H146v2.5h3.2Z"/><path d="M156.9,117.6h-1.1l-3.7-6H152v6h-1v-7.8h1l3.8,5.9h0v-5.9h1.1Z"/><path d="M161.1,115.5l.2.7h0l.2-.7,2-5.7h1.2l-3,7.8h-.9l-2.9-7.8h1.2Z"/><path d="M170.4,117.6h-4.8v-.7l2.4-3a3.6,3.6,0,0,0,.9-1.2,1.7,1.7,0,0,0,.3-1,1.8,1.8,0,0,0-.4-.9,1.1,1.1,0,0,0-.8-.3,1.2,1.2,0,0,0-1.1.4,2.1,2.1,0,0,0-.4,1.1h-1a2.1,2.1,0,0,1,.7-1.6,2.4,2.4,0,0,1,1.8-.6,2.5,2.5,0,0,1,1.6.5,2,2,0,0,1,.6,1.5,2.8,2.8,0,0,1-.3,1.3l-1.1,1.4-1.9,2.3h3.5Z"/><path d="M148.8,134.1h0l2.5-6.3h1.3v7.8h-1v-5.9h-.1l-2.3,5.9h-.8l-2.4-6.1h0v6.1h-1.1v-7.8h1.4Z"/><path d="M159.8,128.6h-2.6v7h-1.1v-7h-2.5v-.8h6.2Z"/><path d="M166.7,132.4a3.6,3.6,0,0,1-.9,2.4,3,3,0,0,1-2.3.9,2.9,2.9,0,0,1-2.2-.9,3.6,3.6,0,0,1-.9-2.4V131a3.2,3.2,0,0,1,.9-2.4,2.9,2.9,0,0,1,2.2-.9,3,3,0,0,1,2.3.9,3.2,3.2,0,0,1,.9,2.4Zm-1-1.4a2.8,2.8,0,0,0-.6-1.8,2.2,2.2,0,0,0-1.6-.7,2.1,2.1,0,0,0-1.5.7,3.5,3.5,0,0,0-.5,1.8v1.4a3.5,3.5,0,0,0,.5,1.8,2,2,0,0,0,1.5.6,2.1,2.1,0,0,0,1.6-.6,2.8,2.8,0,0,0,.6-1.8Z"/><path d="M150.4,146.6h-2.6v7h-1.1v-7h-2.5v-.8h6.2Z"/><path d="M152.6,150.2v3.4h-1.1v-7.8h2.7a2.7,2.7,0,0,1,1.9.6,1.8,1.8,0,0,1,.7,1.6,2,2,0,0,1-.3,1.1,2.2,2.2,0,0,1-.9.7,1.5,1.5,0,0,1,.9.6,2.4,2.4,0,0,1,.3,1.2v.7a1.5,1.5,0,0,0,.1.7c0,.2.1.3.2.5h-1a.5.5,0,0,1-.3-.5,2.2,2.2,0,0,1-.1-.8v-.7a1.7,1.7,0,0,0-.3-1,1.3,1.3,0,0,0-1-.4Zm0-.8h1.5a1.7,1.7,0,0,0,1.3-.4,1.3,1.3,0,0,0,.3-1,1.5,1.5,0,0,0-.3-1,1.6,1.6,0,0,0-1.2-.4h-1.6Z"/><path d="M159.7,153.6h-1.1v-7.8h1.1Z"/><path d="M161.6,153.6v-7.8h2.6a3.6,3.6,0,0,1,1.9.5,2.2,2.2,0,0,1,.7,1.6,1.6,1.6,0,0,1-.3.9,1.8,1.8,0,0,1-.9.6,1.9,1.9,0,0,1,1.2.7,1.9,1.9,0,0,1,.5,1.3,1.8,1.8,0,0,1-.7,1.6,2.9,2.9,0,0,1-1.9.6Zm1.1-4.5h1.7a1.2,1.2,0,0,0,.9-.3,1,1,0,0,0,.4-.9,1.1,1.1,0,0,0-.4-1,1.8,1.8,0,0,0-1.1-.3h-1.5Zm0,.8v2.9h2a1.2,1.2,0,0,0,1.1-.4,1.5,1.5,0,0,0,0-2,1.4,1.4,0,0,0-1.1-.5h-2Z"/><path d="M150.4,164.6h-2.6v7h-1.1v-7h-2.5v-.8h6.2Z"/><path d="M155.8,168h-3.2v2.8h3.7v.8h-4.8v-7.8h4.8v.8h-3.7v2.5h3.2Z"/><path d="M161.7,169.6a1.2,1.2,0,0,0-.4-.9,4,4,0,0,0-1.3-.6,6.8,6.8,0,0,1-1.9-.8,2,2,0,0,1-.6-1.5,1.8,1.8,0,0,1,.7-1.5,2.9,2.9,0,0,1,1.9-.6,2.5,2.5,0,0,1,1.9.7,1.7,1.7,0,0,1,.7,1.6h-1a1.5,1.5,0,0,0-.4-1.1,1.9,1.9,0,0,0-1.2-.4,1.6,1.6,0,0,0-1.2.4,1.3,1.3,0,0,0-.4.9,1,1,0,0,0,.5.8,2.3,2.3,0,0,0,1.4.6,3.8,3.8,0,0,1,1.8.9,2,2,0,0,1,.6,1.5,1.8,1.8,0,0,1-.8,1.5,2.9,2.9,0,0,1-1.9.6,3.4,3.4,0,0,1-2-.6,1.7,1.7,0,0,1-.8-1.7h1a1.7,1.7,0,0,0,.5,1.2,2,2,0,0,0,1.3.4,1.6,1.6,0,0,0,1.2-.4A1,1,0,0,0,161.7,169.6Z"/><path d="M169.8,164.6h-2.6v7h-1.1v-7h-2.5v-.8h6.2Z"/><path d="M170.9,171.6v-7.8h2.5a3.3,3.3,0,0,1,1.9.5,1.9,1.9,0,0,1,.7,1.6,1.6,1.6,0,0,1-.3.9,1.6,1.6,0,0,1-.8.6,1.9,1.9,0,0,1,1.2.7,1.9,1.9,0,0,1,.5,1.3,2,2,0,0,1-.7,1.6,2.9,2.9,0,0,1-1.9.6Zm1-4.5h1.7a1.5,1.5,0,0,0,1-.3,1.3,1.3,0,0,0,.4-.9,1.3,1.3,0,0,0-.4-1,2.1,2.1,0,0,0-1.2-.3h-1.5Zm0,.8v2.9H174a1.5,1.5,0,0,0,1.1-.4,1.4,1.4,0,0,0,0-2,1.6,1.6,0,0,0-1.1-.5h-2.1Z"/><path d="M29.3,43.1h0a2.2,2.2,0,0,1-.7,1.9,3.1,3.1,0,0,1-2.1.7,2.9,2.9,0,0,1-2.2-.9,4.1,4.1,0,0,1-.8-2.4V41a3.6,3.6,0,0,1,.8-2.4,2.9,2.9,0,0,1,2.2-.9,2.8,2.8,0,0,1,2.1.7,2,2,0,0,1,.7,1.8h-1a1.4,1.4,0,0,0-.5-1.3,1.7,1.7,0,0,0-1.3-.5,1.5,1.5,0,0,0-1.4.7,2.8,2.8,0,0,0-.6,1.8v1.4a2.8,2.8,0,0,0,.6,1.8,1.7,1.7,0,0,0,1.4.7,1.7,1.7,0,0,0,1.3-.5,1.4,1.4,0,0,0,.5-1.3Z"/><path d="M35.5,45.6H30.6v-.7l2.5-3,.9-1.2a3,3,0,0,0,.2-1,1.6,1.6,0,0,0-.3-.9,1.2,1.2,0,0,0-.9-.3,1.4,1.4,0,0,0-1.1.4,2,2,0,0,0-.3,1.1H30.5a2.1,2.1,0,0,1,.7-1.6,2.4,2.4,0,0,1,1.8-.6,2.5,2.5,0,0,1,1.6.5,2,2,0,0,1,.6,1.5,2.8,2.8,0,0,1-.3,1.3l-1,1.4-2,2.3h3.6Z"/><path d="M14.2,60H11v2.8h3.8v.8H10V55.8h4.7v.8H11v2.5h3.2Z"/><path d="M21.9,63.6h-1l-3.8-6h0v6H16V55.8h1.1l3.7,5.9h.1V55.8h1Z"/><path d="M26.1,61.5l.2.7h0l.2-.7,2-5.7h1.2l-2.9,7.8h-.9L23,55.8h1.1Z"/><path d="M33.6,63.6h-1V56.8H30.9V56l2.7-.3Z"/><path d="M17.4,79.5l.2.7h0l.2-.7,2-5.7H21l-2.9,7.8h-.9l-2.9-7.8h1.1Z"/><path d="M22,81.6V73.8h2.5a3.2,3.2,0,0,1,2.4.9,3.2,3.2,0,0,1,1,2.5v1a3.3,3.3,0,0,1-1,2.5,3.2,3.2,0,0,1-2.4.9Zm1.1-7v6.2h1.4a2.4,2.4,0,0,0,1.7-.7,2.9,2.9,0,0,0,.6-1.9V77.1a2.8,2.8,0,0,0-.6-1.8,2.1,2.1,0,0,0-1.7-.7Z"/><path d="M29.5,81.6V73.8h2.4a3.1,3.1,0,0,1,3.4,3.4v1a3.7,3.7,0,0,1-.9,2.5,3.5,3.5,0,0,1-2.5.9Zm1-7v6.2h1.4a2.4,2.4,0,0,0,1.7-.7,2.5,2.5,0,0,0,.7-1.9V77.1a2.4,2.4,0,0,0-.7-1.8,2.1,2.1,0,0,0-1.7-.7Z"/><path d="M18.6,96.4a3.6,3.6,0,0,1-.9,2.4,3.2,3.2,0,0,1-2.3.9,2.8,2.8,0,0,1-2.2-.9,3.6,3.6,0,0,1-.9-2.4V95a3.2,3.2,0,0,1,.9-2.4,2.8,2.8,0,0,1,2.2-.9,3.2,3.2,0,0,1,2.3.9,3.2,3.2,0,0,1,.9,2.4ZM17.5,95a2.8,2.8,0,0,0-.6-1.8,2,2,0,0,0-1.5-.7,2.1,2.1,0,0,0-1.5.7,2.7,2.7,0,0,0-.5,1.8v1.4a2.7,2.7,0,0,0,.5,1.8,2,2,0,0,0,1.5.6,2.3,2.3,0,0,0,1.6-.6,3.5,3.5,0,0,0,.5-1.8Z"/><path d="M24.3,97.6a1.2,1.2,0,0,0-.4-.9l-1.3-.6a5.7,5.7,0,0,1-1.9-.8,1.8,1.8,0,0,1-.7-1.5,2.1,2.1,0,0,1,.7-1.5,2.9,2.9,0,0,1,1.9-.6,2.7,2.7,0,0,1,2,.7,2,2,0,0,1,.7,1.6h-1a1.5,1.5,0,0,0-1.7-1.5,1.2,1.2,0,0,0-1.1.4,1,1,0,0,0-.4.9.9.9,0,0,0,.4.8,2.6,2.6,0,0,0,1.4.6,3.8,3.8,0,0,1,1.8.9,2,2,0,0,1,.6,1.5,1.7,1.7,0,0,1-.7,1.5,2.9,2.9,0,0,1-1.9.6,3.2,3.2,0,0,1-2-.6,2,2,0,0,1-.9-1.7h1a1.4,1.4,0,0,0,.6,1.2,2,2,0,0,0,1.3.4,1.2,1.2,0,0,0,1.1-.4A1.1,1.1,0,0,0,24.3,97.6Z"/><path d="M32.4,97.1h0a2.5,2.5,0,0,1-.7,1.9,3.1,3.1,0,0,1-2.1.7,2.8,2.8,0,0,1-2.2-.9,3.5,3.5,0,0,1-.8-2.4V95a3.2,3.2,0,0,1,.8-2.4,2.8,2.8,0,0,1,2.2-.9,3.1,3.1,0,0,1,2.1.7,2.3,2.3,0,0,1,.7,1.8h-1a1.7,1.7,0,0,0-.5-1.3,1.9,1.9,0,0,0-1.3-.5,1.8,1.8,0,0,0-1.5.7,3.5,3.5,0,0,0-.5,1.8v1.4a3.5,3.5,0,0,0,.5,1.8,2.1,2.1,0,0,0,1.5.7,1.9,1.9,0,0,0,1.3-.5,1.7,1.7,0,0,0,.5-1.3Z"/><path d="M35,99.6H33.9V91.8H35Z"/><path d="M15.5,114.4a3.6,3.6,0,0,1-.9,2.4,3,3,0,0,1-2.3.9,2.9,2.9,0,0,1-2.2-.9,3.6,3.6,0,0,1-.9-2.4V113a3.2,3.2,0,0,1,.9-2.4,2.9,2.9,0,0,1,2.2-.9,3,3,0,0,1,2.3.9,3.2,3.2,0,0,1,.9,2.4ZM14.4,113a2.7,2.7,0,0,0-.5-1.8,2.2,2.2,0,0,0-1.6-.7,2.1,2.1,0,0,0-1.5.7,3.5,3.5,0,0,0-.5,1.8v1.4a3.5,3.5,0,0,0,.5,1.8,2,2,0,0,0,1.5.6,2.1,2.1,0,0,0,1.6-.6,2.7,2.7,0,0,0,.5-1.8Z"/><path d="M21.2,115.6a1.2,1.2,0,0,0-.4-.9,4,4,0,0,0-1.3-.6,6.8,6.8,0,0,1-1.9-.8,2.1,2.1,0,0,1-.7-1.5,1.9,1.9,0,0,1,.8-1.5,2.6,2.6,0,0,1,1.8-.6,2.6,2.6,0,0,1,2,.7,2,2,0,0,1,.7,1.6h-1a1.5,1.5,0,0,0-1.7-1.5,1.4,1.4,0,0,0-1.1.4,1,1,0,0,0-.4.9.9.9,0,0,0,.4.8,2.6,2.6,0,0,0,1.4.6,3.8,3.8,0,0,1,1.8.9,2.1,2.1,0,0,1,.7,1.5,1.8,1.8,0,0,1-.8,1.5,2.9,2.9,0,0,1-1.9.6,3.2,3.2,0,0,1-2-.6,2,2,0,0,1-.9-1.7h1a1.4,1.4,0,0,0,.6,1.2,2,2,0,0,0,1.3.4,1.6,1.6,0,0,0,1.2-.4A1,1,0,0,0,21.2,115.6Z"/><path d="M29.3,115.1h0a2.2,2.2,0,0,1-.7,1.9,3.1,3.1,0,0,1-2.1.7,2.9,2.9,0,0,1-2.2-.9,4.1,4.1,0,0,1-.8-2.4V113a3.6,3.6,0,0,1,.8-2.4,2.9,2.9,0,0,1,2.2-.9,2.8,2.8,0,0,1,2.1.7,2,2,0,0,1,.7,1.8h-1a1.4,1.4,0,0,0-.5-1.3,1.7,1.7,0,0,0-1.3-.5,1.5,1.5,0,0,0-1.4.7,2.8,2.8,0,0,0-.6,1.8v1.4a2.8,2.8,0,0,0,.6,1.8,1.7,1.7,0,0,0,1.4.7,1.7,1.7,0,0,0,1.3-.5,1.4,1.4,0,0,0,.5-1.3Z"/><path d="M35.4,114.8a2.8,2.8,0,0,1-.7,2.1,1.9,1.9,0,0,1-1.8.8,2.1,2.1,0,0,1-1.8-.8,2.8,2.8,0,0,1-.7-2.1v-2.3a3.1,3.1,0,0,1,.7-2.1,2.1,2.1,0,0,1,1.8-.7,2.1,2.1,0,0,1,1.8.7,3.1,3.1,0,0,1,.7,2.1Zm-1.1-2.5A2.5,2.5,0,0,0,34,111a1.5,1.5,0,0,0-2.2,0,2.5,2.5,0,0,0-.3,1.3v2.8a1.8,1.8,0,0,0,.4,1.3,1.2,1.2,0,0,0,1,.5,1.4,1.4,0,0,0,1.1-.5,2.5,2.5,0,0,0,.3-1.3Z"/><path d="M14,133.1h0a2.2,2.2,0,0,1-.8,1.9,2.8,2.8,0,0,1-2.1.7,2.7,2.7,0,0,1-2.1-.9,3.5,3.5,0,0,1-.8-2.4V131a3.2,3.2,0,0,1,.8-2.4,2.7,2.7,0,0,1,2.1-.9,3.2,3.2,0,0,1,2.2.7,2.3,2.3,0,0,1,.7,1.8H13a1.7,1.7,0,0,0-.5-1.3,2,2,0,0,0-1.4-.5,1.7,1.7,0,0,0-1.4.7,3.5,3.5,0,0,0-.5,1.8v1.4a3.5,3.5,0,0,0,.5,1.8,2.1,2.1,0,0,0,1.4.7,2,2,0,0,0,1.4-.5,1.7,1.7,0,0,0,.5-1.3Z"/><path d="M21.3,135.6h-1l-3.8-6h0v6H15.4v-7.8h1.1l3.7,5.9h.1v-5.9h1Z"/><path d="M28.5,128.6H25.9v7H24.8v-7H22.3v-.8h6.2Z"/><path d="M35.4,132.4a3.6,3.6,0,0,1-.9,2.4,3.2,3.2,0,0,1-2.3.9,2.8,2.8,0,0,1-2.2-.9,3.6,3.6,0,0,1-.9-2.4V131a3.2,3.2,0,0,1,.9-2.4,2.8,2.8,0,0,1,2.2-.9,3.2,3.2,0,0,1,2.3.9,3.2,3.2,0,0,1,.9,2.4ZM34.3,131a2.8,2.8,0,0,0-.6-1.8,2,2,0,0,0-1.5-.7,2.1,2.1,0,0,0-1.5.7,3.5,3.5,0,0,0-.5,1.8v1.4a3.5,3.5,0,0,0,.5,1.8,2,2,0,0,0,1.5.6,2.3,2.3,0,0,0,1.6-.6,3.5,3.5,0,0,0,.5-1.8Z"/><path d="M19.9,152.5a2.1,2.1,0,0,1-1,.8,3,3,0,0,1-1.8.4,2.9,2.9,0,0,1-2.2-.9,3.2,3.2,0,0,1-.9-2.3v-1.6a3,3,0,0,1,.9-2.3,2.8,2.8,0,0,1,2.2-.9,2.7,2.7,0,0,1,2,.7,2.1,2.1,0,0,1,.8,1.7H18.8a1.6,1.6,0,0,0-.4-1.2,1.9,1.9,0,0,0-1.3-.5,1.8,1.8,0,0,0-1.5.7,2.9,2.9,0,0,0-.5,1.7v1.6a2.9,2.9,0,0,0,.5,1.7,1.8,1.8,0,0,0,1.5.7l1.1-.2.6-.4v-1.8H17.1v-.8h2.8Z"/><path d="M27.6,153.6h-1l-3.8-6h0v6H21.7v-7.8h1.1l3.7,5.9h.1v-5.9h1Z"/><path d="M29.5,153.6v-7.8h2.4a3.1,3.1,0,0,1,3.4,3.4v1a3.7,3.7,0,0,1-.9,2.5,3.5,3.5,0,0,1-2.5.9Zm1-7v6.2h1.4a2.4,2.4,0,0,0,1.7-.7,2.5,2.5,0,0,0,.7-1.9v-1.1a2.4,2.4,0,0,0-.7-1.8,2.1,2.1,0,0,0-1.7-.7Z"/><path d="M22.2,168.4a3.6,3.6,0,0,1-.9,2.4,3,3,0,0,1-2.3.9,2.9,2.9,0,0,1-2.2-.9,3.6,3.6,0,0,1-.9-2.4V167a3.2,3.2,0,0,1,.9-2.4,2.9,2.9,0,0,1,2.2-.9,3,3,0,0,1,2.3.9,3.2,3.2,0,0,1,.9,2.4ZM21.1,167a2.7,2.7,0,0,0-.5-1.8,2.2,2.2,0,0,0-1.6-.7,2.1,2.1,0,0,0-1.5.7A3.5,3.5,0,0,0,17,167v1.4a3.5,3.5,0,0,0,.5,1.8,2,2,0,0,0,1.5.6,2.1,2.1,0,0,0,1.6-.6,2.7,2.7,0,0,0,.5-1.8Z"/><path d="M24.8,168.5v3.1H23.7v-7.8h3a3,3,0,0,1,2,.6,2.6,2.6,0,0,1,.7,1.7,2.4,2.4,0,0,1-.7,1.7,3,3,0,0,1-2,.7Zm0-.9h1.9a1.6,1.6,0,0,0,1.2-.4,1.4,1.4,0,0,0,.4-1.1,1.5,1.5,0,0,0-.4-1.1,2.1,2.1,0,0,0-1.2-.4H24.8Z"/><path d="M33.6,171.6h-1v-6.8H30.9V164l2.7-.3Z"/><path d="M59.3,7.6v3.5H57.1V1.9h3.2a4,4,0,0,1,2.6.7,2.6,2.6,0,0,1,.9,2.1,2.7,2.7,0,0,1-.3,1.2,3.6,3.6,0,0,1-1.2.8,3.2,3.2,0,0,1,1.3.8,3.2,3.2,0,0,1,.3,1.4v.6c0,.3.1.5.1.8s.2.6.4.7H62.2c-.2-.1-.3-.3-.3-.7a2.8,2.8,0,0,1-.1-.9V8.9a1.3,1.3,0,0,0-.4-1,1.3,1.3,0,0,0-1-.3Zm0-1.7h1.1a1.7,1.7,0,0,0,1-.3,1,1,0,0,0,.3-.8,1,1,0,0,0-.4-.9,1.1,1.1,0,0,0-1-.4h-1Z"/><path d="M71.5,3.5H69.1v7.6H66.9V3.5H64.5V1.9h7Z"/><path d="M77.1,8.7a.8.8,0,0,0-.4-.8,2.3,2.3,0,0,0-1.1-.5A10.7,10.7,0,0,1,73,6.2a2.6,2.6,0,0,1-.8-1.9,2,2,0,0,1,1-1.8,3.6,3.6,0,0,1,2.4-.8,4.2,4.2,0,0,1,2.6.8,2.6,2.6,0,0,1,.9,2.1H77a1,1,0,0,0-.4-.9,1.3,1.3,0,0,0-1-.3l-.9.2a.9.9,0,0,0-.4.8.7.7,0,0,0,.4.6,3.1,3.1,0,0,0,1.3.6,6.7,6.7,0,0,1,2.4,1.2,2.4,2.4,0,0,1,.8,1.9,2.3,2.3,0,0,1-.9,1.9,5,5,0,0,1-2.6.7,4.5,4.5,0,0,1-2.6-.8A2.7,2.7,0,0,1,72,8.2h2.1a1.6,1.6,0,0,0,.4,1.1,2.1,2.1,0,0,0,1.2.3l1-.2A.8.8,0,0,0,77.1,8.7Z"/><path d="M83.1,9.6a1.1,1.1,0,0,0,1-.5,2.1,2.1,0,0,0,.4-1.2V7.3a2.1,2.1,0,0,1-.8.6l-.9.2a2.6,2.6,0,0,1-1.9-.8A3.5,3.5,0,0,1,80.2,5a3.2,3.2,0,0,1,.9-2.3,3.1,3.1,0,0,1,2.3-1,3.3,3.3,0,0,1,2.3,1,4,4,0,0,1,.9,2.7V7.7a3.4,3.4,0,0,1-1,2.6,3.7,3.7,0,0,1-2.5,1l-1-.2-.9-.2.3-1.6.8.2Zm.2-3,.7-.2.5-.4V5a2.1,2.1,0,0,0-.3-1.2.9.9,0,0,0-.8-.4.9.9,0,0,0-.8.5A2,2,0,0,0,82.3,5a1.8,1.8,0,0,0,.3,1.1A.8.8,0,0,0,83.3,6.6Z"/><path d="M90.7,9.6a1,1,0,0,0,.9-.5A1.6,1.6,0,0,0,92,7.9V7.3a1.9,1.9,0,0,1-.7.6l-.9.2a2.6,2.6,0,0,1-2-.8A3.5,3.5,0,0,1,87.7,5a3.2,3.2,0,0,1,.9-2.3,3.1,3.1,0,0,1,4.6,0,4,4,0,0,1,.9,2.7V7.7a3.4,3.4,0,0,1-1,2.6,3.5,3.5,0,0,1-2.4,1l-1-.2-1-.2.4-1.6.7.2Zm.1-3,.7-.2A1,1,0,0,0,92,6V5a2.1,2.1,0,0,0-.3-1.2.9.9,0,0,0-.8-.4,1,1,0,0,0-.8.5A2,2,0,0,0,89.8,5a1.8,1.8,0,0,0,.3,1.1C90.3,6.4,90.5,6.6,90.8,6.6Z"/><path d="M98.4,5.6a1.2,1.2,0,0,0,.9-.3,1.2,1.2,0,0,0,.3-.9.9.9,0,0,0-.3-.7,1.4,1.4,0,0,0-.9-.3l-.7.2a.9.9,0,0,0-.3.7H95.3a2.3,2.3,0,0,1,.9-1.8,3.8,3.8,0,0,1,2.2-.7,4.3,4.3,0,0,1,2.4.7,2.4,2.4,0,0,1,.9,2,1.5,1.5,0,0,1-.4,1.1,2.2,2.2,0,0,1-1,.9,1.9,1.9,0,0,1,1.1.8,2.1,2.1,0,0,1,.5,1.3,2.5,2.5,0,0,1-1,2,4.1,4.1,0,0,1-2.5.8,4.5,4.5,0,0,1-2.3-.7,2.4,2.4,0,0,1-.9-2h2.1a.9.9,0,0,0,.3.7,1.1,1.1,0,0,0,.8.3,1.2,1.2,0,0,0,.9-.3.9.9,0,0,0,.4-.8,1.3,1.3,0,0,0-.3-1,1.7,1.7,0,0,0-1-.3h-1V5.6Z"/><path d="M106.8,8h-3.7V6.3h3.7Z"/><path d="M111.3,9.6a.9.9,0,0,0,.9-.5,1.6,1.6,0,0,0,.4-1.2V7.3a1.9,1.9,0,0,1-.7.6l-.9.2a2.8,2.8,0,0,1-2-.8,3.5,3.5,0,0,1-.7-2.3,3.2,3.2,0,0,1,.9-2.3,3.3,3.3,0,0,1,2.3-1,3.1,3.1,0,0,1,2.3,1,4,4,0,0,1,.9,2.7V7.7a3.4,3.4,0,0,1-1,2.6,3.3,3.3,0,0,1-2.4,1l-1-.2-1-.2.4-1.6.7.2Zm.2-3,.6-.2a1,1,0,0,0,.5-.4V5a2.1,2.1,0,0,0-.3-1.2.9.9,0,0,0-.8-.4,1,1,0,0,0-.8.5,2,2,0,0,0-.3,1.1,1.8,1.8,0,0,0,.3,1.1A.9.9,0,0,0,111.5,6.6Z"/><path d="M120.9,9.3h-2.8l-.5,1.8h-2.3l3.1-9.2h2.3l3,9.2h-2.3Zm-2.3-1.6h1.8l-.9-2.9h0Z"/></g></g></svg>